<svg width="500" height="350" viewBox="0 0 500 350" fill="none" xmlns="http://www.w3.org/2000/svg">
<rect width="500" height="350" fill="white"/>
<rect x="17" y="33" width="289" height="285" rx="8" fill="#CFA4CA"/>
<path d="M124 118.415C124 119.748 125.081 120.829 126.413 120.829C127.747 120.829 128.828 119.748 128.828 118.415C128.828 117.081 127.747 116 126.413 116C125.081 116 124 117.081 124 118.415Z" fill="#E5E5E5"/>
<path d="M150.613 118.415C150.613 119.748 151.694 120.829 153.026 120.829C154.359 120.829 155.441 119.748 155.441 118.415C155.441 117.081 154.359 116 153.026 116C151.694 116 150.613 117.081 150.613 118.415Z" fill="#E5E5E5"/>
<path d="M177.225 118.415C177.225 119.748 178.307 120.829 179.64 120.829C180.972 120.829 182.053 119.748 182.053 118.415C182.053 117.081 180.972 116 179.64 116C178.307 116 177.225 117.081 177.225 118.415Z" fill="#E5E5E5"/>
<path d="M203.838 118.415C203.838 119.748 204.919 120.829 206.253 120.829C207.586 120.829 208.666 119.748 208.666 118.415C208.666 117.081 207.586 116 206.253 116C204.919 116 203.838 117.081 203.838 118.415Z" fill="#E5E5E5"/>
<path d="M230.451 118.415C230.451 119.748 231.532 120.829 232.864 120.829C234.198 120.829 235.279 119.748 235.279 118.415C235.279 117.081 234.198 116 232.864 116C231.532 116 230.451 117.081 230.451 118.415Z" fill="#E5E5E5"/>
<path d="M257.064 118.415C257.064 119.748 258.145 120.829 259.477 120.829C260.81 120.829 261.892 119.748 261.892 118.415C261.892 117.081 260.81 116 259.477 116C258.145 116 257.064 117.081 257.064 118.415Z" fill="#E5E5E5"/>
<path d="M283.676 118.415C283.676 119.748 284.758 120.829 286.091 120.829C287.423 120.829 288.504 119.748 288.504 118.415C288.504 117.081 287.423 116 286.091 116C284.758 116 283.676 117.081 283.676 118.415Z" fill="#E5E5E5"/>
<path d="M310.289 118.415C310.289 119.748 311.37 120.829 312.704 120.829C314.037 120.829 315.117 119.748 315.117 118.415C315.117 117.081 314.037 116 312.704 116C311.37 116 310.289 117.081 310.289 118.415Z" fill="#E5E5E5"/>
<path d="M336.902 118.415C336.902 119.748 337.982 120.829 339.316 120.829C340.649 120.829 341.73 119.748 341.73 118.415C341.73 117.081 340.649 116 339.316 116C337.982 116 336.902 117.081 336.902 118.415Z" fill="#E5E5E5"/>
<path d="M363.515 118.415C363.515 119.748 364.596 120.829 365.928 120.829C367.262 120.829 368.343 119.748 368.343 118.415C368.343 117.081 367.262 116 365.928 116C364.596 116 363.515 117.081 363.515 118.415Z" fill="#E5E5E5"/>
<path d="M390.128 118.415C390.128 119.748 391.209 120.829 392.542 120.829C393.874 120.829 394.956 119.748 394.956 118.415C394.956 117.081 393.874 116 392.542 116C391.209 116 390.128 117.081 390.128 118.415Z" fill="#E5E5E5"/>
<path d="M416.74 118.415C416.74 119.748 417.821 120.829 419.155 120.829C420.488 120.829 421.568 119.748 421.568 118.415C421.568 117.081 420.488 116 419.155 116C417.821 116 416.74 117.081 416.74 118.415Z" fill="#E5E5E5"/>
<path d="M443.353 118.415C443.353 119.748 444.433 120.829 445.767 120.829C447.1 120.829 448.181 119.748 448.181 118.415C448.181 117.081 447.1 116 445.767 116C444.433 116 443.353 117.081 443.353 118.415Z" fill="#E5E5E5"/>
<path d="M124 141.089C124 142.422 125.081 143.504 126.413 143.504C127.747 143.504 128.828 142.422 128.828 141.089C128.828 139.757 127.747 138.676 126.413 138.676C125.081 138.676 124 139.757 124 141.089Z" fill="#E5E5E5"/>
<path d="M150.613 141.089C150.613 142.422 151.694 143.504 153.026 143.504C154.359 143.504 155.441 142.422 155.441 141.089C155.441 139.757 154.359 138.676 153.026 138.676C151.694 138.676 150.613 139.757 150.613 141.089Z" fill="#E5E5E5"/>
<path d="M177.225 141.089C177.225 142.422 178.307 143.504 179.64 143.504C180.972 143.504 182.053 142.422 182.053 141.089C182.053 139.757 180.972 138.676 179.64 138.676C178.307 138.676 177.225 139.757 177.225 141.089Z" fill="#E5E5E5"/>
<path d="M203.838 141.089C203.838 142.422 204.919 143.504 206.253 143.504C207.586 143.504 208.666 142.422 208.666 141.089C208.666 139.757 207.586 138.676 206.253 138.676C204.919 138.676 203.838 139.757 203.838 141.089Z" fill="#E5E5E5"/>
<path d="M230.451 141.089C230.451 142.422 231.532 143.504 232.864 143.504C234.198 143.504 235.279 142.422 235.279 141.089C235.279 139.757 234.198 138.676 232.864 138.676C231.532 138.676 230.451 139.757 230.451 141.089Z" fill="#E5E5E5"/>
<path d="M257.064 141.089C257.064 142.422 258.145 143.504 259.477 143.504C260.81 143.504 261.892 142.422 261.892 141.089C261.892 139.757 260.81 138.676 259.477 138.676C258.145 138.676 257.064 139.757 257.064 141.089Z" fill="#E5E5E5"/>
<path d="M283.676 141.089C283.676 142.422 284.758 143.504 286.091 143.504C287.423 143.504 288.504 142.422 288.504 141.089C288.504 139.757 287.423 138.676 286.091 138.676C284.758 138.676 283.676 139.757 283.676 141.089Z" fill="#E5E5E5"/>
<path d="M310.289 141.089C310.289 142.422 311.37 143.504 312.704 143.504C314.037 143.504 315.117 142.422 315.117 141.089C315.117 139.757 314.037 138.676 312.704 138.676C311.37 138.676 310.289 139.757 310.289 141.089Z" fill="#E5E5E5"/>
<path d="M336.902 141.089C336.902 142.422 337.982 143.504 339.316 143.504C340.649 143.504 341.73 142.422 341.73 141.089C341.73 139.757 340.649 138.676 339.316 138.676C337.982 138.676 336.902 139.757 336.902 141.089Z" fill="#E5E5E5"/>
<path d="M363.515 141.089C363.515 142.422 364.596 143.504 365.928 143.504C367.262 143.504 368.343 142.422 368.343 141.089C368.343 139.757 367.262 138.676 365.928 138.676C364.596 138.676 363.515 139.757 363.515 141.089Z" fill="#E5E5E5"/>
<path d="M390.128 141.089C390.128 142.422 391.209 143.504 392.542 143.504C393.874 143.504 394.956 142.422 394.956 141.089C394.956 139.757 393.874 138.676 392.542 138.676C391.209 138.676 390.128 139.757 390.128 141.089Z" fill="#E5E5E5"/>
<path d="M416.74 141.089C416.74 142.422 417.821 143.504 419.155 143.504C420.488 143.504 421.568 142.422 421.568 141.089C421.568 139.757 420.488 138.676 419.155 138.676C417.821 138.676 416.74 139.757 416.74 141.089Z" fill="#E5E5E5"/>
<path d="M443.353 141.089C443.353 142.422 444.433 143.504 445.767 143.504C447.1 143.504 448.181 142.422 448.181 141.089C448.181 139.757 447.1 138.676 445.767 138.676C444.433 138.676 443.353 139.757 443.353 141.089Z" fill="#E5E5E5"/>
<path d="M124 163.765C124 165.098 125.081 166.18 126.413 166.18C127.747 166.18 128.828 165.098 128.828 163.765C128.828 162.432 127.747 161.35 126.413 161.35C125.081 161.35 124 162.432 124 163.765Z" fill="#E5E5E5"/>
<path d="M150.613 163.765C150.613 165.098 151.694 166.18 153.026 166.18C154.359 166.18 155.441 165.098 155.441 163.765C155.441 162.432 154.359 161.35 153.026 161.35C151.694 161.35 150.613 162.432 150.613 163.765Z" fill="#E5E5E5"/>
<path d="M177.225 163.765C177.225 165.098 178.307 166.18 179.64 166.18C180.972 166.18 182.053 165.098 182.053 163.765C182.053 162.432 180.972 161.35 179.64 161.35C178.307 161.35 177.225 162.432 177.225 163.765Z" fill="#E5E5E5"/>
<path d="M203.838 163.765C203.838 165.098 204.919 166.18 206.253 166.18C207.586 166.18 208.666 165.098 208.666 163.765C208.666 162.432 207.586 161.35 206.253 161.35C204.919 161.35 203.838 162.432 203.838 163.765Z" fill="#E5E5E5"/>
<path d="M230.451 163.765C230.451 165.098 231.532 166.18 232.864 166.18C234.198 166.18 235.279 165.098 235.279 163.765C235.279 162.432 234.198 161.35 232.864 161.35C231.532 161.35 230.451 162.432 230.451 163.765Z" fill="#E5E5E5"/>
<path d="M257.064 163.765C257.064 165.098 258.145 166.18 259.477 166.18C260.81 166.18 261.892 165.098 261.892 163.765C261.892 162.432 260.81 161.35 259.477 161.35C258.145 161.35 257.064 162.432 257.064 163.765Z" fill="#E5E5E5"/>
<path d="M283.676 163.765C283.676 165.098 284.758 166.18 286.091 166.18C287.423 166.18 288.504 165.098 288.504 163.765C288.504 162.432 287.423 161.35 286.091 161.35C284.758 161.35 283.676 162.432 283.676 163.765Z" fill="#E5E5E5"/>
<path d="M310.289 163.765C310.289 165.098 311.37 166.18 312.704 166.18C314.037 166.18 315.117 165.098 315.117 163.765C315.117 162.432 314.037 161.35 312.704 161.35C311.37 161.35 310.289 162.432 310.289 163.765Z" fill="#E5E5E5"/>
<path d="M336.902 163.765C336.902 165.098 337.982 166.18 339.316 166.18C340.649 166.18 341.73 165.098 341.73 163.765C341.73 162.432 340.649 161.35 339.316 161.35C337.982 161.35 336.902 162.432 336.902 163.765Z" fill="#E5E5E5"/>
<path d="M363.515 163.765C363.515 165.098 364.596 166.18 365.928 166.18C367.262 166.18 368.343 165.098 368.343 163.765C368.343 162.432 367.262 161.35 365.928 161.35C364.596 161.35 363.515 162.432 363.515 163.765Z" fill="#E5E5E5"/>
<path d="M390.128 163.765C390.128 165.098 391.209 166.18 392.542 166.18C393.874 166.18 394.956 165.098 394.956 163.765C394.956 162.432 393.874 161.35 392.542 161.35C391.209 161.35 390.128 162.432 390.128 163.765Z" fill="#E5E5E5"/>
<path d="M416.74 163.765C416.74 165.098 417.821 166.18 419.155 166.18C420.488 166.18 421.568 165.098 421.568 163.765C421.568 162.432 420.488 161.35 419.155 161.35C417.821 161.35 416.74 162.432 416.74 163.765Z" fill="#E5E5E5"/>
<path d="M443.353 163.765C443.353 165.098 444.433 166.18 445.767 166.18C447.1 166.18 448.181 165.098 448.181 163.765C448.181 162.432 447.1 161.35 445.767 161.35C444.433 161.35 443.353 162.432 443.353 163.765Z" fill="#E5E5E5"/>
<path d="M124 186.441C124 187.773 125.081 188.854 126.413 188.854C127.747 188.854 128.828 187.773 128.828 186.441C128.828 185.107 127.747 184.026 126.413 184.026C125.081 184.026 124 185.107 124 186.441Z" fill="#E5E5E5"/>
<path d="M150.613 186.441C150.613 187.773 151.694 188.854 153.026 188.854C154.359 188.854 155.441 187.773 155.441 186.441C155.441 185.107 154.359 184.026 153.026 184.026C151.694 184.026 150.613 185.107 150.613 186.441Z" fill="#E5E5E5"/>
<path d="M177.225 186.441C177.225 187.773 178.307 188.854 179.64 188.854C180.972 188.854 182.053 187.773 182.053 186.441C182.053 185.107 180.972 184.026 179.64 184.026C178.307 184.026 177.225 185.107 177.225 186.441Z" fill="#E5E5E5"/>
<path d="M203.838 186.441C203.838 187.773 204.919 188.854 206.253 188.854C207.586 188.854 208.666 187.773 208.666 186.441C208.666 185.107 207.586 184.026 206.253 184.026C204.919 184.026 203.838 185.107 203.838 186.441Z" fill="#E5E5E5"/>
<path d="M230.451 186.441C230.451 187.773 231.532 188.854 232.864 188.854C234.198 188.854 235.279 187.773 235.279 186.441C235.279 185.107 234.198 184.026 232.864 184.026C231.532 184.026 230.451 185.107 230.451 186.441Z" fill="#E5E5E5"/>
<path d="M257.064 186.441C257.064 187.773 258.145 188.854 259.477 188.854C260.81 188.854 261.892 187.773 261.892 186.441C261.892 185.107 260.81 184.026 259.477 184.026C258.145 184.026 257.064 185.107 257.064 186.441Z" fill="#E5E5E5"/>
<path d="M283.676 186.441C283.676 187.773 284.758 188.854 286.091 188.854C287.423 188.854 288.504 187.773 288.504 186.441C288.504 185.107 287.423 184.026 286.091 184.026C284.758 184.026 283.676 185.107 283.676 186.441Z" fill="#E5E5E5"/>
<path d="M310.289 186.441C310.289 187.773 311.37 188.854 312.704 188.854C314.037 188.854 315.117 187.773 315.117 186.441C315.117 185.107 314.037 184.026 312.704 184.026C311.37 184.026 310.289 185.107 310.289 186.441Z" fill="#E5E5E5"/>
<path d="M336.902 186.441C336.902 187.773 337.982 188.854 339.316 188.854C340.649 188.854 341.73 187.773 341.73 186.441C341.73 185.107 340.649 184.026 339.316 184.026C337.982 184.026 336.902 185.107 336.902 186.441Z" fill="#E5E5E5"/>
<path d="M363.515 186.441C363.515 187.773 364.596 188.854 365.928 188.854C367.262 188.854 368.343 187.773 368.343 186.441C368.343 185.107 367.262 184.026 365.928 184.026C364.596 184.026 363.515 185.107 363.515 186.441Z" fill="#E5E5E5"/>
<path d="M390.128 186.441C390.128 187.773 391.209 188.854 392.542 188.854C393.874 188.854 394.956 187.773 394.956 186.441C394.956 185.107 393.874 184.026 392.542 184.026C391.209 184.026 390.128 185.107 390.128 186.441Z" fill="#E5E5E5"/>
<path d="M416.74 186.441C416.74 187.773 417.821 188.854 419.155 188.854C420.488 188.854 421.568 187.773 421.568 186.441C421.568 185.107 420.488 184.026 419.155 184.026C417.821 184.026 416.74 185.107 416.74 186.441Z" fill="#E5E5E5"/>
<path d="M443.353 186.441C443.353 187.773 444.433 188.854 445.767 188.854C447.1 188.854 448.181 187.773 448.181 186.441C448.181 185.107 447.1 184.026 445.767 184.026C444.433 184.026 443.353 185.107 443.353 186.441Z" fill="#E5E5E5"/>
<path d="M124 209.115C124 210.449 125.081 211.53 126.413 211.53C127.747 211.53 128.828 210.449 128.828 209.115C128.828 207.782 127.747 206.701 126.413 206.701C125.081 206.701 124 207.782 124 209.115Z" fill="#E5E5E5"/>
<path d="M150.613 209.115C150.613 210.449 151.694 211.53 153.026 211.53C154.359 211.53 155.441 210.449 155.441 209.115C155.441 207.782 154.359 206.701 153.026 206.701C151.694 206.701 150.613 207.782 150.613 209.115Z" fill="#E5E5E5"/>
<path d="M177.225 209.115C177.225 210.449 178.307 211.53 179.64 211.53C180.972 211.53 182.053 210.449 182.053 209.115C182.053 207.782 180.972 206.701 179.64 206.701C178.307 206.701 177.225 207.782 177.225 209.115Z" fill="#E5E5E5"/>
<path d="M203.838 209.115C203.838 210.449 204.919 211.53 206.253 211.53C207.586 211.53 208.666 210.449 208.666 209.115C208.666 207.782 207.586 206.701 206.253 206.701C204.919 206.701 203.838 207.782 203.838 209.115Z" fill="#E5E5E5"/>
<path d="M230.451 209.115C230.451 210.449 231.532 211.53 232.864 211.53C234.198 211.53 235.279 210.449 235.279 209.115C235.279 207.782 234.198 206.701 232.864 206.701C231.532 206.701 230.451 207.782 230.451 209.115Z" fill="#E5E5E5"/>
<path d="M257.064 209.115C257.064 210.449 258.145 211.53 259.477 211.53C260.81 211.53 261.892 210.449 261.892 209.115C261.892 207.782 260.81 206.701 259.477 206.701C258.145 206.701 257.064 207.782 257.064 209.115Z" fill="#E5E5E5"/>
<path d="M283.676 209.115C283.676 210.449 284.758 211.53 286.091 211.53C287.423 211.53 288.504 210.449 288.504 209.115C288.504 207.782 287.423 206.701 286.091 206.701C284.758 206.701 283.676 207.782 283.676 209.115Z" fill="#E5E5E5"/>
<path d="M310.289 209.115C310.289 210.449 311.37 211.53 312.704 211.53C314.037 211.53 315.117 210.449 315.117 209.115C315.117 207.782 314.037 206.701 312.704 206.701C311.37 206.701 310.289 207.782 310.289 209.115Z" fill="#E5E5E5"/>
<path d="M336.902 209.115C336.902 210.449 337.982 211.53 339.316 211.53C340.649 211.53 341.73 210.449 341.73 209.115C341.73 207.782 340.649 206.701 339.316 206.701C337.982 206.701 336.902 207.782 336.902 209.115Z" fill="#E5E5E5"/>
<path d="M363.515 209.115C363.515 210.449 364.596 211.53 365.928 211.53C367.262 211.53 368.343 210.449 368.343 209.115C368.343 207.782 367.262 206.701 365.928 206.701C364.596 206.701 363.515 207.782 363.515 209.115Z" fill="#E5E5E5"/>
<path d="M390.128 209.115C390.128 210.449 391.209 211.53 392.542 211.53C393.874 211.53 394.956 210.449 394.956 209.115C394.956 207.782 393.874 206.701 392.542 206.701C391.209 206.701 390.128 207.782 390.128 209.115Z" fill="#E5E5E5"/>
<path d="M416.74 209.115C416.74 210.449 417.821 211.53 419.155 211.53C420.488 211.53 421.568 210.449 421.568 209.115C421.568 207.782 420.488 206.701 419.155 206.701C417.821 206.701 416.74 207.782 416.74 209.115Z" fill="#E5E5E5"/>
<path d="M443.353 209.115C443.353 210.449 444.433 211.53 445.767 211.53C447.1 211.53 448.181 210.449 448.181 209.115C448.181 207.782 447.1 206.701 445.767 206.701C444.433 206.701 443.353 207.782 443.353 209.115Z" fill="#E5E5E5"/>
<path d="M124 231.791C124 233.124 125.081 234.206 126.413 234.206C127.747 234.206 128.828 233.124 128.828 231.791C128.828 230.458 127.747 229.376 126.413 229.376C125.081 229.376 124 230.458 124 231.791Z" fill="#E5E5E5"/>
<path d="M150.613 231.791C150.613 233.124 151.694 234.206 153.026 234.206C154.359 234.206 155.441 233.124 155.441 231.791C155.441 230.458 154.359 229.376 153.026 229.376C151.694 229.376 150.613 230.458 150.613 231.791Z" fill="#E5E5E5"/>
<path d="M177.225 231.791C177.225 233.124 178.307 234.206 179.64 234.206C180.972 234.206 182.053 233.124 182.053 231.791C182.053 230.458 180.972 229.376 179.64 229.376C178.307 229.376 177.225 230.458 177.225 231.791Z" fill="#E5E5E5"/>
<path d="M203.838 231.791C203.838 233.124 204.919 234.206 206.253 234.206C207.586 234.206 208.666 233.124 208.666 231.791C208.666 230.458 207.586 229.376 206.253 229.376C204.919 229.376 203.838 230.458 203.838 231.791Z" fill="#E5E5E5"/>
<path d="M230.451 231.791C230.451 233.124 231.532 234.206 232.864 234.206C234.198 234.206 235.279 233.124 235.279 231.791C235.279 230.458 234.198 229.376 232.864 229.376C231.532 229.376 230.451 230.458 230.451 231.791Z" fill="#E5E5E5"/>
<path d="M257.064 231.791C257.064 233.124 258.145 234.206 259.477 234.206C260.81 234.206 261.892 233.124 261.892 231.791C261.892 230.458 260.81 229.376 259.477 229.376C258.145 229.376 257.064 230.458 257.064 231.791Z" fill="#E5E5E5"/>
<path d="M283.676 231.791C283.676 233.124 284.758 234.206 286.091 234.206C287.423 234.206 288.504 233.124 288.504 231.791C288.504 230.458 287.423 229.376 286.091 229.376C284.758 229.376 283.676 230.458 283.676 231.791Z" fill="#E5E5E5"/>
<path d="M310.289 231.791C310.289 233.124 311.37 234.206 312.704 234.206C314.037 234.206 315.117 233.124 315.117 231.791C315.117 230.458 314.037 229.376 312.704 229.376C311.37 229.376 310.289 230.458 310.289 231.791Z" fill="#E5E5E5"/>
<path d="M336.902 231.791C336.902 233.124 337.982 234.206 339.316 234.206C340.649 234.206 341.73 233.124 341.73 231.791C341.73 230.458 340.649 229.376 339.316 229.376C337.982 229.376 336.902 230.458 336.902 231.791Z" fill="#E5E5E5"/>
<path d="M363.515 231.791C363.515 233.124 364.596 234.206 365.928 234.206C367.262 234.206 368.343 233.124 368.343 231.791C368.343 230.458 367.262 229.376 365.928 229.376C364.596 229.376 363.515 230.458 363.515 231.791Z" fill="#E5E5E5"/>
<path d="M390.128 231.791C390.128 233.124 391.209 234.206 392.542 234.206C393.874 234.206 394.956 233.124 394.956 231.791C394.956 230.458 393.874 229.376 392.542 229.376C391.209 229.376 390.128 230.458 390.128 231.791Z" fill="#E5E5E5"/>
<path d="M416.74 231.791C416.74 233.124 417.821 234.206 419.155 234.206C420.488 234.206 421.568 233.124 421.568 231.791C421.568 230.458 420.488 229.376 419.155 229.376C417.821 229.376 416.74 230.458 416.74 231.791Z" fill="#E5E5E5"/>
<path d="M443.353 231.791C443.353 233.124 444.433 234.206 445.767 234.206C447.1 234.206 448.181 233.124 448.181 231.791C448.181 230.458 447.1 229.376 445.767 229.376C444.433 229.376 443.353 230.458 443.353 231.791Z" fill="#E5E5E5"/>
<g clip-path="url(#clip0_8_445)">
<path d="M93.0467 265.286C93.1924 270.717 94.103 276.1 95.7518 281.276C95.7883 281.396 95.8289 281.515 95.8684 281.635H105.962C105.952 281.527 105.941 281.407 105.93 281.276C105.257 273.547 109.102 227.063 113.741 219.018C113.335 219.67 92.2641 240.726 93.0467 265.286Z" fill="#F1F1F1"/>
<path d="M93.8042 281.276C93.8886 281.396 93.9763 281.517 94.0662 281.635H101.639C101.582 281.533 101.515 281.412 101.438 281.276C100.187 279.021 96.4843 272.277 93.0475 265.286C89.3555 257.774 85.9654 249.976 86.2509 247.154C86.1624 247.79 83.6065 267.194 93.8042 281.276Z" fill="#F1F1F1"/>
<path d="M314.077 112.033C314.366 112.747 314.808 113.389 315.372 113.914C315.936 114.438 316.608 114.833 317.342 115.07C318.075 115.307 318.852 115.381 319.616 115.286C320.381 115.19 321.116 114.929 321.769 114.519L336.383 126.231L337.288 116.547L323.271 106.91C322.51 105.86 321.389 105.126 320.122 104.846C318.855 104.566 317.529 104.761 316.396 105.392C315.263 106.024 314.401 107.048 313.973 108.272C313.546 109.496 313.583 110.835 314.077 112.033Z" fill="#9F616A"/>
<path d="M336.709 115.637L331.255 111.787L325.068 118.928L332.265 123.189L336.709 115.637Z" fill="#861B7B"/>
<path d="M335.515 113.026L353.897 120.092L371.593 108.516C373.421 107.32 375.624 106.83 377.788 107.136C379.952 107.443 381.931 108.526 383.354 110.184C384.777 111.841 385.548 113.959 385.523 116.143C385.497 118.327 384.677 120.427 383.215 122.05L383.057 122.226L355.841 136.804L326.112 123.236L335.515 113.026Z" fill="#3F3D56"/>
<path d="M330.332 280.904H138.786L145.732 145.42H175.706L203.347 164.775H337.278L330.332 280.904Z" fill="#E5E5E5"/>
<path d="M283.443 239.588L172.732 194.039C172.345 193.879 172.038 193.573 171.876 193.186C171.715 192.8 171.714 192.366 171.873 191.979L222.039 70.2869C222.199 69.9002 222.505 69.5927 222.892 69.4318C223.279 69.2709 223.713 69.2698 224.101 69.4286L334.812 114.978C335.199 115.138 335.507 115.444 335.668 115.83C335.829 116.217 335.83 116.651 335.671 117.038L285.506 238.73C285.346 239.117 285.039 239.424 284.652 239.585C284.266 239.746 283.831 239.747 283.443 239.588Z" fill="white"/>
<path d="M283.443 239.588L172.732 194.039C172.345 193.879 172.038 193.573 171.876 193.186C171.715 192.8 171.714 192.366 171.873 191.979L222.039 70.2869C222.199 69.9002 222.505 69.5927 222.892 69.4318C223.279 69.2709 223.713 69.2698 224.101 69.4286L334.812 114.978C335.199 115.138 335.507 115.444 335.668 115.83C335.829 116.217 335.83 116.651 335.671 117.038L285.506 238.73C285.346 239.117 285.039 239.424 284.652 239.585C284.266 239.746 283.831 239.747 283.443 239.588ZM223.86 70.0123C223.628 69.917 223.367 69.9176 223.135 70.0142C222.903 70.1107 222.719 70.2952 222.623 70.5272L172.458 192.219C172.362 192.451 172.363 192.712 172.459 192.944C172.556 193.175 172.741 193.359 172.973 193.455L283.684 239.004C283.917 239.1 284.177 239.099 284.409 239.003C284.641 238.906 284.825 238.722 284.921 238.49L335.087 116.798C335.182 116.565 335.181 116.305 335.085 116.073C334.988 115.841 334.803 115.657 334.571 115.561L223.86 70.0123Z" fill="#3F3D56"/>
<path d="M255.129 129.668L227.67 118.371C227.283 118.211 226.975 117.904 226.814 117.518C226.653 117.132 226.652 116.698 226.811 116.311L238.12 88.879C238.279 88.4924 238.586 88.1849 238.973 88.024C239.36 87.8631 239.794 87.8619 240.182 88.0208L267.64 99.318C268.027 99.4777 268.335 99.7843 268.496 100.171C268.657 100.557 268.658 100.991 268.499 101.378L257.191 128.81C257.031 129.196 256.724 129.504 256.338 129.665C255.951 129.826 255.516 129.827 255.129 129.668ZM239.941 88.6045C239.709 88.5091 239.448 88.5098 239.216 88.6063C238.984 88.7029 238.8 88.8874 238.704 89.1194L227.395 116.551C227.3 116.783 227.301 117.044 227.397 117.276C227.494 117.507 227.679 117.691 227.911 117.787L255.37 129.084C255.602 129.18 255.863 129.179 256.095 129.082C256.327 128.986 256.511 128.801 256.607 128.569L267.915 101.138C268.011 100.905 268.01 100.645 267.913 100.413C267.817 100.181 267.632 99.9975 267.4 99.9016L239.941 88.6045Z" fill="#F2F2F2"/>
<path d="M245.859 129.779L218.4 118.482C218.051 118.338 217.774 118.062 217.63 117.715C217.485 117.367 217.484 116.976 217.627 116.628L228.935 89.1961C229.079 88.848 229.355 88.5713 229.703 88.4265C230.051 88.2817 230.442 88.2807 230.791 88.4237L258.249 99.7208C258.598 99.8646 258.875 100.141 259.02 100.488C259.165 100.836 259.166 101.227 259.023 101.575L247.714 129.007C247.57 129.355 247.294 129.631 246.946 129.776C246.598 129.921 246.207 129.922 245.859 129.779Z" fill="#861B7B"/>
<path d="M298.747 167.24L212.866 131.906C212.693 131.835 212.536 131.731 212.404 131.599C212.272 131.467 212.167 131.311 212.095 131.139C212.023 130.967 211.986 130.782 211.986 130.596C211.985 130.409 212.022 130.224 212.093 130.052C212.164 129.879 212.268 129.723 212.4 129.591C212.532 129.458 212.688 129.353 212.861 129.282C213.033 129.21 213.218 129.173 213.404 129.172C213.591 129.172 213.776 129.208 213.949 129.279L299.83 164.613C300.179 164.757 300.456 165.033 300.601 165.38C300.746 165.728 300.747 166.119 300.603 166.467C300.46 166.815 300.184 167.093 299.835 167.237C299.487 167.382 299.096 167.383 298.747 167.24Z" fill="#CCCCCC"/>
<path d="M274.278 167.753L209.137 140.953C208.964 140.882 208.807 140.777 208.675 140.646C208.543 140.514 208.438 140.358 208.366 140.186C208.294 140.013 208.257 139.829 208.256 139.642C208.256 139.456 208.292 139.271 208.364 139.099C208.435 138.926 208.539 138.769 208.671 138.637C208.802 138.505 208.959 138.4 209.131 138.328C209.304 138.257 209.488 138.22 209.675 138.219C209.862 138.219 210.047 138.255 210.219 138.326L275.361 165.127C275.709 165.27 275.987 165.546 276.132 165.894C276.277 166.242 276.277 166.633 276.134 166.981C275.99 167.329 275.714 167.606 275.366 167.751C275.018 167.896 274.627 167.897 274.278 167.753Z" fill="#CCCCCC"/>
<path d="M312.17 133.851L274.195 118.227C274.022 118.156 273.865 118.052 273.733 117.921C273.601 117.789 273.496 117.633 273.424 117.46C273.352 117.288 273.315 117.104 273.315 116.917C273.314 116.731 273.351 116.546 273.422 116.373C273.493 116.201 273.597 116.044 273.729 115.912C273.861 115.78 274.017 115.675 274.189 115.603C274.362 115.532 274.547 115.494 274.733 115.494C274.92 115.494 275.105 115.53 275.277 115.601L313.252 131.225C313.601 131.368 313.878 131.644 314.023 131.992C314.168 132.34 314.169 132.731 314.025 133.079C313.882 133.427 313.606 133.704 313.258 133.849C312.91 133.994 312.518 133.995 312.17 133.851Z" fill="#CCCCCC"/>
<path d="M298.963 138.999L270.465 127.274C270.117 127.131 269.84 126.855 269.695 126.507C269.55 126.159 269.549 125.768 269.692 125.42C269.836 125.072 270.112 124.795 270.46 124.65C270.808 124.505 271.2 124.504 271.548 124.648L300.046 136.372C300.394 136.516 300.672 136.792 300.817 137.139C300.962 137.487 300.962 137.878 300.819 138.226C300.675 138.575 300.399 138.852 300.051 138.996C299.703 139.141 299.312 139.142 298.963 138.999Z" fill="#CCCCCC"/>
<path d="M291.289 185.333L205.407 149.999C205.235 149.928 205.078 149.824 204.946 149.692C204.813 149.561 204.708 149.404 204.636 149.232C204.565 149.06 204.528 148.875 204.527 148.689C204.527 148.502 204.563 148.318 204.634 148.145C204.705 147.973 204.81 147.816 204.941 147.684C205.073 147.552 205.23 147.447 205.402 147.375C205.574 147.303 205.759 147.266 205.946 147.266C206.133 147.265 206.317 147.302 206.49 147.373L292.372 182.707C292.72 182.85 292.997 183.126 293.142 183.474C293.287 183.821 293.288 184.212 293.145 184.561C293.001 184.909 292.725 185.186 292.377 185.331C292.029 185.476 291.637 185.476 291.289 185.333Z" fill="#CCCCCC"/>
<path d="M266.819 185.847L201.678 159.046C201.505 158.975 201.348 158.871 201.216 158.739C201.084 158.607 200.979 158.451 200.907 158.279C200.835 158.107 200.798 157.922 200.798 157.736C200.797 157.549 200.834 157.364 200.905 157.192C200.976 157.019 201.08 156.863 201.212 156.731C201.344 156.598 201.5 156.493 201.673 156.422C201.845 156.35 202.03 156.313 202.217 156.313C202.403 156.312 202.588 156.348 202.761 156.42L267.902 183.22C268.075 183.291 268.232 183.396 268.364 183.527C268.496 183.659 268.601 183.815 268.673 183.987C268.745 184.159 268.782 184.344 268.782 184.531C268.783 184.717 268.746 184.902 268.675 185.074C268.604 185.247 268.5 185.403 268.368 185.536C268.236 185.668 268.08 185.773 267.907 185.844C267.735 185.916 267.55 185.953 267.364 185.954C267.177 185.954 266.992 185.918 266.819 185.847Z" fill="#CCCCCC"/>
<path d="M283.83 203.426L197.949 168.093C197.6 167.949 197.323 167.673 197.178 167.326C197.033 166.978 197.032 166.587 197.176 166.239C197.319 165.89 197.595 165.613 197.943 165.468C198.291 165.323 198.683 165.323 199.031 165.466L284.913 200.8C285.261 200.943 285.539 201.219 285.684 201.567C285.829 201.915 285.83 202.306 285.686 202.654C285.542 203.002 285.266 203.279 284.918 203.424C284.57 203.569 284.179 203.57 283.83 203.426Z" fill="#CCCCCC"/>
<path d="M280.101 212.473L194.219 177.139C193.871 176.996 193.593 176.72 193.448 176.372C193.303 176.024 193.303 175.633 193.446 175.285C193.59 174.937 193.866 174.66 194.214 174.515C194.562 174.37 194.953 174.369 195.302 174.513L281.184 209.846C281.356 209.917 281.513 210.022 281.645 210.153C281.778 210.285 281.883 210.441 281.954 210.613C282.026 210.786 282.063 210.97 282.064 211.157C282.064 211.343 282.028 211.528 281.957 211.7C281.886 211.873 281.781 212.03 281.649 212.162C281.518 212.294 281.361 212.399 281.189 212.471C281.017 212.542 280.832 212.579 280.645 212.58C280.458 212.58 280.273 212.544 280.101 212.473Z" fill="#CCCCCC"/>
<path d="M238.204 211.801C239.923 211.892 241.646 211.839 243.356 211.644C244.896 211.464 246.5 211.216 247.85 210.408C248.433 210.075 248.93 209.609 249.3 209.049C249.67 208.488 249.902 207.848 249.978 207.181C250.037 206.546 249.893 205.909 249.566 205.362C249.239 204.815 248.746 204.386 248.159 204.137C247.563 203.886 246.91 203.801 246.27 203.89C245.63 203.98 245.025 204.241 244.521 204.646C243.983 205.113 243.557 205.696 243.275 206.35C242.994 207.005 242.864 207.714 242.895 208.426C242.966 211.349 245.281 214.236 247.851 215.452C250.747 216.821 254.701 215.658 255.442 212.285C255.597 211.584 254.64 211.34 254.24 211.791C253.695 212.392 253.399 213.178 253.414 213.99C253.43 214.801 253.754 215.576 254.322 216.157C254.89 216.737 255.659 217.079 256.47 217.112C257.282 217.146 258.076 216.868 258.69 216.336L257.614 215.894C257.926 217.203 258.579 218.407 259.505 219.385C260.432 220.362 261.6 221.079 262.891 221.462C263.529 221.653 264.19 221.754 264.855 221.761C265.663 221.763 266.494 222.169 267.267 222.421L272.84 224.234C273.659 224.501 274.18 223.258 273.353 222.989L268.306 221.346C267.465 221.073 266.626 220.791 265.783 220.525C265.18 220.335 264.52 220.438 263.891 220.326C262.714 220.103 261.624 219.551 260.749 218.733C259.874 217.916 259.25 216.867 258.949 215.708C258.931 215.593 258.883 215.484 258.81 215.393C258.738 215.301 258.643 215.23 258.535 215.185C258.427 215.141 258.309 215.125 258.193 215.139C258.078 215.153 257.967 215.196 257.873 215.265C257.52 215.6 257.049 215.783 256.563 215.773C256.076 215.763 255.613 215.561 255.275 215.212C254.936 214.863 254.75 214.394 254.755 213.908C254.761 213.421 254.959 212.957 255.306 212.616L254.104 212.122C253.626 214.297 250.969 215.114 249.055 214.485C246.913 213.781 245.073 211.734 244.434 209.589C244.264 209.074 244.201 208.529 244.25 207.989C244.3 207.448 244.46 206.923 244.722 206.448C244.955 206.014 245.319 205.664 245.761 205.447C246.204 205.231 246.703 205.158 247.19 205.24C247.624 205.302 248.017 205.529 248.286 205.874C248.556 206.22 248.68 206.656 248.634 207.092C248.562 207.582 248.371 208.047 248.078 208.446C247.784 208.844 247.397 209.165 246.95 209.379C245.745 210.026 244.302 210.186 242.964 210.333C241.438 210.499 239.901 210.543 238.368 210.464C237.507 210.42 237.334 211.757 238.204 211.801Z" fill="#861B7B"/>
<path d="M330.332 173.904V280.904H138.786V154.549H168.761L196.4 173.904H330.332Z" fill="white"/>
<path d="M228.711 260.819H150.484V267.027H228.711V260.819Z" fill="#861B7B"/>
<path d="M189.597 248.768H150.484V254.976H189.597V248.768Z" fill="#861B7B"/>
<path d="M330.698 281.27H138.421V154.184H168.876L196.517 173.539H330.698V281.27ZM139.152 280.539H329.967V174.27H196.286L168.646 154.915H139.152V280.539Z" fill="#3F3D56"/>
<path d="M408.334 268.355L401.853 270.669L389.834 246.795L399.4 243.38L408.334 268.355Z" fill="#9F616A"/>
<path d="M391.334 281.503L391.24 281.239C390.471 279.083 390.59 276.711 391.57 274.643C392.55 272.576 394.311 270.98 396.467 270.208L409.231 265.651L412.233 274.041L391.334 281.503Z" fill="#2F2E41"/>
<path d="M366.188 274.759H359.305L356.031 248.237L366.189 248.237L366.188 274.759Z" fill="#9F616A"/>
<path d="M367.943 281.425L345.75 281.424V281.143C345.75 280.01 345.974 278.888 346.408 277.841C346.842 276.794 347.478 275.843 348.28 275.041C349.083 274.24 350.035 273.604 351.083 273.171C352.131 272.737 353.254 272.514 354.389 272.514H354.389L367.944 272.514L367.943 281.425Z" fill="#2F2E41"/>
<path d="M381.874 105.317L378.881 99.4083C378.881 99.4083 367.73 102.199 366.716 108.656L381.874 105.317Z" fill="#861B7B"/>
<path d="M394.225 172.881L386.085 218.263L407.699 256.45L394.787 261.498L372.892 224.481L370.085 214.385L368.4 267.106L356.755 266.753L351.415 217.524L359.979 171.76L394.225 172.881Z" fill="#2F2E41"/>
<path d="M392.541 152.378L392.259 125.767C392.259 114.488 384.829 106.175 383.799 105.406C383.314 103.861 382.445 102.793 381.215 102.234C378.739 101.113 375.71 102.459 375.581 102.519L366.494 105.923L366.451 106.047C366.355 106.332 357.186 136.39 354.884 143.934C354.556 145.016 354.367 145.636 354.367 145.636C354.367 145.636 354.403 147.38 354.467 150.093C354.67 159.42 355.151 180.197 355.344 181.069C355.344 181.069 372.128 183.611 378.774 183.611C390.73 183.611 398.324 181.326 398.495 181.286L398.77 181.229L392.541 152.378Z" fill="#3F3D56"/>
<path d="M375.476 96.0438C381.43 92.7925 383.618 85.3352 380.363 79.3875C377.109 73.4398 369.644 71.254 363.691 74.5052C357.737 77.7565 355.549 85.2138 358.804 91.1615C362.058 97.1092 369.523 99.2951 375.476 96.0438Z" fill="#9F616A"/>
<path opacity="0.2" d="M370.945 146.746L354.467 150.093C354.403 147.38 354.367 145.636 354.367 145.636C354.367 145.636 354.556 145.016 354.884 143.934L370.945 146.746Z" fill="black"/>
<path d="M322.148 143.239C322.733 143.74 323.421 144.107 324.163 144.313C324.906 144.52 325.684 144.562 326.445 144.436C327.205 144.309 327.928 144.018 328.564 143.582C329.199 143.146 329.731 142.576 330.122 141.913L348.49 145.599L344.836 136.584L327.954 134.466C326.794 133.883 325.462 133.746 324.208 134.079C322.954 134.413 321.866 135.194 321.15 136.276C320.435 137.357 320.141 138.663 320.325 139.946C320.508 141.23 321.157 142.401 322.148 143.239Z" fill="#9F616A"/>
<path d="M343.904 136.042L337.288 135.129L335.081 144.313L343.433 144.79L343.904 136.042Z" fill="#861B7B"/>
<path d="M341.641 134.272L361.217 132.103L371.603 113.694C372.676 111.792 374.406 110.345 376.469 109.623C378.532 108.901 380.788 108.954 382.815 109.772C384.842 110.59 386.501 112.117 387.484 114.068C388.466 116.018 388.704 118.26 388.154 120.373L388.094 120.602L370.635 146.05L337.991 147.658L341.641 134.272Z" fill="#3F3D56"/>
<path d="M380.048 95.9305L369.851 96.2962C369.23 96.3185 367.543 89.6171 367.322 88.2269C367.147 87.3219 366.649 86.5112 365.92 85.9464C365.191 85.3816 364.281 85.1012 363.36 85.1576C362.597 85.2296 360.672 83.805 358.686 82.1181C354.915 78.9154 355.111 72.9004 359.253 70.1941C359.367 70.1201 359.478 70.0526 359.587 69.9915C362.2 68.5303 365.257 68.0397 368.251 68.0022C370.965 67.9683 373.757 68.3097 376.148 69.5932C380.436 71.8943 382.717 76.9229 382.918 81.7809C383.118 86.6388 381.559 91.389 379.79 95.9185" fill="#2F2E41"/>
<path d="M423.634 282H76.3655C76.2686 282 76.1756 281.962 76.1071 281.893C76.0385 281.825 76 281.732 76 281.635C76 281.538 76.0385 281.445 76.1071 281.377C76.1756 281.308 76.2686 281.27 76.3655 281.27H423.634C423.731 281.27 423.824 281.308 423.893 281.377C423.962 281.445 424 281.538 424 281.635C424 281.732 423.962 281.825 423.893 281.893C423.824 281.962 423.731 282 423.634 282Z" fill="#CBCBCB"/>
</g>
<path d="M31 71.4819L64.0133 97.431V95.9491L31 70V71.4819Z" fill="#E5E5E5"/>
<path d="M31 84.9109L64.0133 110.86V109.378L31 83.429V84.9109Z" fill="#E5E5E5"/>
<path d="M31 98.3396L64.0133 124.289V122.807L31 96.8577V98.3396Z" fill="#E5E5E5"/>
<path d="M31 111.767L64.0133 137.717V136.235L31 110.286V111.767Z" fill="#E5E5E5"/>
<path d="M31 125.196L64.0133 151.146V149.664L31 123.714V125.196Z" fill="#E5E5E5"/>
<path d="M31 138.624L64.0133 164.573V163.091L31 137.142V138.624Z" fill="#E5E5E5"/>
<path d="M31 152.053L64.0133 178.002V176.52L31 150.571V152.053Z" fill="#E5E5E5"/>
<path d="M31 165.481L64.0133 191.43V189.948L31 163.999V165.481Z" fill="#E5E5E5"/>
<path d="M31 178.91L64.0133 204.859V203.377L31 177.428V178.91Z" fill="#E5E5E5"/>
<path d="M31 192.337L64.0133 218.287V216.805L31 190.856V192.337Z" fill="#E5E5E5"/>
<path d="M31 205.766L64.0133 231.715V230.234L31 204.284V205.766Z" fill="#E5E5E5"/>
<path d="M31 219.194L64.0133 245.143V243.661L31 217.712V219.194Z" fill="#E5E5E5"/>
<path d="M31 232.623L64.0133 258.572V257.09L31 231.141V232.623Z" fill="#E5E5E5"/>
<path d="M31 246.051L64.0133 272V270.518L31 244.569V246.051Z" fill="#E5E5E5"/>
<defs>
<clipPath id="clip0_8_445">
<rect width="348" height="214" fill="white" transform="translate(76 68)"/>
</clipPath>
</defs>
</svg>
