<svg width="500" height="350" viewBox="0 0 500 350" fill="none" xmlns="http://www.w3.org/2000/svg">
<rect width="500" height="350" fill="white"/>
<rect x="67.5" y="51.5" width="366" height="242" fill="#CFA4CA" stroke="#AE65A6" stroke-width="43"/>
<path d="M241.915 33.7797C241.861 31.7427 243.457 30.0552 245.475 30.0015C247.512 29.9454 249.2 31.523 249.254 33.5578C249.328 35.5791 247.732 37.2666 245.694 37.3383H245.585C243.603 37.3383 241.989 35.7607 241.915 33.7797ZM260.026 37.7237C258.008 37.54 256.504 35.7786 256.667 33.7617C256.833 31.7247 258.613 30.239 260.633 30.4048C262.651 30.5684 264.155 32.3477 263.991 34.3668C263.825 36.2738 262.209 37.7237 260.319 37.7237H260.026ZM227.272 35.4671C226.997 33.4502 228.373 31.597 230.391 31.3057C232.39 31.0099 234.262 32.4037 234.538 34.4228C234.831 36.4217 233.437 38.275 231.437 38.5686C231.256 38.5865 231.088 38.6022 230.904 38.6022C229.106 38.6022 227.548 37.2822 227.272 35.4671ZM274.193 39.7069V39.7226C272.211 39.3215 270.925 37.3741 271.31 35.3931C271.714 33.4122 273.641 32.1102 275.641 32.5158C277.625 32.9169 278.907 34.8441 278.524 36.8229C278.174 38.5686 276.632 39.7787 274.926 39.7787C274.688 39.7787 274.451 39.7585 274.193 39.7069ZM212.923 38.8061C212.41 36.843 213.567 34.8441 215.528 34.3287C217.492 33.7976 219.491 34.9718 220.025 36.9327C220.538 38.898 219.364 40.8969 217.4 41.4101C217.088 41.5019 216.777 41.54 216.463 41.54C214.831 41.54 213.345 40.4397 212.923 38.8061ZM288.064 43.3193C286.139 42.6964 285.072 40.6235 285.697 38.694C286.323 36.7691 288.394 35.7046 290.322 36.3299C292.247 36.9528 293.312 39.0257 292.689 40.9507C292.173 42.5104 290.743 43.5008 289.183 43.5008C288.815 43.5008 288.43 43.4471 288.064 43.3193ZM199.032 43.7765C198.299 41.8874 199.233 39.7585 201.123 39.0257C202.995 38.2929 205.125 39.2095 205.876 41.1008C206.611 42.9877 205.674 45.1166 203.784 45.8494C203.345 46.0331 202.903 46.1048 202.446 46.1048C200.977 46.1048 199.601 45.2264 199.032 43.7765ZM301.423 48.4914C299.571 47.6466 298.762 45.4841 299.607 43.6308C300.45 41.7955 302.615 40.9708 304.449 41.8134H304.469C306.305 42.6583 307.13 44.823 306.285 46.6763C305.662 48.032 304.321 48.8208 302.947 48.8208C302.434 48.8208 301.918 48.711 301.423 48.4914ZM185.821 50.3066C184.867 48.5093 185.546 46.2908 187.344 45.3541C189.123 44.3995 191.343 45.0785 192.298 46.8578C193.253 48.6572 192.573 50.8758 190.776 51.8304C190.224 52.124 189.637 52.2517 189.067 52.2517C187.747 52.2517 186.481 51.557 185.821 50.3066ZM314.104 55.1694H314.084C312.36 54.1229 311.79 51.8663 312.837 50.1251C313.882 48.3973 316.139 47.8326 317.883 48.8769C319.607 49.9211 320.176 52.1778 319.13 53.9212C318.453 55.0596 317.222 55.7005 315.976 55.7005C315.332 55.7005 314.689 55.5167 314.104 55.1694ZM173.434 58.3045C172.279 56.635 172.701 54.3425 174.371 53.2041C176.039 52.0478 178.334 52.4736 179.491 54.1431C180.628 55.8103 180.206 58.1028 178.536 59.2389C177.893 59.6827 177.178 59.9 176.462 59.9C175.288 59.9 174.151 59.3308 173.434 58.3045ZM325.92 63.239C324.324 62.011 324.012 59.6983 325.261 58.1028C326.489 56.4893 328.8 56.1958 330.396 57.4238C332.01 58.6563 332.306 60.9645 331.075 62.5623C330.342 63.5147 329.26 63.9897 328.159 63.9897C327.388 63.9897 326.599 63.7522 325.92 63.239ZM162.04 67.6581C160.701 66.1186 160.865 63.8082 162.387 62.4681V62.4883C163.929 61.1482 166.243 61.3118 167.563 62.8357C168.904 64.3595 168.735 66.6699 167.213 68.0077C166.516 68.615 165.653 68.9086 164.81 68.9086C163.784 68.9086 162.755 68.485 162.04 67.6581ZM336.765 72.5949C335.315 71.2011 335.279 68.8705 336.691 67.4228C338.085 65.9528 340.414 65.9192 341.865 67.331C343.333 68.745 343.369 71.0733 341.957 72.521C341.241 73.256 340.269 73.6415 339.314 73.6415C338.397 73.6415 337.48 73.2919 336.765 72.5949ZM151.764 78.2264C150.277 76.8706 150.168 74.5378 151.544 73.0521C152.902 71.5484 155.232 71.4565 156.718 72.8145C158.222 74.1905 158.316 76.5188 156.958 78.0046C156.222 78.7956 155.232 79.199 154.241 79.199C153.36 79.199 152.461 78.8852 151.764 78.2264ZM346.471 83.1251C345.187 81.5632 345.407 79.2528 346.985 77.9687C348.545 76.6846 350.856 76.9043 352.141 78.4639C353.425 80.0416 353.205 82.3542 351.645 83.636C350.95 84.1873 350.123 84.4629 349.316 84.4629C348.251 84.4629 347.207 84.0035 346.471 83.1251ZM142.772 89.9129C141.12 88.7185 140.755 86.426 141.945 84.7946C143.14 83.1408 145.433 82.7934 147.085 83.9677C148.717 85.1599 149.085 87.4523 147.892 89.1017C147.175 90.0944 146.056 90.6076 144.918 90.6076C144.169 90.6076 143.416 90.388 142.772 89.9129ZM354.911 94.6816C353.813 92.9942 354.306 90.7174 356.012 89.6171C357.72 88.5168 359.977 89.012 361.078 90.6995C362.179 92.4048 361.701 94.6816 359.995 95.7797C359.37 96.1853 358.693 96.369 358.014 96.369C356.801 96.369 355.629 95.7797 354.911 94.6816ZM135.139 102.55C133.377 101.541 132.754 99.3024 133.763 97.541C134.754 95.7797 136.991 95.1567 138.753 96.1472C140.515 97.1377 141.138 99.3741 140.147 101.138V101.156C139.47 102.348 138.222 103.009 136.937 103.009C136.332 103.009 135.709 102.861 135.139 102.55ZM361.995 107.134C361.096 105.319 361.829 103.116 363.647 102.22C365.463 101.321 367.664 102.054 368.565 103.869V103.887C369.462 105.705 368.729 107.887 366.913 108.786C366.38 109.044 365.83 109.174 365.279 109.174C363.941 109.174 362.638 108.421 361.995 107.134ZM129.029 115.959C127.157 115.168 126.276 113.024 127.065 111.15C127.854 109.281 130.019 108.401 131.873 109.189C133.745 109.978 134.626 112.143 133.837 113.996C133.25 115.408 131.891 116.253 130.459 116.253C129.981 116.253 129.488 116.161 129.029 115.959ZM367.59 120.304C366.913 118.397 367.904 116.289 369.812 115.612C371.719 114.933 373.813 115.921 374.51 117.83C375.189 119.738 374.199 121.828 372.289 122.507C371.885 122.653 371.464 122.727 371.042 122.727C369.536 122.727 368.142 121.792 367.59 120.304ZM124.478 129.992C122.532 129.423 121.432 127.386 121.983 125.441C122.57 123.498 124.606 122.377 126.534 122.949C128.497 123.516 129.598 125.553 129.046 127.496C128.569 129.091 127.101 130.138 125.505 130.138C125.175 130.138 124.828 130.084 124.478 129.992ZM371.648 134.026C371.188 132.063 372.417 130.084 374.4 129.625C376.362 129.165 378.344 130.393 378.803 132.358C379.263 134.339 378.032 136.3 376.07 136.76C375.775 136.831 375.501 136.872 375.225 136.872C373.555 136.872 372.051 135.715 371.648 134.026ZM121.597 144.446C119.598 144.099 118.257 142.21 118.587 140.208C118.937 138.21 120.826 136.872 122.826 137.199C124.828 137.551 126.166 139.438 125.816 141.439C125.525 143.236 123.965 144.502 122.203 144.502C122.001 144.502 121.799 144.482 121.597 144.446ZM374.105 148.132C373.867 146.116 375.317 144.298 377.335 144.061C379.355 143.841 381.17 145.273 381.39 147.288C381.63 149.309 380.2 151.122 378.18 151.344C378.032 151.364 377.886 151.382 377.758 151.382C375.902 151.382 374.326 150.004 374.105 148.132ZM120.349 159.138C118.331 159.012 116.789 157.287 116.899 155.27C117.009 153.233 118.735 151.691 120.752 151.801C122.79 151.913 124.33 153.656 124.222 155.673C124.11 157.616 122.496 159.138 120.551 159.138H120.349ZM374.95 162.699V162.553V162.423C374.932 160.406 376.584 158.754 378.601 158.754C380.639 158.754 382.271 160.388 382.289 162.423V162.553V162.699C382.289 164.715 380.639 166.367 378.619 166.367C376.584 166.367 374.95 164.715 374.95 162.699ZM116.899 170.403V170.421C116.789 168.384 118.331 166.66 120.367 166.531C122.386 166.421 124.11 167.962 124.238 169.997C124.35 172.019 122.808 173.74 120.79 173.87H120.568C118.643 173.87 117.029 172.366 116.899 170.403ZM377.373 181.043C375.353 180.821 373.903 179.006 374.143 176.987C374.362 174.97 376.18 173.54 378.198 173.76C380.215 173.979 381.666 175.812 381.428 177.814C381.226 179.683 379.63 181.076 377.794 181.076C377.646 181.076 377.519 181.061 377.373 181.043ZM118.643 185.464C118.295 183.463 119.634 181.574 121.633 181.224C123.633 180.877 125.525 182.215 125.872 184.214C126.222 186.215 124.881 188.104 122.882 188.451C122.662 188.489 122.458 188.51 122.256 188.51C120.494 188.51 118.937 187.241 118.643 185.464ZM374.454 195.497C372.49 195.037 371.262 193.074 371.719 191.093C372.179 189.13 374.143 187.902 376.124 188.359C378.088 188.801 379.316 190.782 378.859 192.763C378.474 194.45 376.969 195.586 375.299 195.586C375.024 195.586 374.748 195.569 374.454 195.497ZM122.075 200.227C121.505 198.282 122.606 196.25 124.552 195.678C126.495 195.093 128.533 196.209 129.12 198.157C129.69 200.1 128.569 202.137 126.625 202.706C126.276 202.816 125.926 202.852 125.597 202.852C124 202.852 122.55 201.825 122.075 200.227ZM369.904 209.53C367.996 208.851 367.005 206.758 367.682 204.833C368.361 202.923 370.473 201.935 372.381 202.614C374.288 203.293 375.279 205.402 374.6 207.311C374.069 208.812 372.656 209.747 371.152 209.747C370.729 209.747 370.327 209.675 369.904 209.53ZM127.175 214.502C126.386 212.631 127.267 210.484 129.12 209.675C130.992 208.904 133.14 209.767 133.945 211.638C134.736 213.489 133.855 215.656 131.983 216.445C131.524 216.649 131.028 216.739 130.551 216.739C129.138 216.739 127.78 215.896 127.175 214.502ZM363.775 222.937C361.959 222.039 361.206 219.856 362.105 218.023C363.004 216.205 365.207 215.473 367.023 216.353C368.841 217.252 369.592 219.45 368.693 221.268C368.05 222.572 366.747 223.323 365.389 223.323C364.858 223.323 364.308 223.193 363.775 222.937ZM133.891 228.073C132.882 226.314 133.505 224.076 135.267 223.085C137.029 222.077 139.266 222.7 140.277 224.461C141.268 226.222 140.643 228.459 138.901 229.449C138.314 229.781 137.688 229.947 137.083 229.947C135.801 229.947 134.57 229.266 133.891 228.073ZM356.142 235.558C354.436 234.46 353.956 232.201 355.059 230.496C356.142 228.79 358.417 228.295 360.123 229.393C361.829 230.496 362.324 232.77 361.224 234.46C360.527 235.558 359.334 236.147 358.124 236.147C357.444 236.147 356.765 235.961 356.142 235.558ZM142.113 240.806C140.918 239.17 141.268 236.878 142.9 235.688C144.552 234.494 146.845 234.845 148.04 236.493C149.231 238.126 148.863 240.421 147.231 241.611C146.57 242.09 145.819 242.31 145.066 242.31C143.947 242.31 142.826 241.795 142.113 240.806ZM347.133 247.245C345.572 245.961 345.335 243.648 346.619 242.07C347.902 240.511 350.215 240.273 351.793 241.559C353.353 242.841 353.591 245.152 352.306 246.729C351.571 247.61 350.527 248.069 349.464 248.069C348.655 248.069 347.83 247.794 347.133 247.245ZM151.708 252.526C150.333 251.041 150.443 248.71 151.93 247.334C153.416 245.976 155.745 246.068 157.103 247.572C158.48 249.06 158.388 251.372 156.902 252.746C156.186 253.387 155.306 253.719 154.404 253.719C153.416 253.719 152.443 253.315 151.708 252.526ZM336.857 257.811C335.442 256.358 335.48 254.03 336.929 252.616C338.397 251.204 340.71 251.242 342.122 252.692C343.537 254.14 343.499 256.47 342.049 257.882C341.333 258.579 340.414 258.929 339.497 258.929C338.543 258.929 337.59 258.543 336.857 257.811ZM162.589 263.092C161.049 261.752 160.885 259.442 162.223 257.9C163.544 256.379 165.857 256.213 167.397 257.535C168.919 258.855 169.085 261.185 167.765 262.707C167.032 263.55 166.021 263.973 164.994 263.973C164.131 263.973 163.288 263.68 162.589 263.092ZM325.462 267.146C324.214 265.551 324.507 263.24 326.121 262.01C327.717 260.762 330.031 261.058 331.259 262.671C332.508 264.267 332.214 266.577 330.598 267.807C329.939 268.338 329.15 268.576 328.361 268.576C327.26 268.576 326.177 268.083 325.462 267.146ZM174.591 272.336C172.921 271.198 172.499 268.908 173.636 267.238C174.774 265.571 177.068 265.145 178.738 266.284C180.408 267.422 180.829 269.714 179.693 271.384C178.975 272.41 177.839 272.979 176.664 272.979C175.949 272.979 175.232 272.776 174.591 272.336ZM313.057 275.144C312.01 273.401 312.579 271.146 314.303 270.1C316.047 269.053 318.305 269.605 319.349 271.328C320.396 273.071 319.827 275.326 318.103 276.372C317.516 276.74 316.854 276.903 316.213 276.903C314.965 276.903 313.754 276.283 313.057 275.144ZM187.581 280.171C185.783 279.214 185.104 276.995 186.041 275.216C186.994 273.421 189.215 272.722 190.995 273.676C192.793 274.631 193.472 276.85 192.538 278.631C191.876 279.875 190.592 280.592 189.289 280.592C188.702 280.592 188.115 280.464 187.581 280.171ZM299.844 281.654C299.002 279.803 299.809 277.638 301.66 276.796C303.496 275.951 305.68 276.758 306.525 278.593C307.368 280.444 306.543 282.611 304.707 283.472C304.213 283.691 303.7 283.801 303.185 283.801C301.79 283.801 300.47 282.996 299.844 281.654ZM201.363 286.463C199.491 285.73 198.554 283.599 199.272 281.712C200.025 279.821 202.132 278.887 204.042 279.619H204.024C205.914 280.352 206.848 282.481 206.115 284.37C205.566 285.82 204.17 286.719 202.701 286.719C202.262 286.719 201.802 286.627 201.363 286.463ZM285.955 286.609C285.33 284.684 286.394 282.611 288.302 281.988H288.322C290.248 281.361 292.303 282.425 292.945 284.352C293.57 286.279 292.505 288.352 290.577 288.975C290.212 289.085 289.826 289.139 289.441 289.139C287.899 289.139 286.468 288.169 285.955 286.609ZM215.804 291.14C213.84 290.627 212.666 288.626 213.181 286.665C213.695 284.702 215.694 283.528 217.658 284.041C219.619 284.554 220.796 286.553 220.283 288.516C219.841 290.167 218.355 291.268 216.741 291.268C216.427 291.268 216.116 291.212 215.804 291.14ZM271.586 289.948C271.2 287.967 272.485 286.022 274.466 285.636C276.45 285.233 278.394 286.517 278.797 288.498C279.183 290.481 277.898 292.424 275.917 292.827C275.679 292.863 275.439 292.899 275.184 292.899C273.478 292.899 271.953 291.691 271.586 289.948ZM230.666 294.129C228.649 293.838 227.254 291.983 227.548 289.984C227.842 287.967 229.693 286.573 231.693 286.867C233.695 287.142 235.089 288.993 234.816 291.012C234.558 292.845 232.98 294.165 231.18 294.165C231.016 294.165 230.832 294.15 230.666 294.129ZM256.943 291.617C256.777 289.598 258.264 287.837 260.283 287.655C262.301 287.469 264.081 288.975 264.265 290.992C264.43 293.011 262.926 294.791 260.906 294.974V294.954C260.815 294.974 260.705 294.974 260.595 294.974C258.705 294.974 257.109 293.524 256.943 291.617ZM245.768 295.396C243.733 295.34 242.135 293.652 242.209 291.635C242.265 289.598 243.953 288 245.97 288.059C247.988 288.113 249.586 289.8 249.53 291.835C249.476 293.818 247.842 295.396 245.86 295.396H245.768Z" fill="#D9D9D9"/>
<path d="M355.373 271.18L344.727 254.219L355.378 273.027L355.384 274.96C356.143 274.951 356.895 274.922 357.639 274.872L356.771 250.047L356.782 249.855L356.763 249.818L356.68 247.472L367.811 228.884L356.668 245.715L356.635 246.212L355.979 227.456L365.548 208.224L355.904 224.16L355.456 185.283L355.454 185.153L355.452 185.281L355.234 215.933L346.09 203.668L355.242 218.573L355.284 235.361L346.8 219.147L355.289 237.829L355.312 247.164L342.988 224.588L355.322 250.421L355.373 271.18Z" fill="#E2E2E2"/>
<path d="M146.874 271.18L157.52 254.219L146.869 273.027L146.863 274.96C146.104 274.951 145.352 274.922 144.608 274.872L145.476 250.047L145.465 249.855L145.484 249.818L145.567 247.472L134.436 228.884L145.579 245.716L145.612 246.212L146.268 227.456L136.699 208.224L146.343 224.16L146.791 185.283L146.793 185.154L146.795 185.281L147.013 215.933L156.157 203.668L147.005 218.573L146.963 235.361L155.447 219.147L146.958 237.829L146.935 247.165L159.259 224.589L146.925 250.421L146.874 271.18Z" fill="#E2E2E2"/>
<path d="M227.403 169.791V230.816H251.043V168.943L245.555 169.14V156.653H241.575L240.919 128.998C242.525 127.948 243.656 125.452 243.656 122.538C243.657 121.702 243.56 120.868 243.367 120.054C244.127 119.229 244.593 118.173 244.691 117.053C244.79 115.933 244.516 114.812 243.912 113.865C244.417 114.309 245.005 114.646 245.641 114.86C246.277 115.073 246.949 115.157 247.618 115.107C248.287 115.058 248.94 114.875 249.538 114.57C250.136 114.266 250.668 113.845 251.102 113.332C251.537 112.819 251.866 112.224 252.07 111.583C252.274 110.941 252.349 110.266 252.291 109.595C252.232 108.924 252.042 108.271 251.73 107.675C251.419 107.079 250.992 106.55 250.476 106.121C251.344 105.799 252.108 105.244 252.685 104.517C253.262 103.79 253.629 102.918 253.747 101.997C253.865 101.075 253.729 100.138 253.353 99.2883C252.978 98.4386 252.378 97.7084 251.619 97.177C250.859 96.6455 249.969 96.3332 249.045 96.2739C248.121 96.2146 247.199 96.4106 246.378 96.8407C245.557 97.2707 244.869 97.9183 244.389 98.7131C243.91 99.5079 243.656 100.42 243.656 101.349C243.656 101.423 243.658 101.497 243.661 101.571C242.966 101.358 242.232 101.297 241.512 101.393C240.791 101.49 240.099 101.741 239.483 102.129C238.867 102.518 238.342 103.035 237.943 103.645C237.544 104.255 237.28 104.945 237.17 105.666C236.538 105.289 235.832 105.054 235.101 104.978C234.37 104.902 233.631 104.987 232.936 105.227C232.24 105.466 231.605 105.855 231.075 106.365C230.544 106.876 230.13 107.496 229.862 108.184C229.594 108.871 229.479 109.608 229.523 110.345C229.568 111.081 229.771 111.8 230.12 112.449C230.469 113.099 230.954 113.665 231.542 114.107C232.131 114.549 232.808 114.858 233.527 115.011C233.526 115.048 233.524 115.085 233.524 115.122C233.995 116.547 234.593 117.927 235.313 119.243C234.961 120.306 234.785 121.419 234.791 122.538C234.791 125.452 235.921 127.948 237.527 128.998L236.871 156.653H232.891V169.594L227.403 169.791ZM242.165 111.52L242.178 111.52C242.251 111.52 242.324 111.517 242.396 111.514C242.442 111.665 242.494 111.812 242.553 111.956C242.432 111.803 242.302 111.657 242.165 111.52Z" fill="#E2E2E2"/>
<path d="M214.387 274.255H286.151V190.91H214.387V274.255Z" fill="#3F3D56"/>
<path d="M240.595 274.255H259.943V257.303H240.595V274.255Z" fill="#E2E2E2"/>
<path d="M190.47 81.2465C190.469 81.3081 190.465 81.3691 190.465 81.431C190.464 82.5644 190.69 83.6865 191.13 84.7305C191.57 85.7744 192.214 86.7189 193.025 87.5076C193.152 87.7788 193.293 88.043 193.447 88.2992C192.861 90.07 192.566 91.9253 192.576 93.7914C192.576 100.228 195.884 105.446 199.964 105.446C204.044 105.446 207.351 100.228 207.351 93.7914C207.354 92.3972 207.193 91.0076 206.87 89.6516C208.137 88.2754 208.913 86.5162 209.077 84.6497C209.242 82.7831 208.785 80.9145 207.778 79.3365C208.62 80.0749 209.6 80.6382 210.66 80.9935C211.72 81.3488 212.841 81.4891 213.955 81.4063C215.07 81.3235 216.158 81.0193 217.154 80.5112C218.151 80.0031 219.038 79.3013 219.762 78.4466C220.486 77.5918 221.035 76.6012 221.374 75.5321C221.714 74.463 221.84 73.3367 221.742 72.2187C221.645 71.1007 221.328 70.0131 220.809 69.0192C220.29 68.0253 219.579 67.1448 218.718 66.4289C220.166 65.8926 221.439 64.9683 222.4 63.7564C223.362 62.5446 223.974 61.0915 224.17 59.555C224.366 58.0185 224.139 56.4574 223.514 55.0413C222.889 53.6251 221.889 52.4081 220.623 51.5224C219.357 50.6366 217.873 50.1161 216.333 50.0173C214.794 49.9185 213.256 50.2451 211.888 50.9619C210.52 51.6786 209.374 52.7579 208.574 54.0826C207.774 55.4073 207.351 56.9267 207.351 58.4758C207.351 58.5999 207.355 58.723 207.36 58.8458C206.201 58.4903 204.979 58.3894 203.778 58.5499C202.576 58.7104 201.423 59.1286 200.397 59.7761C199.371 60.4236 198.495 61.2853 197.83 62.3025C197.165 63.3197 196.725 64.4687 196.542 65.6715C195.489 65.0426 194.312 64.6513 193.093 64.5247C191.875 64.3981 190.643 64.5393 189.484 64.9385C188.326 65.3377 187.267 65.9852 186.383 66.8362C185.498 67.6873 184.809 68.7214 184.362 69.8667C183.916 71.0121 183.723 72.2413 183.797 73.469C183.871 74.6966 184.211 75.8934 184.792 76.9762C185.373 78.0589 186.182 79.0018 187.162 79.7392C188.143 80.4766 189.272 80.9909 190.47 81.2465ZM204.889 75.4273C205.01 75.4273 205.131 75.4232 205.252 75.4181C205.328 75.6686 205.415 75.9138 205.513 76.1539C205.311 75.8993 205.096 75.6565 204.867 75.4267L204.889 75.4273Z" fill="#E2E2E2"/>
<path d="M195.741 163.363H204.185L203.883 150.651V150.646L202.778 104.031C201.931 104.551 200.956 104.826 199.963 104.826C198.969 104.826 197.995 104.551 197.148 104.031L196.043 150.646V150.651L195.741 163.363Z" fill="#861B7B"/>
<path d="M180.265 172.544V274.255H219.662V171.132L210.516 171.459V150.651H189.409V172.216L180.265 172.544Z" fill="#861B7B"/>
<path d="M289.927 86.7322C289.926 86.7795 289.924 86.8265 289.924 86.874C289.923 87.7457 290.095 88.6087 290.43 89.4116C290.765 90.2144 291.256 90.9408 291.873 91.5473C291.969 91.7559 292.077 91.9591 292.194 92.1561C291.748 93.518 291.524 94.9448 291.531 96.38C291.531 101.33 294.049 105.343 297.156 105.343C300.263 105.343 302.781 101.33 302.781 96.38C302.783 95.3078 302.66 94.239 302.414 93.1962C303.379 92.1378 303.97 90.7849 304.095 89.3494C304.22 87.9139 303.872 86.4768 303.106 85.2633C303.747 85.8312 304.493 86.2643 305.3 86.5376C306.108 86.8109 306.961 86.9188 307.809 86.8551C308.658 86.7915 309.486 86.5575 310.245 86.1667C311.004 85.776 311.679 85.2363 312.231 84.5789C312.782 83.9216 313.2 83.1597 313.459 82.3374C313.717 81.5152 313.813 80.6491 313.739 79.7892C313.665 78.9294 313.423 78.093 313.028 77.3286C312.632 76.5642 312.091 75.8871 311.436 75.3365C312.538 74.924 313.508 74.2132 314.24 73.2812C314.971 72.3492 315.437 71.2317 315.587 70.0501C315.736 68.8684 315.564 67.6678 315.087 66.5787C314.611 65.4896 313.85 64.5536 312.886 63.8724C311.922 63.1913 310.793 62.7909 309.62 62.7149C308.448 62.6389 307.277 62.8902 306.235 63.4414C305.194 63.9926 304.321 64.8227 303.712 65.8414C303.103 66.8602 302.781 68.0287 302.781 69.2201C302.781 69.3155 302.784 69.4102 302.788 69.5046C301.905 69.2312 300.975 69.1536 300.06 69.2771C299.145 69.4005 298.267 69.7222 297.486 70.2201C296.704 70.7181 296.038 71.3807 295.531 72.163C295.025 72.9453 294.69 73.829 294.55 74.754C293.749 74.2704 292.853 73.9694 291.925 73.8721C290.997 73.7747 290.059 73.8833 289.177 74.1903C288.295 74.4973 287.489 74.9953 286.815 75.6498C286.142 76.3043 285.617 77.0996 285.277 77.9804C284.937 78.8613 284.79 79.8066 284.846 80.7507C284.903 81.6949 285.161 82.6153 285.604 83.448C286.046 84.2807 286.662 85.0058 287.409 85.5729C288.155 86.1401 289.015 86.5356 289.927 86.7322ZM300.906 82.2568C300.999 82.2568 301.091 82.2537 301.183 82.2497C301.24 82.4424 301.306 82.631 301.381 82.8156C301.228 82.6198 301.064 82.4331 300.889 82.2564L300.906 82.2568Z" fill="#E2E2E2"/>
<path d="M296.353 163.363H304.796L303.389 104.033C301.57 104.689 299.58 104.689 297.76 104.033L296.353 163.363Z" fill="#861B7B"/>
<path d="M280.875 172.544V274.255H320.277V171.132L317.04 171.249L311.127 171.459V150.651H290.02V172.216L280.875 172.544Z" fill="#861B7B"/>
<path d="M260.976 210.74H270.71V200.969H260.976V210.74Z" fill="white"/>
<path d="M245.402 210.74H255.136V200.969H245.402V210.74Z" fill="white"/>
<path d="M229.829 210.74H239.562V200.969H229.829V210.74Z" fill="white"/>
<path d="M260.976 226.375H270.71V216.603H260.976V226.375Z" fill="white"/>
<path d="M245.402 226.375H255.136V216.603H245.402V226.375Z" fill="white"/>
<path d="M229.829 226.375H239.562V216.603H229.829V226.375Z" fill="white"/>
<path d="M260.976 242.009H270.71V232.237H260.976V242.009Z" fill="white"/>
<path d="M245.402 242.009H255.136V232.237H245.402V242.009Z" fill="white"/>
<path d="M229.829 242.009H239.562V232.237H229.829V242.009Z" fill="white"/>
<path d="M195.097 206.832H204.83V197.06H195.097V206.832Z" fill="white"/>
<path d="M195.097 222.466H204.83V212.694H195.097V222.466Z" fill="white"/>
<path d="M195.097 238.1H204.83V228.329H195.097V238.1Z" fill="white"/>
<path d="M195.097 253.735H204.83V243.963H195.097V253.735Z" fill="white"/>
<path d="M295.627 206.832H305.36V197.06H295.627V206.832Z" fill="white"/>
<path d="M295.627 222.466H305.36V212.694H295.627V222.466Z" fill="white"/>
<path d="M295.627 238.1H305.36V228.329H295.627V238.1Z" fill="white"/>
<path d="M295.627 253.735H305.36V243.963H295.627V253.735Z" fill="white"/>
<path d="M370 274.196H129.461V275H370V274.196Z" fill="#3F3D56"/>
</svg>
