<svg width="500" height="350" viewBox="0 0 500 350" fill="none" xmlns="http://www.w3.org/2000/svg">
<rect width="500" height="350" fill="white"/>
<rect x="17" y="33" width="470" height="285" rx="8" fill="#CFA4CA"/>
<rect x="16.364" y="174.859" width="218.489" height="218.489" rx="11.5" transform="rotate(-45 16.364 174.859)" fill="#AE65A6" stroke="#CFA4CA" stroke-width="9"/>
<rect x="177.364" y="174.859" width="218.489" height="218.489" rx="11.5" transform="rotate(-45 177.364 174.859)" fill="#AE65A6" stroke="#CFA4CA" stroke-width="9"/>
<g clip-path="url(#clip0_7_88)">
<mask id="mask0_7_88" style="mask-type:luminance" maskUnits="userSpaceOnUse" x="48" y="-13" width="452" height="286">
<path d="M499.905 -13H48V272.484H499.905V-13Z" fill="white"/>
</mask>
<g mask="url(#mask0_7_88)">
<path d="M103.204 97.1961C118.338 97.1961 130.607 84.9083 130.607 69.7503C130.607 54.592 118.338 42.3038 103.204 42.3038C88.069 42.3038 75.8 54.592 75.8 69.7503C75.8 84.9083 88.069 97.1961 103.204 97.1961Z" fill="#FF6584"/>
<path d="M293.73 272.484C330.366 272.484 360.065 270.188 360.065 267.356C360.065 264.523 330.366 262.227 293.73 262.227C257.095 262.227 227.396 264.523 227.396 267.356C227.396 270.188 257.095 272.484 293.73 272.484Z" fill="#861B7B"/>
<path opacity="0.4" d="M97.6241 94.1575C99.0188 85.5498 93.1821 77.4391 84.5875 76.0423C75.9929 74.6455 67.8949 80.4911 66.5001 89.0988C65.1054 97.7072 70.9421 105.818 79.5368 107.215C88.1314 108.612 96.2294 102.766 97.6241 94.1575Z" fill="#861B7B"/>
<path d="M450.911 173.082C326.757 126.468 175.333 171.912 87.907 264.87C87.4101 265.392 86.9132 265.921 86.432 266.45H85.0989C85.5564 265.921 86.0296 265.392 86.495 264.87C175.735 164.841 325.148 124.975 450.911 173.082Z" fill="#3F3D56"/>
<path opacity="0.4" d="M387.292 138.636C396.842 138.636 404.583 130.882 404.583 121.318C404.583 111.754 396.842 104 387.292 104C377.742 104 370 111.754 370 121.318C370 130.882 377.742 138.636 387.292 138.636Z" fill="#861B7B"/>
<path d="M391.121 257.174C392.457 262.121 397.035 265.185 397.035 265.185C397.035 265.185 399.444 260.228 398.108 255.281C396.772 250.334 392.195 247.27 392.195 247.27C392.195 247.27 389.785 252.227 391.121 257.174Z" fill="#3F3D56"/>
<path d="M402.521 257.422C401.088 262.339 396.448 265.315 396.448 265.315C396.448 265.315 394.133 260.317 395.566 255.4C396.999 250.483 401.638 247.507 401.638 247.507C401.638 247.507 403.954 252.504 402.521 257.422Z" fill="#861B7B"/>
<path d="M259.87 220.739L256.607 215.292L287.067 189.143C309.586 178.287 336.73 181.419 365.393 189.143V196.769L337.109 227.277L304.473 233.814L259.87 220.739Z" fill="#3F3D56"/>
<path d="M378.876 204.488C384.285 198.461 385.037 192.732 378.876 187.441H368.621V192.816L365.393 189.143L339.284 215.292L334.932 219.65L329.493 241.441L339.284 265.411H389.326V216.381L378.876 204.488Z" fill="#CCCCCC"/>
<path d="M256.607 215.291H339.284V265.411H256.607C246.605 254.572 251.801 234.817 256.607 215.291Z" fill="#F2F2F2"/>
<path d="M327.861 231.09H310.456V246.344H327.861V231.09Z" fill="#3F3D56"/>
<path d="M303.385 230.545H288.155V265.411H303.385V230.545Z" fill="#CCCCCC"/>
<path d="M270.749 235.993V230.546H264.222V235.993H270.205H270.749Z" fill="#3F3D56"/>
<path d="M270.205 240.351H264.222V245.799H270.749V240.351H270.205Z" fill="#3F3D56"/>
<path d="M281.628 230.545H275.1V235.993H281.628V230.545Z" fill="#3F3D56"/>
<path d="M281.628 240.351H275.1V245.798H281.628V240.351Z" fill="#3F3D56"/>
<path d="M362.673 236.538V231.09H356.146V236.538H362.129H362.673Z" fill="#3F3D56"/>
<path d="M362.129 240.896H356.146V246.344H362.673V240.896H362.129Z" fill="#3F3D56"/>
<path d="M373.551 231.09H367.024V236.537H373.551V231.09Z" fill="#3F3D56"/>
<path d="M373.551 240.896H367.024V246.344H373.551V240.896Z" fill="#3F3D56"/>
<path d="M112.657 129.218L107.218 124.859L137.678 97.6204H214.916V121.591L164.875 155.367L112.657 129.218Z" fill="#3F3D56"/>
<path d="M228.998 112.9V98.1647H218.743V101.774L214.916 97.6204L189.895 124.859L180.105 131.397L164.924 242.481L187.818 265.411H241.025C249.177 224.337 255.642 182.143 241.025 125.949L228.998 112.9Z" fill="#CCCCCC"/>
<path d="M107.218 124.859H189.895V265.411H107.218C98.1706 210.808 93.7521 160.171 107.218 124.859Z" fill="#F2F2F2"/>
<path d="M154.539 231.09H139.31V265.411H154.539V231.09Z" fill="#CCCCCC"/>
<path d="M122.992 240.896V235.449H116.465V240.896H122.448H122.992Z" fill="#3F3D56"/>
<path d="M122.448 245.254H116.465V250.702H122.992V245.254H122.448Z" fill="#3F3D56"/>
<path d="M133.871 235.448H127.343V240.896H133.871V235.448Z" fill="#3F3D56"/>
<path d="M167.05 245.254H161.067V250.702H167.594V245.254H167.05Z" fill="#3F3D56"/>
<path d="M178.473 235.448H171.945V240.896H178.473V235.448Z" fill="#3F3D56"/>
<path d="M178.473 245.254H171.945V250.701H178.473V245.254Z" fill="#3F3D56"/>
<path d="M213.284 131.941V126.494H206.757V131.941H212.74H213.284Z" fill="#3F3D56"/>
<path d="M212.74 136.3H206.757V141.747H213.284V136.3H212.74Z" fill="#3F3D56"/>
<path d="M224.162 126.494H217.636V131.941H224.162V126.494Z" fill="#3F3D56"/>
<path d="M224.162 136.299H217.636V141.747H224.162V136.299Z" fill="#3F3D56"/>
<path d="M213.284 162.449V157.001H206.757V162.449H212.74H213.284Z" fill="#3F3D56"/>
<path d="M212.74 166.807H206.757V172.254H213.284V166.807H212.74Z" fill="#3F3D56"/>
<path d="M224.162 157.001H217.636V162.448H224.162V157.001Z" fill="#3F3D56"/>
<path d="M224.162 166.806H217.636V172.254H224.162V166.806Z" fill="#3F3D56"/>
<path d="M213.284 192.956V187.508H206.757V192.956H212.74H213.284Z" fill="#3F3D56"/>
<path d="M212.74 197.314H206.757V202.762H213.284V197.314H212.74Z" fill="#3F3D56"/>
<path d="M224.162 187.508H217.636V192.955H224.162V187.508Z" fill="#3F3D56"/>
<path d="M224.162 197.314H217.636V202.762H224.162V197.314Z" fill="#3F3D56"/>
<path d="M213.284 223.463V218.015H206.757V223.463H212.74H213.284Z" fill="#3F3D56"/>
<path d="M212.74 227.822H206.757V233.269H213.284V227.822H212.74Z" fill="#3F3D56"/>
<path d="M224.162 218.015H217.636V223.463H224.162V218.015Z" fill="#3F3D56"/>
<path d="M224.162 227.822H217.636V233.269H224.162V227.822Z" fill="#3F3D56"/>
<path d="M116.465 131.941H179.56V145.016C159.336 139.425 138.246 139.827 116.465 145.016V131.941Z" fill="#3F3D56"/>
<path d="M116.465 158.09C136.157 163.901 157.189 163.901 179.56 158.09V171.165H116.465V158.09Z" fill="#3F3D56"/>
<path d="M116.465 184.24H179.56V197.314C158.058 190.437 137.004 190.113 116.465 197.314V184.24Z" fill="#3F3D56"/>
<path d="M116.465 210.388C137.042 218.331 158.093 218.001 179.56 210.388V223.463H116.465V210.388Z" fill="#3F3D56"/>
<path d="M157.484 67.5856H166.859C176.107 67.5856 184.976 71.2649 191.515 77.8136C198.054 84.3632 201.727 93.2458 201.727 102.508H157.484V67.5856Z" fill="#3F3D56"/>
<path d="M307.362 155.282H316.737C325.985 155.282 334.854 158.961 341.393 165.51C347.932 172.059 351.605 180.942 351.605 190.204H307.362V155.282Z" fill="#3F3D56"/>
<path d="M91.7414 202.452H90.1637V264.866H91.7414V202.452Z" fill="#3F3D56"/>
<path d="M106.301 210.406C106.402 232.231 91.0707 249.994 91.0707 249.994C91.0707 249.994 71.4373 231.995 75.4764 210.548C79.5386 188.979 92.1988 171.052 90.707 170.96C90.707 170.96 106.201 188.582 106.301 210.406Z" fill="#861B7B"/>
<path d="M249.508 202.452H247.93V264.866H249.508V202.452Z" fill="#3F3D56"/>
<path d="M264.068 210.406C265.489 232.185 248.837 249.994 248.837 249.994C248.837 249.994 233.343 232.373 233.243 210.548C233.142 188.724 248.473 170.96 248.473 170.96C246.979 176.943 262.917 192.785 264.068 210.406Z" fill="#861B7B"/>
<path d="M147.009 100.996L215.537 97.6385L244.285 121.671L239.202 126.267L193.68 125.241L147.009 100.996Z" fill="#3F3D56"/>
<path d="M296.886 191.853L365.415 188.495L394.163 212.528L389.08 217.123L343.558 216.097L296.886 191.853Z" fill="#3F3D56"/>
</g>
</g>
<defs>
<clipPath id="clip0_7_88">
<rect width="452" height="286" fill="white" transform="translate(48 20)"/>
</clipPath>
</defs>
</svg>
