<svg width="500" height="350" viewBox="0 0 500 350" fill="none" xmlns="http://www.w3.org/2000/svg">
<rect width="500" height="350" fill="white"/>
<path d="M109.106 51.2751H457.667L398.429 317H49.8682L109.106 51.2751Z" fill="#CFA4CA"/>
<path d="M102.238 32H450.798L391.56 297.725H43L102.238 32Z" fill="#AE65A6"/>
<path d="M460.737 49.5521C460.342 49.2339 459.943 48.923 459.54 48.6184L392.617 115.54C392.923 115.943 393.233 116.343 393.552 116.738L460.737 49.5521Z" fill="#E2E2E2"/>
<path d="M444.389 40.9601C443.835 40.7962 443.276 40.6452 442.717 40.5013L384.501 98.7175C384.645 99.2767 384.796 99.8343 384.96 100.39L444.389 40.9601Z" fill="#E2E2E2"/>
<path d="M455.873 46.1036C455.431 45.8304 454.985 45.5661 454.536 45.309L389.308 110.536C389.566 110.986 389.83 111.431 390.104 111.873L455.873 46.1036Z" fill="#E2E2E2"/>
<path d="M450.446 43.2168C449.952 42.9942 449.457 42.7789 448.957 42.574L386.573 104.958C386.779 105.457 386.993 105.953 387.217 106.446L450.446 43.2168Z" fill="#E2E2E2"/>
<path d="M437.565 39.4708C436.933 39.3809 436.299 39.3053 435.665 39.2402L383.24 91.6648C383.304 92.2996 383.38 92.9335 383.471 93.5651L437.565 39.4708Z" fill="#E2E2E2"/>
<path d="M464.555 52.9818C464.376 52.8035 464.196 52.6307 464.016 52.4564L396.456 120.016C396.63 120.195 396.804 120.377 396.982 120.556C397.16 120.734 397.341 120.907 397.521 121.082L465.081 53.5218C464.906 53.3418 464.733 53.161 464.555 52.9818Z" fill="#E2E2E2"/>
<path d="M429.723 39C428.978 39.0169 428.233 39.0498 427.49 39.1013L383.1 83.4901C383.05 84.2342 383.016 84.979 383 85.723L429.723 39Z" fill="#E2E2E2"/>
<path d="M384.154 76.2549L420.254 40.1548C419.292 40.371 418.335 40.6168 417.384 40.8932L384.893 73.3848C384.616 74.3345 384.37 75.2923 384.154 76.2549Z" fill="#E2E2E2"/>
<path d="M478.436 90.0476C478.487 89.3036 478.521 88.5588 478.537 87.8147L431.814 134.538C432.558 134.522 433.303 134.488 434.047 134.436L478.436 90.0476Z" fill="#E2E2E2"/>
<path d="M478.297 81.873C478.232 81.2382 478.157 80.6043 478.067 79.9727L423.972 134.067C424.604 134.157 425.238 134.232 425.873 134.298L478.297 81.873Z" fill="#E2E2E2"/>
<path d="M406.499 45.5966C403.102 47.6021 399.9 50.064 396.982 52.9815C394.063 55.9006 391.601 59.1033 389.596 62.4996L406.499 45.5966Z" fill="#E2E2E2"/>
<path d="M476.644 100.153C476.92 99.2027 477.166 98.2457 477.382 97.2831L441.282 133.382C442.245 133.167 443.202 132.92 444.152 132.645L476.644 100.153Z" fill="#E2E2E2"/>
<path d="M455.038 127.941C458.435 125.936 461.637 123.474 464.555 120.556C467.474 117.637 469.935 114.434 471.941 111.038L455.038 127.941Z" fill="#E2E2E2"/>
<path d="M472.229 63.0012C471.972 62.552 471.707 62.1069 471.434 61.665L405.664 127.434C406.106 127.707 406.552 127.971 407.001 128.229L472.229 63.0012Z" fill="#E2E2E2"/>
<path d="M468.919 57.9974C468.615 57.5949 468.304 57.1947 467.985 56.8002L400.8 123.986C401.194 124.304 401.595 124.615 401.997 124.919L468.919 57.9974Z" fill="#E2E2E2"/>
<path d="M477.036 74.8205C476.892 74.2613 476.741 73.7028 476.577 73.1484L417.148 132.578C417.703 132.742 418.261 132.892 418.82 133.037L477.036 74.8205Z" fill="#E2E2E2"/>
<path d="M474.963 68.5802C474.758 68.0812 474.544 67.5846 474.32 67.0913L411.091 130.321C411.584 130.544 412.08 130.759 412.579 130.964L474.963 68.5802Z" fill="#E2E2E2"/>
<g clip-path="url(#clip0_8_782)">
<path d="M346.166 311.344V289.056C346.166 289.056 354.883 304.857 346.166 311.344Z" fill="#F1F1F1"/>
<path d="M346.704 311.34L330.226 296.267C330.226 296.267 347.804 300.555 346.704 311.34Z" fill="#F1F1F1"/>
<path d="M172.118 111H132.706L113 145.009L132.706 179.018H172.118L191.824 145.009L172.118 111Z" fill="#E6E6E6"/>
<path d="M134.918 175.201H169.906L187.4 145.009L169.906 114.817H134.918L117.424 145.009L134.918 175.201Z" fill="white"/>
<path d="M134.495 137.611C135.387 137.611 136.109 136.891 136.109 136.002C136.109 135.114 135.387 134.394 134.495 134.394C133.604 134.394 132.881 135.114 132.881 136.002C132.881 136.891 133.604 137.611 134.495 137.611Z" fill="#E2E2E2"/>
<path d="M134.495 146.617C135.387 146.617 136.109 145.897 136.109 145.009C136.109 144.121 135.387 143.401 134.495 143.401C133.604 143.401 132.881 144.121 132.881 145.009C132.881 145.897 133.604 146.617 134.495 146.617Z" fill="#E2E2E2"/>
<path d="M134.495 155.624C135.387 155.624 136.109 154.904 136.109 154.015C136.109 153.127 135.387 152.407 134.495 152.407C133.604 152.407 132.881 153.127 132.881 154.015C132.881 154.904 133.604 155.624 134.495 155.624Z" fill="#E2E2E2"/>
<path d="M171.943 134.716H141.275V137.289H171.943V134.716Z" fill="#E2E2E2"/>
<path d="M171.943 143.722H141.275V146.296H171.943V143.722Z" fill="#E2E2E2"/>
<path d="M171.943 152.729H141.275V155.302H171.943V152.729Z" fill="#E2E2E2"/>
<path d="M367.294 111H327.882L308.176 145.009L327.882 179.018H367.294L387 145.009L367.294 111Z" fill="#E6E6E6"/>
<path d="M330.094 175.201H365.082L382.576 145.009L365.082 114.817H330.094L312.6 145.009L330.094 175.201Z" fill="white"/>
<path d="M329.671 137.611C330.563 137.611 331.285 136.891 331.285 136.002C331.285 135.114 330.563 134.394 329.671 134.394C328.78 134.394 328.057 135.114 328.057 136.002C328.057 136.891 328.78 137.611 329.671 137.611Z" fill="#E2E2E2"/>
<path d="M329.671 146.617C330.563 146.617 331.285 145.897 331.285 145.009C331.285 144.121 330.563 143.401 329.671 143.401C328.78 143.401 328.057 144.121 328.057 145.009C328.057 145.897 328.78 146.617 329.671 146.617Z" fill="#E2E2E2"/>
<path d="M329.671 155.624C330.563 155.624 331.285 154.904 331.285 154.015C331.285 153.127 330.563 152.407 329.671 152.407C328.78 152.407 328.057 153.127 328.057 154.015C328.057 154.904 328.78 155.624 329.671 155.624Z" fill="#E2E2E2"/>
<path d="M367.119 134.716H336.45V137.289H367.119V134.716Z" fill="#E2E2E2"/>
<path d="M367.119 143.722H336.45V146.296H367.119V143.722Z" fill="#E2E2E2"/>
<path d="M367.119 152.729H336.45V155.302H367.119V152.729Z" fill="#E2E2E2"/>
<path d="M269.514 111.33H230.485L210.97 145.009L230.485 178.688H269.514L289.03 145.009L269.514 111.33Z" fill="#E6E6E6"/>
<path d="M232.676 174.907H267.324L284.648 145.009L267.324 115.111H232.676L215.351 145.009L232.676 174.907Z" fill="white"/>
<path d="M232.257 137.683C233.14 137.683 233.856 136.969 233.856 136.09C233.856 135.21 233.14 134.497 232.257 134.497C231.374 134.497 230.659 135.21 230.659 136.09C230.659 136.969 231.374 137.683 232.257 137.683Z" fill="#861B7B"/>
<path d="M232.257 146.602C233.14 146.602 233.856 145.889 233.856 145.009C233.856 144.129 233.14 143.416 232.257 143.416C231.374 143.416 230.659 144.129 230.659 145.009C230.659 145.889 231.374 146.602 232.257 146.602Z" fill="#861B7B"/>
<path d="M232.257 155.521C233.14 155.521 233.856 154.808 233.856 153.928C233.856 153.048 233.14 152.335 232.257 152.335C231.374 152.335 230.659 153.048 230.659 153.928C230.659 154.808 231.374 155.521 232.257 155.521Z" fill="#861B7B"/>
<path d="M269.341 134.816H238.971V137.364H269.341V134.816Z" fill="#861B7B"/>
<path d="M269.341 143.735H238.971V146.283H269.341V143.735Z" fill="#861B7B"/>
<path d="M269.341 152.654H238.971V155.202H269.341V152.654Z" fill="#861B7B"/>
<path d="M283.274 308.104L279.483 308.104L277.68 293.534L283.274 293.534L283.274 308.104Z" fill="#9F616A"/>
<path d="M284.241 311.765L272.017 311.765V311.611C272.017 310.354 272.518 309.148 273.411 308.259C274.303 307.37 275.513 306.87 276.775 306.87L284.241 306.871L284.241 311.765Z" fill="#2F2E41"/>
<path d="M318.524 308.104L314.733 308.104L312.93 293.534L318.525 293.534L318.524 308.104Z" fill="#9F616A"/>
<path d="M319.491 311.765L307.268 311.765V311.611C307.268 310.354 307.769 309.148 308.661 308.259C309.553 307.37 310.764 306.87 312.025 306.87L319.491 306.871L319.491 311.765Z" fill="#2F2E41"/>
<path d="M281.763 234.167C281.763 234.167 278.581 242.773 279.035 246.396C279.49 250.02 275.853 275.384 276.308 277.649C276.763 279.914 275.853 291.237 276.308 293.049C276.763 294.86 275.032 297.024 275.941 298.836C276.85 300.648 278.126 304.372 278.126 304.372L284.036 303.919L284.945 298.937C284.945 298.937 287.672 298.484 287.218 295.766C286.763 293.049 289.491 274.931 289.491 274.931L297.218 249.567L308.128 272.667C308.128 272.667 308.582 288.972 309.946 290.784C311.31 292.596 308.582 297.578 309.946 299.39C311.31 301.201 312.674 304.372 312.674 304.372H319.492V300.748C319.492 300.748 323.583 298.484 319.492 291.69L316.728 250.889L314 232.319L281.763 234.167Z" fill="#2F2E41"/>
<path d="M298.708 177.215C303.398 177.215 307.199 173.428 307.199 168.755C307.199 164.083 303.398 160.296 298.708 160.296C294.019 160.296 290.218 164.083 290.218 168.755C290.218 173.428 294.019 177.215 298.708 177.215Z" fill="#A0616A"/>
<path d="M291.483 168.172C292.082 169.697 292.682 171.222 293.281 172.747C294.017 174.622 294.861 176.628 296.587 177.675C298.719 178.967 301.565 178.337 303.627 176.937C305.482 175.678 306.905 173.884 307.707 171.796C308.508 169.708 308.649 167.425 308.11 165.254C307.571 163.084 306.379 161.13 304.693 159.654C303.007 158.179 300.909 157.252 298.679 157L298.594 158.532L296.708 156.956C296.568 157.195 296.376 157.399 296.146 157.553C295.916 157.707 295.655 157.807 295.38 157.845C295.106 157.884 294.826 157.86 294.563 157.776C294.299 157.691 294.058 157.549 293.857 157.358C294.353 158.381 293.781 159.629 292.955 160.413C291.941 161.376 289.04 162.533 289.16 164.255C289.24 165.403 291.016 166.981 291.483 168.172Z" fill="#2F2E41"/>
<path d="M322.079 246.681C322.372 246.246 322.565 245.753 322.646 245.235C322.726 244.718 322.692 244.189 322.545 243.686C322.398 243.183 322.142 242.719 321.796 242.325C321.449 241.931 321.02 241.618 320.539 241.407L320.708 233.224L315.742 231.908L315.666 243.468C315.364 244.297 315.378 245.208 315.705 246.027C316.032 246.846 316.65 247.517 317.44 247.913C318.231 248.309 319.14 248.403 319.995 248.176C320.85 247.948 321.591 247.417 322.079 246.681Z" fill="#9F616A"/>
<path d="M305.015 182.444C305.015 182.444 298.436 179.166 292.222 181.351C286.009 183.536 282.719 186.086 282.719 186.086L286.74 207.209L281.257 235.617C281.257 235.617 309.402 233.431 311.96 235.617C314.519 237.802 314.519 233.067 314.519 233.067L312.326 206.117L316.346 188.999L305.015 182.444Z" fill="#3F3D56"/>
<path d="M277.247 247.166C277.65 246.83 277.975 246.41 278.198 245.936C278.421 245.462 278.537 244.945 278.537 244.421C278.538 243.898 278.423 243.38 278.202 242.905C277.98 242.43 277.657 242.01 277.254 241.673L279.723 233.866L275.327 231.214L271.996 242.288C271.473 242.999 271.23 243.877 271.313 244.755C271.396 245.632 271.8 246.449 272.447 247.05C273.094 247.652 273.94 247.996 274.825 248.017C275.709 248.038 276.571 247.735 277.247 247.166Z" fill="#9F616A"/>
<path d="M285.278 186.086H282.719C282.719 186.086 278.698 188.635 278.698 192.277C278.698 195.919 272.85 238.53 272.85 238.53L279.064 239.623L284.547 209.759L288.567 201.746L285.278 186.086Z" fill="#3F3D56"/>
<path d="M309.402 188.999H316.346C316.346 188.999 318.539 191.184 319.636 196.283C320.733 201.382 321.829 221.413 321.829 221.413L321.098 239.623H315.615L314.884 215.95L311.229 200.654L309.402 188.999Z" fill="#3F3D56"/>
<path d="M361.869 312H244.058C243.976 312 243.897 311.968 243.839 311.91C243.781 311.852 243.749 311.774 243.749 311.692C243.749 311.61 243.781 311.532 243.839 311.474C243.897 311.416 243.976 311.384 244.058 311.384H361.869C361.951 311.384 362.03 311.416 362.088 311.474C362.145 311.532 362.178 311.61 362.178 311.692C362.178 311.774 362.145 311.852 362.088 311.91C362.03 311.968 361.951 312 361.869 312Z" fill="#CBCBCB"/>
</g>
<path d="M93.5386 213C97.1026 213 100.665 214.105 103.984 216.315C109.777 220.173 116.421 220.173 122.215 216.315C128.852 211.896 136.465 211.896 143.104 216.315C148.897 220.173 155.543 220.173 161.336 216.315C161.887 215.949 162.631 216.097 162.999 216.648C163.364 217.199 163.216 217.944 162.664 218.311C156.027 222.732 148.413 222.732 141.776 218.311C135.981 214.452 129.337 214.453 123.544 218.311C116.905 222.732 109.292 222.732 102.655 218.311C96.8612 214.453 90.2159 214.453 84.4226 218.311C77.7852 222.732 70.1719 222.731 63.5346 218.311C62.9826 217.944 62.8346 217.199 63.2012 216.648C63.5679 216.097 64.3132 215.951 64.8626 216.315C70.6559 220.172 77.2999 220.173 83.0946 216.315C86.4132 214.105 89.9759 213 93.5386 213Z" fill="#E2E2E2"/>
<path d="M93.5386 231.936C97.1026 231.936 100.665 233.042 103.984 235.251C109.777 239.11 116.421 239.11 122.215 235.251C128.852 230.831 136.465 230.831 143.104 235.251C148.897 239.11 155.543 239.11 161.336 235.251C161.887 234.886 162.631 235.034 162.999 235.584C163.364 236.135 163.216 236.88 162.664 237.247C156.027 241.668 148.413 241.668 141.776 237.247C135.981 233.388 129.337 233.39 123.544 237.247C116.905 241.668 109.292 241.668 102.655 237.247C96.8612 233.39 90.2159 233.39 84.4226 237.247C77.7852 241.668 70.1719 241.667 63.5346 237.247C62.9826 236.88 62.8346 236.135 63.2012 235.584C63.5679 235.034 64.3132 234.886 64.8626 235.251C70.6559 239.108 77.2999 239.11 83.0946 235.251C86.4132 233.042 89.9759 231.936 93.5386 231.936Z" fill="#E2E2E2"/>
<path d="M93.5386 250.872C97.1026 250.872 100.665 251.978 103.984 254.187C109.777 258.046 116.421 258.046 122.215 254.187C128.852 249.767 136.465 249.767 143.104 254.187C148.897 258.044 155.543 258.044 161.336 254.187C161.887 253.822 162.631 253.97 162.999 254.52C163.364 255.071 163.216 255.816 162.664 256.183C156.027 260.604 148.413 260.604 141.776 256.183C135.981 252.324 129.337 252.326 123.544 256.183C116.905 260.604 109.292 260.604 102.655 256.183C96.8612 252.326 90.2159 252.326 84.4226 256.183C77.7852 260.604 70.1719 260.603 63.5346 256.183C62.9826 255.816 62.8346 255.071 63.2012 254.52C63.5679 253.97 64.3132 253.822 64.8626 254.187C70.6559 258.044 77.2999 258.044 83.0946 254.187C86.4132 251.978 89.9759 250.872 93.5386 250.872Z" fill="#E2E2E2"/>
<path d="M93.5386 269.809C97.1026 269.809 100.665 270.914 103.984 273.123C109.777 276.982 116.421 276.982 122.215 273.123C128.852 268.703 136.465 268.703 143.104 273.123C148.897 276.981 155.543 276.981 161.336 273.123C161.887 272.758 162.631 272.906 162.999 273.457C163.364 274.007 163.216 274.753 162.664 275.119C156.027 279.539 148.413 279.539 141.776 275.119C135.981 271.261 129.337 271.262 123.544 275.119C116.905 279.539 109.292 279.539 102.655 275.119C96.8612 271.262 90.2159 271.262 84.4226 275.119C77.7852 279.539 70.1719 279.539 63.5346 275.119C62.9826 274.753 62.8346 274.007 63.2012 273.457C63.5679 272.906 64.3132 272.758 64.8626 273.123C70.6559 276.981 77.2999 276.981 83.0946 273.123C86.4132 270.914 89.9759 269.809 93.5386 269.809Z" fill="#E2E2E2"/>
<path d="M96.5 118L112 73H165.5" stroke="#E6E6E6" stroke-width="4" stroke-linecap="round"/>
<defs>
<clipPath id="clip0_8_782">
<rect width="274" height="201" fill="white" transform="translate(113 111)"/>
</clipPath>
</defs>
</svg>
