<svg width="500" height="350" viewBox="0 0 500 350" fill="none" xmlns="http://www.w3.org/2000/svg">
<rect width="500" height="350" fill="white"/>
<rect x="17" y="33" width="470" height="285" rx="8" fill="url(#paint0_linear_8_338)"/>
<g clip-path="url(#clip0_8_338)">
<path d="M310.03 269.565C309.874 269.742 309.717 269.924 309.566 270.106C307.45 272.561 305.538 275.185 303.849 277.952C303.713 278.164 303.582 278.381 303.461 278.593C299.464 285.278 296.743 292.647 295.436 300.325C295.143 302.062 294.923 303.809 294.775 305.567C294.669 306.92 294.605 308.275 294.583 309.631C294.502 315.327 295.007 321.664 291.336 326.016C290.354 327.161 289.157 328.102 287.811 328.783C286.797 329.308 285.726 329.713 284.619 329.99H273.171C272.596 329.904 272.02 329.813 271.444 329.722C271.429 329.722 271.414 329.717 271.399 329.717L271.283 329.758L270.591 329.99L270.561 330V329.99C270.561 329.97 270.56 329.949 270.555 329.929C270.556 329.892 270.555 329.855 270.55 329.818V329.813C270.545 329.712 270.54 329.616 270.54 329.515L270.525 329.248C270.525 329.248 270.52 329.243 270.525 329.243C270.52 329.091 270.51 328.94 270.505 328.783C269.975 315.605 271.267 301.987 277.489 290.383C279.622 286.408 282.37 282.794 285.629 279.674C285.648 279.654 285.669 279.636 285.69 279.618C292.159 273.448 300.522 269.414 309.349 269.55C309.576 269.55 309.803 269.555 310.03 269.565Z" fill="#F0F0F0"/>
<path d="M310.056 269.85C300.059 274.98 291.932 283.129 286.83 293.14C285.694 295.276 284.901 297.577 284.481 299.96C284.147 302.294 284.444 304.675 285.342 306.855C286.138 308.905 287.19 310.909 287.474 313.117C287.602 314.249 287.49 315.396 287.144 316.481C286.798 317.567 286.227 318.567 285.468 319.417C283.63 321.583 281.124 322.959 278.626 324.22C275.853 325.62 272.951 327.03 271.026 329.561C270.792 329.868 270.33 329.488 270.563 329.182C273.913 324.778 279.812 323.818 283.83 320.237C285.705 318.566 287.087 316.321 286.931 313.734C286.795 311.472 285.712 309.404 284.888 307.335C283.981 305.221 283.606 302.917 283.795 300.625C284.092 298.229 284.795 295.9 285.873 293.74C288.223 288.838 291.33 284.335 295.079 280.397C299.332 275.88 304.328 272.123 309.848 269.289C310.19 269.114 310.396 269.676 310.056 269.85Z" fill="white"/>
<path d="M288.283 289.82C286.72 288.736 285.592 287.132 285.102 285.294C284.613 283.456 284.792 281.503 285.609 279.785C285.776 279.438 286.323 279.68 286.156 280.028C285.392 281.626 285.225 283.445 285.685 285.156C286.145 286.867 287.201 288.357 288.663 289.358C288.98 289.576 288.599 290.037 288.283 289.82Z" fill="white"/>
<path d="M284.801 305.869C288.635 305.21 292.078 303.131 294.446 300.046C294.681 299.74 295.143 300.12 294.909 300.425C292.439 303.631 288.851 305.787 284.86 306.464C284.48 306.529 284.423 305.933 284.801 305.869Z" fill="white"/>
<path d="M299.646 276.608C300.164 277.154 300.809 277.562 301.523 277.797C302.238 278.031 302.999 278.085 303.74 277.952C304.119 277.883 304.175 278.479 303.798 278.548C302.98 278.69 302.139 278.63 301.349 278.373C300.559 278.115 299.844 277.668 299.267 277.071C299.208 277.019 299.171 276.947 299.163 276.869C299.155 276.79 299.177 276.712 299.225 276.65C299.276 276.589 299.348 276.55 299.427 276.542C299.506 276.535 299.585 276.558 299.646 276.608Z" fill="white"/>
<path d="M337.911 306.102C337.679 306.152 337.446 306.203 337.209 306.258H337.204C334.039 306.946 330.935 307.888 327.922 309.076C327.69 309.167 327.458 309.258 327.225 309.354H327.22C320.038 312.277 313.457 316.502 307.809 321.815C307.788 321.835 307.768 321.851 307.748 321.871C307.736 321.885 307.722 321.899 307.708 321.911L307.682 321.936C305.441 324.059 303.363 326.348 301.466 328.783C301.466 328.788 301.461 328.793 301.456 328.798C301.153 329.192 300.845 329.586 300.542 329.99H270.591L270.561 330V329.99H270.434C270.434 329.985 270.439 329.98 270.444 329.975C270.444 329.97 270.449 329.97 270.449 329.965C270.485 329.914 270.52 329.864 270.55 329.818V329.813C270.558 329.798 270.568 329.784 270.581 329.773C270.611 329.722 270.646 329.682 270.672 329.636C270.874 329.354 271.071 329.066 271.273 328.783C271.601 328.314 271.934 327.844 272.272 327.379L272.273 327.377L272.274 327.376L272.276 327.375L272.277 327.374V327.369C272.283 327.364 272.283 327.359 272.288 327.354L272.298 327.344C276.464 321.578 281.15 316.104 286.518 311.52C286.68 311.378 286.841 311.237 287.013 311.106C289.444 309.049 292.04 307.197 294.775 305.567C296.27 304.683 297.81 303.872 299.395 303.133C303.485 301.248 307.846 300.018 312.318 299.487H312.328C312.338 299.487 312.348 299.482 312.364 299.482C312.379 299.482 312.389 299.477 312.399 299.477C321.292 298.447 330.407 300.26 337.381 305.683C337.562 305.824 337.734 305.96 337.911 306.102Z" fill="#F0F0F0"/>
<path d="M270.434 329.99H270.561V330L270.591 329.99H278.605C276.216 329.581 273.833 329.263 271.444 329.722C271.389 329.732 271.338 329.742 271.283 329.758C271.04 329.803 270.798 329.864 270.555 329.929C270.54 329.934 270.52 329.939 270.505 329.944C270.483 329.95 270.462 329.961 270.444 329.975C270.432 329.977 270.419 329.982 270.409 329.99H270.434Z" fill="white"/>
<path d="M337.764 306.349C337.578 306.319 337.396 306.284 337.209 306.258H337.204C333.308 305.623 329.353 305.423 325.412 305.663C325.216 305.673 325.014 305.688 324.812 305.698C319.342 306.079 313.964 307.304 308.869 309.328C308.864 309.328 308.864 309.328 308.864 309.333C308.808 309.354 308.753 309.374 308.702 309.394C307.516 309.874 306.344 310.399 305.198 310.964C303.004 311.985 300.985 313.345 299.214 314.994C297.796 316.393 296.722 318.102 296.078 319.987C296.012 320.179 295.946 320.366 295.886 320.558C295.84 320.709 295.795 320.866 295.749 321.017C295.154 323.133 294.785 325.365 293.684 327.299C293.377 327.838 293.004 328.337 292.573 328.783C292.128 329.247 291.625 329.652 291.078 329.99H289.806C290.502 329.689 291.148 329.282 291.72 328.783C292.164 328.4 292.553 327.956 292.876 327.465C294.128 325.577 294.512 323.274 295.098 321.128C295.194 320.78 295.295 320.442 295.406 320.103C295.989 318.252 296.966 316.548 298.269 315.11C299.949 313.376 301.911 311.94 304.072 310.863C305.435 310.146 306.836 309.497 308.273 308.914C308.46 308.833 308.647 308.763 308.834 308.692C317.91 305.16 327.767 304.121 337.381 305.683C337.568 305.708 337.749 305.743 337.936 305.774C338.315 305.839 338.143 306.415 337.764 306.349Z" fill="white"/>
<path d="M308.357 309.186C307.761 307.379 307.827 305.419 308.543 303.657C309.258 301.894 310.577 300.443 312.264 299.563C312.606 299.386 312.897 299.909 312.555 300.087C310.982 300.903 309.754 302.255 309.091 303.897C308.427 305.54 308.373 307.366 308.938 309.045C309.061 309.41 308.478 309.549 308.357 309.186Z" fill="white"/>
<path d="M295.913 319.904C299.37 321.685 303.372 322.098 307.12 321.06C307.492 320.957 307.632 321.539 307.261 321.642C303.359 322.714 299.195 322.276 295.602 320.414C295.259 320.237 295.573 319.727 295.913 319.904Z" fill="white"/>
<path d="M325.385 305.477C325.47 306.224 325.739 306.939 326.168 307.556C326.597 308.173 327.173 308.674 327.844 309.014C328.188 309.188 327.875 309.697 327.532 309.525C326.793 309.146 326.158 308.592 325.682 307.911C325.206 307.23 324.905 306.443 324.803 305.618C324.787 305.541 324.801 305.461 324.842 305.394C324.883 305.327 324.948 305.278 325.024 305.257C325.101 305.239 325.182 305.251 325.25 305.293C325.317 305.334 325.366 305.4 325.385 305.477Z" fill="white"/>
<path d="M308.117 104.964C308.253 88.2461 308.933 71.3664 310.157 54.3252C310.177 53.9869 310.202 53.6536 310.228 53.3153C310.874 44.4437 311.665 35.5402 312.601 26.6047V26.5542C312.6 25.0814 312.015 23.6692 310.973 22.6278C309.932 21.5863 308.519 21.0009 307.046 21H158.074C156.606 21.0029 155.199 21.5855 154.159 22.6211C153.118 23.6566 152.529 25.0612 152.52 26.5289C151.227 38.834 150.213 51.0785 149.48 63.2624C149.449 63.6613 149.429 64.0551 149.409 64.454C149.045 70.4778 148.756 76.4864 148.54 82.4799C148.525 82.8333 148.51 83.1868 148.505 83.5402C147.126 120.314 148.468 157.139 152.52 193.715C152.53 195.182 153.12 196.586 154.16 197.62C155.2 198.655 156.607 199.237 158.074 199.239H307.046C308.519 199.238 309.932 198.653 310.973 197.611C312.015 196.57 312.6 195.158 312.601 193.685V193.629C311.869 187.131 311.226 180.591 310.672 174.008C310.591 173.044 310.512 172.079 310.435 171.115C310.051 166.373 309.716 161.614 309.43 156.835C309.369 155.871 309.314 154.907 309.263 153.942C308.723 144.379 308.369 134.741 308.203 125.03C308.182 124.066 308.167 123.106 308.152 122.137C308.092 117.396 308.073 112.636 308.097 107.857C308.097 106.893 308.102 105.929 308.117 104.964Z" fill="#F0F0F0"/>
<path d="M353 58.8695C352.999 57.3967 352.414 55.9845 351.372 54.9431C350.33 53.9016 348.918 53.3162 347.445 53.3153H198.473C197.005 53.3182 195.598 53.9008 194.558 54.9364C193.517 55.9719 192.928 57.3765 192.918 58.8443C187.889 106.797 187.056 153.902 190.424 199.239C190.833 204.849 191.311 210.43 191.858 215.982C192.151 218.957 192.462 221.922 192.792 224.879C192.833 225.263 192.873 225.647 192.918 226.031C192.929 227.498 193.519 228.901 194.559 229.935C195.599 230.97 197.006 231.552 198.473 231.554H347.445C348.918 231.554 350.33 230.968 351.372 229.927C352.414 228.885 352.999 227.473 353 226V225.945C346.975 172.539 346.975 116.345 353 58.92V58.8695Z" fill="white"/>
<path d="M353 58.8695C352.999 57.3967 352.414 55.9845 351.372 54.9431C350.33 53.9016 348.918 53.3162 347.445 53.3153H198.473C197.005 53.3182 195.598 53.9008 194.558 54.9364C193.517 55.9719 192.928 57.3765 192.918 58.8443C187.889 106.797 187.056 153.902 190.424 199.239C190.833 204.849 191.311 210.43 191.858 215.982C192.151 218.957 192.462 221.922 192.792 224.879C192.833 225.263 192.873 225.647 192.918 226.031C192.929 227.498 193.519 228.901 194.559 229.935C195.599 230.97 197.006 231.552 198.473 231.554H347.445C348.918 231.554 350.33 230.968 351.372 229.927C352.414 228.885 352.999 227.473 353 226V225.945C346.975 172.539 346.975 116.345 353 58.92V58.8695ZM351.99 226.031C351.981 227.23 351.498 228.378 350.647 229.223C349.796 230.069 348.645 230.544 347.445 230.545H198.473C197.269 230.543 196.114 230.063 195.262 229.212C194.41 228.36 193.93 227.205 193.928 226V225.945C193.893 225.622 193.858 225.293 193.822 224.97C193.474 221.88 193.149 218.781 192.848 215.674C192.318 210.226 191.848 204.748 191.439 199.239C188.071 153.927 188.899 106.853 193.928 58.92V58.8695C193.93 57.6648 194.41 56.51 195.262 55.6582C196.114 54.8063 197.269 54.327 198.473 54.3252H347.445C348.646 54.3256 349.798 54.801 350.65 55.6477C351.501 56.4944 351.983 57.6435 351.99 58.8443C345.966 116.315 345.966 172.569 351.99 226.031Z" fill="#E4E4E4"/>
<path d="M208.742 104.964C208.359 104.965 207.991 105.118 207.721 105.39C207.45 105.661 207.298 106.028 207.298 106.412C207.298 106.795 207.45 107.162 207.721 107.434C207.991 107.705 208.359 107.858 208.742 107.859H329.803C330.187 107.858 330.554 107.705 330.825 107.434C331.095 107.162 331.247 106.795 331.247 106.412C331.247 106.028 331.095 105.661 330.825 105.39C330.554 105.118 330.187 104.965 329.803 104.964H208.742Z" fill="#E6E6E6"/>
<path d="M208.742 113.649C208.358 113.65 207.991 113.803 207.72 114.074C207.449 114.345 207.297 114.713 207.297 115.096C207.297 115.48 207.449 115.847 207.72 116.119C207.991 116.39 208.358 116.543 208.742 116.544H290.926C291.31 116.543 291.677 116.39 291.948 116.119C292.219 115.847 292.371 115.48 292.371 115.096C292.371 114.713 292.219 114.345 291.948 114.074C291.677 113.803 291.31 113.65 290.926 113.649H208.742Z" fill="#E6E6E6"/>
<path d="M208.742 122.137C208.358 122.138 207.991 122.291 207.72 122.562C207.449 122.833 207.297 123.201 207.297 123.584C207.297 123.968 207.449 124.335 207.72 124.607C207.991 124.878 208.358 125.031 208.742 125.032H329.803C330.187 125.031 330.554 124.878 330.825 124.607C331.096 124.335 331.248 123.968 331.248 123.584C331.248 123.201 331.096 122.833 330.825 122.562C330.554 122.291 330.187 122.138 329.803 122.137H208.742Z" fill="#E6E6E6"/>
<path d="M208.742 130.822C208.359 130.823 207.991 130.976 207.721 131.247C207.45 131.518 207.298 131.886 207.298 132.269C207.298 132.652 207.45 133.02 207.721 133.291C207.991 133.562 208.359 133.715 208.742 133.716H290.926C291.309 133.715 291.677 133.562 291.947 133.291C292.218 133.02 292.37 132.652 292.37 132.269C292.37 131.886 292.218 131.518 291.947 131.247C291.677 130.976 291.309 130.823 290.926 130.822H208.742Z" fill="#E6E6E6"/>
<path d="M208.742 153.942C208.359 153.943 207.991 154.096 207.721 154.368C207.45 154.639 207.298 155.006 207.298 155.39C207.298 155.773 207.45 156.14 207.721 156.412C207.991 156.683 208.359 156.836 208.742 156.837H329.803C330.187 156.836 330.554 156.683 330.825 156.412C331.095 156.14 331.247 155.773 331.247 155.39C331.247 155.006 331.095 154.639 330.825 154.368C330.554 154.096 330.187 153.943 329.803 153.942H208.742Z" fill="#E6E6E6"/>
<path d="M208.742 162.627C208.358 162.628 207.991 162.78 207.72 163.052C207.449 163.323 207.297 163.691 207.297 164.074C207.297 164.458 207.449 164.825 207.72 165.097C207.991 165.368 208.358 165.521 208.742 165.522H290.926C291.31 165.521 291.677 165.368 291.948 165.097C292.219 164.825 292.371 164.458 292.371 164.074C292.371 163.691 292.219 163.323 291.948 163.052C291.677 162.78 291.31 162.628 290.926 162.627H208.742Z" fill="#E6E6E6"/>
<path d="M208.742 171.115C208.358 171.116 207.991 171.268 207.72 171.54C207.449 171.811 207.297 172.179 207.297 172.562C207.297 172.946 207.449 173.313 207.72 173.585C207.991 173.856 208.358 174.009 208.742 174.01H329.803C330.187 174.009 330.554 173.856 330.825 173.585C331.096 173.313 331.248 172.946 331.248 172.562C331.248 172.179 331.096 171.811 330.825 171.54C330.554 171.268 330.187 171.116 329.803 171.115H208.742Z" fill="#E6E6E6"/>
<path d="M208.742 179.8C208.359 179.801 207.991 179.953 207.721 180.225C207.45 180.496 207.298 180.864 207.298 181.247C207.298 181.63 207.45 181.998 207.721 182.269C207.991 182.54 208.359 182.693 208.742 182.694H290.926C291.309 182.693 291.677 182.54 291.947 182.269C292.218 181.998 292.37 181.63 292.37 181.247C292.37 180.864 292.218 180.496 291.947 180.225C291.677 179.953 291.309 179.801 290.926 179.8H208.742Z" fill="#E6E6E6"/>
<path d="M232.695 86.9939H209.573C209.273 86.9935 208.986 86.8745 208.775 86.6627C208.563 86.451 208.444 86.1639 208.443 85.8644V82.1602C208.444 81.8608 208.563 81.5737 208.775 81.3619C208.986 81.1502 209.273 81.0311 209.573 81.0308H232.695C232.995 81.0311 233.282 81.1502 233.494 81.3619C233.706 81.5737 233.825 81.8608 233.825 82.1602V85.8644C233.825 86.1639 233.706 86.451 233.494 86.6627C233.282 86.8745 232.995 86.9935 232.695 86.9939Z" fill="#861B7B"/>
<path d="M313.023 206.145L305.94 208.485C304.76 208.875 303.58 209.265 302.399 209.655C301.306 210.015 300.123 210.443 298.953 210.288C298.144 210.181 297.222 209.716 296.97 208.884C296.731 208.097 297.237 207.273 297.849 206.807C299.539 205.522 301.676 206.83 302.874 208.161C304.339 209.79 305.168 211.892 306.541 213.597C307.764 215.125 309.315 216.36 311.079 217.21C314.584 218.865 318.859 218.689 321.986 216.277C325.719 213.398 326.1 208.407 326.12 204.053C326.113 203.857 326.03 203.671 325.889 203.534C325.747 203.398 325.559 203.321 325.362 203.321C325.166 203.321 324.977 203.398 324.836 203.534C324.694 203.671 324.611 203.857 324.605 204.053C324.587 207.999 324.362 212.837 320.764 215.306C317.317 217.671 312.786 217.044 309.613 214.523C307.844 213.119 306.756 211.288 305.595 209.391C304.462 207.54 303.054 205.746 300.921 205.026C300.007 204.694 299.005 204.687 298.086 205.008C297.168 205.329 296.388 205.957 295.879 206.787C295.646 207.178 295.5 207.614 295.449 208.067C295.398 208.519 295.445 208.977 295.585 209.41C295.725 209.843 295.956 210.242 296.262 210.579C296.568 210.915 296.943 211.183 297.36 211.364C299.834 212.543 302.663 211.162 305.045 210.375L313.426 207.605C314.347 207.301 313.952 205.838 313.023 206.145Z" fill="#861B7B"/>
<path d="M292.035 317.481L287.068 319.117L278.394 300.742L285.724 298.328L292.035 317.481Z" fill="#9F616A"/>
<path d="M295.578 321.654L295.239 320.629L294.351 317.927L293.745 316.089L292.088 316.635L291.745 316.609L287.195 316.301L286.589 316.261L285.69 316.2L284.761 316.135L282.165 319.907H282.16C281.19 320.223 280.292 320.728 279.519 321.394C278.746 322.059 278.112 322.872 277.656 323.784C277.6 323.896 277.55 324.007 277.499 324.118C277.374 324.389 277.268 324.669 277.181 324.956C276.788 326.193 276.715 327.51 276.969 328.783C277.034 329.099 277.117 329.411 277.216 329.717L277.231 329.768L277.292 329.955L277.656 329.833L280.847 328.783L292.028 325.102L294.245 324.37L294.926 324.143H294.931L296.254 323.709L295.578 321.654Z" fill="#2F2E41"/>
<path d="M244.96 321.801L239.731 321.8L237.244 301.634L244.961 301.635L244.96 321.801Z" fill="#9F616A"/>
<path d="M236.592 233.399L234.274 237.408C234.274 237.408 231.727 238.103 232.56 246.405C233.147 252.267 233.338 278.513 234.818 295.564C235.434 302.661 236.273 308.164 237.457 309.943L238.186 310.596L245.795 311.323L245.986 311.256L248.78 291.525C249.282 287.983 249.207 284.383 248.558 280.866L248.053 275.311L255.059 247.188C255.059 247.188 262.193 265.213 266.738 282.38C267.832 286.513 271.987 289.141 273.563 292.687C274.091 293.875 274.61 295.027 275.116 296.131C278.448 303.405 280.118 308.701 281.382 309.141H282.392L288.452 307.122L289.644 304.125L280.372 276.826L273.429 232.749C260.2 225.636 247.79 224.845 236.592 233.399Z" fill="#2F2E41"/>
<path d="M274.489 174.008C274.032 173.002 273.495 172.034 272.883 171.115C271.484 168.934 269.54 167.157 267.243 165.959L265.253 165.52L261.688 164.732L259.809 162.627L256.729 159.178H246.124L244.705 162.627L243.513 165.52L243.003 166.752L233.924 171.291C233.919 171.291 233.919 171.291 233.913 171.296C234.035 172.205 234.154 173.109 234.272 174.008C234.53 175.962 234.772 177.892 234.999 179.799C235.115 180.769 235.226 181.733 235.332 182.693C235.671 185.702 235.962 188.659 236.206 191.564C236.423 194.16 236.597 196.718 236.726 199.239C237.042 204.965 237.066 210.703 236.797 216.432C236.726 217.78 238.064 219.315 237.958 220.633C237.782 222.784 236.12 224.692 235.827 226.748C235.646 228.01 235.726 229.353 235.408 230.545C235.32 230.893 235.187 231.229 235.014 231.544C235.014 231.549 235.009 231.549 235.009 231.554C231.373 238.048 234.227 234.948 233.888 236.407L234.05 236.447C234.126 236.467 234.358 236.528 234.732 236.614C236.868 237.124 245.675 228.858 251.588 228.858C255.138 228.858 264.536 234.695 267.682 235.119C270.172 235.452 272.394 235.755 273.717 234.589C274.101 234.249 274.394 233.819 274.57 233.337L274.585 233.291L274.58 233.246L274.454 231.554L274.378 230.545L273.298 216.053C272.694 215.305 272.313 214.402 272.197 213.448C272.081 212.494 272.235 211.527 272.641 210.656L272.863 210.186L272.045 199.239L271.894 197.194L271.838 196.502V196.497L271.444 191.211L272.394 188.323V188.318L274.242 182.693L275.191 179.799L275.787 177.982L275.828 177.861C275.51 176.535 275.061 175.245 274.489 174.008Z" fill="#861B7B"/>
<path d="M283.702 226.222L273.522 199.915L268.793 190.308L277.886 185.286L285.208 198.187L290.117 225.14C290.89 225.668 291.487 226.414 291.832 227.283C292.178 228.153 292.255 229.106 292.055 230.019C291.854 230.933 291.385 231.766 290.707 232.411C290.03 233.056 289.175 233.484 288.252 233.64C287.33 233.795 286.382 233.672 285.53 233.284C284.679 232.897 283.962 232.264 283.473 231.467C282.984 230.669 282.744 229.744 282.785 228.809C282.826 227.875 283.145 226.974 283.702 226.222Z" fill="#9F616A"/>
<path d="M283.907 189.979L281.302 188.292L278.307 182.693L276.762 179.8L275.787 177.982L275.373 177.204L270.692 174.008L267.531 171.847L264.955 174.008L263.728 175.038L264.93 179.8L265.657 182.693L267.243 188.969L271.894 197.194L273.05 199.239L273.712 200.416L273.717 200.426L273.808 200.582L285.559 200.093L285.927 200.077L285.948 199.239L285.958 198.936C285.963 198.785 285.963 198.633 285.963 198.482C285.961 195.525 285.257 192.61 283.907 189.979Z" fill="#861B7B"/>
<path d="M194.966 215.76L215.792 196.732L223.03 188.841L231.009 195.492L221.642 206.994L198.302 221.345C198.09 222.256 197.611 223.083 196.926 223.721C196.241 224.358 195.381 224.775 194.457 224.92C193.532 225.065 192.586 224.93 191.739 224.532C190.892 224.135 190.183 223.494 189.703 222.69C189.224 221.887 188.995 220.959 189.047 220.025C189.099 219.091 189.429 218.194 189.995 217.449C190.561 216.704 191.336 216.145 192.222 215.844C193.108 215.543 194.064 215.514 194.966 215.76Z" fill="#9F616A"/>
<path d="M237.958 182.693L237.918 179.799L237.842 174.008L237.812 171.761L237.726 171.7C237.256 171.392 236.723 171.192 236.166 171.115C235.676 171.034 235.176 171.034 234.686 171.115C234.428 171.155 234.173 171.214 233.924 171.291C233.919 171.291 233.918 171.291 233.913 171.296C232.417 171.834 231.095 172.77 230.091 174.003L230.086 174.008C228.571 175.809 227.229 177.748 226.076 179.799C225.505 180.769 224.96 181.748 224.45 182.693C222.521 186.283 221.132 189.393 221.107 189.449L215.34 196.937L215.421 197.073L216.688 199.239L221.334 207.182L222.071 208.444L223.955 207.439C226.151 206.268 227.882 204.384 228.864 202.097L229.535 199.532L229.783 199.239L236.206 191.564L238.044 189.363L237.958 182.693Z" fill="#861B7B"/>
<path d="M259.968 149.297C260.828 143.998 257.229 139.005 251.93 138.145C246.63 137.285 241.637 140.884 240.777 146.183C239.917 151.482 243.516 156.475 248.815 157.335C254.115 158.195 259.108 154.596 259.968 149.297Z" fill="#9F616A"/>
<path d="M240.975 141.368C240.543 139.856 239.679 138.56 240.111 138.56C240.543 138.56 240.759 137.48 240.759 137.48C240.759 137.48 241.191 137.264 241.407 137.48C241.623 137.696 241.839 135.968 241.839 135.968C241.839 135.968 242.055 135.32 242.271 135.752C242.487 136.184 242.487 135.968 242.703 135.32C242.919 134.672 244 134.24 244 134.24C244 134.24 248.104 134.456 248.752 133.592C249.4 132.728 256.745 133.376 258.258 134.456C259.77 135.536 265.728 137.466 262.193 143.526C264.213 147.06 261.197 153.364 260.418 154.112C259.186 155.295 258.333 155.721 252.503 156.881C251.362 157.108 248.558 147.565 248.558 147.565C248.558 147.565 241.407 142.88 240.975 141.368Z" fill="#2F2E41"/>
<path d="M245.276 321.012L244.963 320.886L239.337 318.594L238.474 318.245L234.827 321.012H234.822C232.762 321.015 230.788 321.834 229.331 323.291C227.875 324.748 227.057 326.723 227.056 328.783V329.036H247.018V321.012H245.276Z" fill="#2F2E41"/>
<path d="M303.95 329.384C303.951 329.463 303.935 329.542 303.905 329.615C303.875 329.688 303.831 329.755 303.775 329.811C303.72 329.868 303.653 329.912 303.58 329.943C303.507 329.974 303.429 329.99 303.349 329.99H200.685C200.525 329.99 200.372 329.926 200.258 329.813C200.145 329.7 200.082 329.547 200.082 329.387C200.082 329.227 200.145 329.073 200.258 328.96C200.372 328.847 200.525 328.783 200.685 328.783H303.349C303.509 328.784 303.661 328.847 303.774 328.96C303.887 329.072 303.95 329.225 303.95 329.384Z" fill="#CCCCCC"/>
<path d="M197.958 21C197.164 35.1213 191.972 48.6406 183.111 59.6649C174.249 70.6892 162.162 78.6665 148.54 82.4799C148.525 82.8333 148.51 83.1868 148.505 83.5402C162.408 79.7158 174.759 71.6214 183.814 60.3998C192.869 49.1782 198.17 35.3963 198.968 21H197.958Z" fill="white"/>
<path d="M182.49 21C180.144 29.9154 176.007 38.2599 170.332 45.5255C164.656 52.7912 157.562 58.8259 149.479 63.2624C149.449 63.6613 149.429 64.0551 149.409 64.454C157.785 59.9534 165.14 53.7702 171.013 46.2924C176.886 38.8145 181.149 30.2036 183.536 21H182.49Z" fill="white"/>
</g>
<path d="M413.106 100.087C412.953 99.9634 412.799 99.843 412.643 99.725L386.725 125.643C386.843 125.799 386.963 125.954 387.087 126.106L413.106 100.087Z" fill="#861B7B"/>
<path d="M406.775 96.7591C406.56 96.6956 406.344 96.6371 406.127 96.5814L383.581 119.127C383.637 119.344 383.695 119.56 383.759 119.775L406.775 96.7591Z" fill="#861B7B"/>
<path d="M411.222 98.7511C411.051 98.6453 410.879 98.5429 410.705 98.4433L385.443 123.705C385.543 123.879 385.645 124.051 385.751 124.222L411.222 98.7511Z" fill="#861B7B"/>
<path d="M409.121 97.6331C408.93 97.5469 408.738 97.4635 408.544 97.3842L384.384 121.544C384.463 121.738 384.547 121.93 384.633 122.121L409.121 97.6331Z" fill="#861B7B"/>
<path d="M404.132 96.1824C403.887 96.1475 403.642 96.1183 403.396 96.0931L383.093 116.396C383.118 116.642 383.147 116.887 383.182 117.132L404.132 96.1824Z" fill="#861B7B"/>
<path d="M414.585 101.415C414.516 101.346 414.446 101.279 414.376 101.211L388.211 127.376C388.279 127.446 388.346 127.516 388.415 127.585C388.484 127.654 388.554 127.721 388.624 127.789L414.789 101.624C414.721 101.554 414.654 101.484 414.585 101.415Z" fill="#861B7B"/>
<path d="M401.095 96C400.807 96.0065 400.518 96.0193 400.23 96.0392L383.039 113.23C383.019 113.518 383.006 113.807 383 114.095L401.095 96Z" fill="#861B7B"/>
<path d="M383.447 110.428L397.428 96.4472C397.055 96.5309 396.685 96.6261 396.316 96.7332L383.733 109.317C383.626 109.684 383.531 110.055 383.447 110.428Z" fill="#861B7B"/>
<path d="M419.961 115.77C419.98 115.482 419.994 115.193 420 114.905L401.905 133C402.193 132.994 402.482 132.981 402.77 132.961L419.961 115.77Z" fill="#861B7B"/>
<path d="M419.907 112.604C419.882 112.358 419.853 112.113 419.818 111.868L398.868 132.818C399.113 132.853 399.358 132.882 399.604 132.907L419.907 112.604Z" fill="#861B7B"/>
<path d="M392.101 98.5547C390.785 99.3314 389.545 100.285 388.415 101.415C387.285 102.545 386.331 103.786 385.554 105.101L392.101 98.5547Z" fill="#861B7B"/>
<path d="M419.267 119.683C419.374 119.315 419.469 118.945 419.553 118.572L405.572 132.552C405.945 132.469 406.315 132.374 406.683 132.267L419.267 119.683Z" fill="#861B7B"/>
<path d="M410.899 130.445C412.215 129.669 413.455 128.715 414.585 127.585C415.715 126.455 416.669 125.214 417.445 123.899L410.899 130.445Z" fill="#861B7B"/>
<path d="M417.557 105.295C417.457 105.121 417.355 104.949 417.249 104.778L391.778 130.249C391.949 130.355 392.121 130.457 392.295 130.557L417.557 105.295Z" fill="#861B7B"/>
<path d="M416.275 103.357C416.157 103.201 416.037 103.046 415.913 102.894L389.894 128.913C390.046 129.037 390.201 129.157 390.357 129.275L416.275 103.357Z" fill="#861B7B"/>
<path d="M419.419 109.873C419.363 109.656 419.304 109.44 419.241 109.225L396.225 132.241C396.44 132.304 396.656 132.363 396.873 132.419L419.419 109.873Z" fill="#861B7B"/>
<path d="M418.616 107.456C418.536 107.263 418.453 107.07 418.367 106.879L393.879 131.367C394.07 131.453 394.262 131.537 394.456 131.616L418.616 107.456Z" fill="#861B7B"/>
<path d="M405.43 241.081C405.239 240.927 405.047 240.778 404.853 240.631L372.631 272.853C372.778 273.047 372.927 273.239 373.081 273.429L405.43 241.081Z" fill="#861B7B"/>
<path d="M397.558 236.944C397.291 236.865 397.022 236.792 396.753 236.723L368.723 264.753C368.792 265.022 368.865 265.291 368.944 265.558L397.558 236.944Z" fill="#861B7B"/>
<path d="M403.087 239.42C402.874 239.289 402.66 239.161 402.444 239.038L371.037 270.444C371.161 270.66 371.288 270.875 371.42 271.087L403.087 239.42Z" fill="#861B7B"/>
<path d="M400.474 238.03C400.237 237.923 399.998 237.82 399.757 237.721L369.72 267.758C369.819 267.998 369.923 268.237 370.03 268.474L400.474 238.03Z" fill="#861B7B"/>
<path d="M394.272 236.227C393.968 236.183 393.663 236.147 393.357 236.116L368.116 261.357C368.147 261.663 368.183 261.968 368.227 262.272L394.272 236.227Z" fill="#861B7B"/>
<path d="M407.268 242.732C407.182 242.646 407.095 242.563 407.008 242.479L374.479 275.008C374.563 275.095 374.646 275.182 374.732 275.268C374.818 275.354 374.905 275.437 374.992 275.521L407.521 242.992C407.437 242.905 407.353 242.818 407.268 242.732Z" fill="#861B7B"/>
<path d="M390.497 236C390.138 236.008 389.779 236.024 389.421 236.049L368.048 257.421C368.024 257.78 368.008 258.138 368 258.496L390.497 236Z" fill="#861B7B"/>
<path d="M368.556 253.938L385.937 236.556C385.474 236.66 385.013 236.778 384.556 236.912L368.911 252.556C368.778 253.013 368.66 253.474 368.556 253.938Z" fill="#861B7B"/>
<path d="M413.951 260.579C413.976 260.22 413.992 259.862 414 259.504L391.504 282C391.862 281.993 392.22 281.976 392.579 281.951L413.951 260.579Z" fill="#861B7B"/>
<path d="M413.884 256.643C413.853 256.337 413.817 256.032 413.773 255.728L387.728 281.773C388.032 281.817 388.337 281.853 388.643 281.884L413.884 256.643Z" fill="#861B7B"/>
<path d="M379.315 239.176C377.679 240.142 376.137 241.327 374.732 242.732C373.327 244.137 372.141 245.679 371.176 247.315L379.315 239.176Z" fill="#861B7B"/>
<path d="M413.088 265.444C413.221 264.987 413.34 264.526 413.444 264.062L396.062 281.444C396.526 281.34 396.986 281.221 397.444 281.088L413.088 265.444Z" fill="#861B7B"/>
<path d="M402.685 278.824C404.321 277.859 405.863 276.673 407.268 275.268C408.673 273.863 409.858 272.321 410.824 270.685L402.685 278.824Z" fill="#861B7B"/>
<path d="M410.962 247.556C410.839 247.34 410.711 247.126 410.58 246.913L378.913 278.58C379.125 278.711 379.34 278.838 379.556 278.963L410.962 247.556Z" fill="#861B7B"/>
<path d="M409.369 245.147C409.222 244.953 409.073 244.76 408.919 244.57L376.57 276.919C376.76 277.072 376.953 277.222 377.147 277.369L409.369 245.147Z" fill="#861B7B"/>
<path d="M413.277 253.247C413.208 252.978 413.135 252.709 413.056 252.442L384.442 281.056C384.709 281.135 384.978 281.208 385.247 281.277L413.277 253.247Z" fill="#861B7B"/>
<path d="M412.279 250.243C412.18 250.002 412.077 249.763 411.97 249.526L381.526 279.97C381.763 280.077 382.002 280.181 382.242 280.279L412.279 250.243Z" fill="#861B7B"/>
<path d="M37 71.4819L70.0133 97.431V95.9491L37 70V71.4819Z" fill="#E5E5E5"/>
<path d="M37 84.9109L70.0133 110.86V109.378L37 83.429V84.9109Z" fill="#E5E5E5"/>
<path d="M37 98.3396L70.0133 124.289V122.807L37 96.8577V98.3396Z" fill="#E5E5E5"/>
<path d="M37 111.767L70.0133 137.717V136.235L37 110.286V111.767Z" fill="#E5E5E5"/>
<path d="M37 125.196L70.0133 151.146V149.664L37 123.714V125.196Z" fill="#E5E5E5"/>
<path d="M37 138.624L70.0133 164.573V163.091L37 137.142V138.624Z" fill="#E5E5E5"/>
<path d="M37 152.053L70.0133 178.002V176.52L37 150.571V152.053Z" fill="#E5E5E5"/>
<path d="M37 165.481L70.0133 191.43V189.948L37 163.999V165.481Z" fill="#E5E5E5"/>
<path d="M37 178.91L70.0133 204.859V203.377L37 177.428V178.91Z" fill="#E5E5E5"/>
<path d="M37 192.337L70.0133 218.287V216.805L37 190.856V192.337Z" fill="#E5E5E5"/>
<path d="M37 205.766L70.0133 231.715V230.234L37 204.284V205.766Z" fill="#E5E5E5"/>
<path d="M37 219.194L70.0133 245.143V243.661L37 217.712V219.194Z" fill="#E5E5E5"/>
<path d="M37 232.623L70.0133 258.572V257.09L37 231.141V232.623Z" fill="#E5E5E5"/>
<path d="M37 246.051L70.0133 272V270.518L37 244.569V246.051Z" fill="#E5E5E5"/>
<defs>
<linearGradient id="paint0_linear_8_338" x1="17" y1="184" x2="433" y2="175" gradientUnits="userSpaceOnUse">
<stop stop-color="#CFA4CA"/>
<stop offset="1" stop-color="#CFA4CA" stop-opacity="0"/>
</linearGradient>
<clipPath id="clip0_8_338">
<rect width="205" height="309" fill="white" transform="translate(148 21)"/>
</clipPath>
</defs>
</svg>
