<svg width="277" height="233" viewBox="0 0 277 233" fill="none" xmlns="http://www.w3.org/2000/svg">
<path d="M232.547 116.273C232.547 180.488 180.489 232.545 116.273 232.545C52.0573 232.545 0 180.488 0 116.273C0 52.0573 52.0573 -2.68293e-05 116.273 -2.68293e-05C180.489 -2.68293e-05 232.547 52.0573 232.547 116.273Z" fill="#CFA4CA"/>
<path d="M185.047 87.3667L194 81.6827L185.047 76V87.3667Z" fill="white"/>
<path d="M151 87.3667L159.953 81.6827L151 76V87.3667Z" fill="white"/>
<path d="M268 87.3667L276.953 81.6827L268 76V87.3667Z" fill="white"/>
<path d="M238 87.3667L246.955 81.6827L238 76V87.3667Z" fill="white"/>
<path d="M204 87.3667L212.955 81.6827L204 76V87.3667Z" fill="white"/>
</svg>
