<svg width="158" height="293" viewBox="0 0 158 293" fill="none" xmlns="http://www.w3.org/2000/svg">
<path d="M79.424 158.848C66.508 158.848 56 148.34 56 135.424C56 122.508 66.508 112 79.424 112C92.34 112 102.848 122.508 102.848 135.424C102.848 148.34 92.34 158.848 79.424 158.848Z" fill="#CFA4CA"/>
<path d="M84.3667 65.8162L78.6827 56.8628L73 65.8162H84.3667Z" fill="white"/>
<path d="M84.3667 84.7695L78.6827 75.8162L73 84.7695H84.3667Z" fill="white"/>
<path d="M84.3667 8.95337L78.6827 3.61375e-05L73 8.95337H84.3667Z" fill="white"/>
<path d="M84.3667 27.9081L78.6827 18.9534L73 27.9081H84.3667Z" fill="white"/>
<path d="M84.3667 46.8628L78.6827 37.9081L73 46.8628H84.3667Z" fill="white"/>
<path d="M74.362 137.249C74.33 136.037 75.2793 135.033 76.4793 135.001C77.6913 134.967 78.6953 135.906 78.7273 137.117C78.7713 138.319 77.822 139.323 76.61 139.366H76.5446C75.366 139.366 74.406 138.427 74.362 137.249ZM85.134 139.595C83.934 139.486 83.0393 138.438 83.1366 137.238C83.2353 136.026 84.294 135.142 85.4953 135.241C86.6953 135.338 87.59 136.397 87.4926 137.598C87.394 138.733 86.4326 139.595 85.3086 139.595H85.134ZM65.6526 138.253C65.4886 137.053 66.3073 135.95 67.5073 135.777C68.6966 135.601 69.81 136.43 69.974 137.631C70.1486 138.821 69.3193 139.923 68.13 140.098C68.022 140.109 67.922 140.118 67.8126 140.118C66.7433 140.118 65.8166 139.333 65.6526 138.253ZM93.5606 140.775V140.785C92.382 140.546 91.6166 139.387 91.846 138.209C92.086 137.03 93.2326 136.255 94.422 136.497C95.602 136.735 96.3646 137.882 96.1366 139.059C95.9286 140.098 95.0113 140.818 93.9966 140.818C93.8553 140.818 93.714 140.806 93.5606 140.775ZM57.118 140.239C56.8126 139.071 57.5006 137.882 58.6673 137.575C59.8353 137.259 61.0246 137.958 61.342 139.125C61.6473 140.294 60.9486 141.483 59.7806 141.789C59.5953 141.843 59.41 141.866 59.2233 141.866C58.2526 141.866 57.3686 141.211 57.118 140.239ZM101.811 142.925C100.666 142.554 100.031 141.321 100.403 140.173C100.775 139.027 102.007 138.394 103.154 138.766C104.299 139.137 104.933 140.37 104.562 141.515C104.255 142.443 103.405 143.033 102.477 143.033C102.258 143.033 102.029 143.001 101.811 142.925ZM48.8553 143.197C48.4193 142.073 48.9753 140.806 50.0993 140.37C51.2126 139.934 52.4793 140.479 52.926 141.605C53.3633 142.727 52.806 143.994 51.682 144.43C51.4206 144.539 51.158 144.582 50.886 144.582C50.0126 144.582 49.194 144.059 48.8553 143.197ZM109.757 146.002C108.655 145.499 108.174 144.213 108.677 143.11C109.178 142.018 110.466 141.527 111.557 142.029H111.569C112.661 142.531 113.151 143.819 112.649 144.922C112.278 145.729 111.481 146.198 110.663 146.198C110.358 146.198 110.051 146.133 109.757 146.002ZM40.998 147.082C40.43 146.013 40.834 144.693 41.9033 144.135C42.962 143.567 44.282 143.971 44.85 145.03C45.418 146.101 45.014 147.421 43.9446 147.989C43.6166 148.163 43.2673 148.239 42.9286 148.239C42.1433 148.239 41.39 147.826 40.998 147.082ZM117.299 149.975H117.287C116.262 149.353 115.923 148.01 116.546 146.974C117.167 145.946 118.51 145.61 119.547 146.231C120.573 146.853 120.911 148.195 120.289 149.233C119.886 149.91 119.154 150.291 118.413 150.291C118.03 150.291 117.647 150.182 117.299 149.975ZM33.63 151.841C32.9433 150.847 33.194 149.483 34.1873 148.806C35.1793 148.118 36.5446 148.371 37.2326 149.365C37.9086 150.357 37.658 151.721 36.6646 152.397C36.282 152.661 35.8566 152.79 35.4313 152.79C34.7326 152.79 34.0566 152.451 33.63 151.841ZM124.327 154.777C123.378 154.046 123.193 152.67 123.935 151.721C124.666 150.761 126.041 150.586 126.99 151.317C127.95 152.05 128.126 153.423 127.394 154.374C126.958 154.941 126.314 155.223 125.659 155.223C125.201 155.223 124.731 155.082 124.327 154.777ZM26.8526 157.406C26.0566 156.49 26.154 155.115 27.0593 154.318V154.33C27.9766 153.533 29.3526 153.63 30.138 154.537C30.9353 155.443 30.8353 156.818 29.93 157.614C29.5153 157.975 29.002 158.15 28.5006 158.15C27.89 158.15 27.278 157.898 26.8526 157.406ZM130.778 160.343C129.915 159.514 129.894 158.127 130.734 157.266C131.563 156.391 132.949 156.371 133.811 157.211C134.685 158.053 134.706 159.438 133.866 160.299C133.441 160.737 132.862 160.966 132.294 160.966C131.749 160.966 131.203 160.758 130.778 160.343ZM20.7406 163.694C19.8566 162.887 19.7913 161.499 20.61 160.615C21.418 159.721 22.8033 159.666 23.6873 160.474C24.582 161.293 24.638 162.678 23.83 163.562C23.3926 164.033 22.8033 164.273 22.214 164.273C21.69 164.273 21.1553 164.086 20.7406 163.694ZM136.551 166.609C135.787 165.679 135.918 164.305 136.857 163.541C137.785 162.777 139.159 162.907 139.923 163.835C140.687 164.774 140.557 166.15 139.629 166.913C139.215 167.241 138.723 167.405 138.243 167.405C137.61 167.405 136.989 167.131 136.551 166.609ZM15.3926 170.647C14.41 169.937 14.1926 168.573 14.9006 167.602C15.6113 166.618 16.9753 166.411 17.958 167.11C18.9286 167.819 19.1473 169.183 18.438 170.165C18.0113 170.755 17.346 171.061 16.6686 171.061C16.2233 171.061 15.7753 170.93 15.3926 170.647ZM141.571 173.485C140.918 172.481 141.211 171.126 142.226 170.471C143.242 169.817 144.585 170.111 145.239 171.115C145.894 172.13 145.61 173.485 144.595 174.138C144.223 174.379 143.821 174.489 143.417 174.489C142.695 174.489 141.998 174.138 141.571 173.485ZM10.8526 178.166C9.80462 177.566 9.43395 176.234 10.034 175.186C10.6233 174.138 11.954 173.767 13.002 174.357C14.05 174.946 14.4206 176.277 13.8313 177.326V177.337C13.4286 178.046 12.686 178.439 11.922 178.439C11.562 178.439 11.1913 178.351 10.8526 178.166ZM145.785 180.894C145.25 179.814 145.686 178.503 146.767 177.97C147.847 177.435 149.157 177.871 149.693 178.951V178.962C150.226 180.043 149.79 181.342 148.71 181.877C148.393 182.03 148.066 182.107 147.738 182.107C146.942 182.107 146.167 181.659 145.785 180.894ZM7.21795 186.145C6.10462 185.674 5.58062 184.398 6.04995 183.283C6.51928 182.171 7.80728 181.647 8.90995 182.117C10.0233 182.586 10.5473 183.874 10.078 184.977C9.72862 185.817 8.92062 186.319 8.06862 186.319C7.78462 186.319 7.49128 186.265 7.21795 186.145ZM149.113 188.73C148.71 187.595 149.299 186.341 150.434 185.938C151.569 185.534 152.814 186.122 153.229 187.258C153.633 188.393 153.043 189.637 151.907 190.041C151.667 190.127 151.417 190.171 151.166 190.171C150.27 190.171 149.441 189.615 149.113 188.73ZM4.51128 194.494C3.35395 194.155 2.69929 192.943 3.02729 191.786C3.37662 190.63 4.58728 189.963 5.73395 190.303C6.90195 190.641 7.55662 191.853 7.22862 193.009C6.94462 193.958 6.07129 194.581 5.12195 194.581C4.92595 194.581 4.71928 194.549 4.51128 194.494ZM151.526 196.894C151.253 195.726 151.983 194.549 153.163 194.275C154.33 194.002 155.509 194.733 155.782 195.902C156.055 197.081 155.323 198.247 154.157 198.521C153.981 198.563 153.818 198.587 153.654 198.587C152.661 198.587 151.766 197.899 151.526 196.894ZM2.79795 203.094C1.60862 202.887 0.811287 201.763 1.00729 200.573C1.21529 199.383 2.33929 198.587 3.52862 198.782C4.71929 198.991 5.51529 200.114 5.30729 201.305C5.13395 202.374 4.20595 203.127 3.15795 203.127C3.03795 203.127 2.91795 203.115 2.79795 203.094ZM152.987 205.287C152.846 204.087 153.709 203.006 154.909 202.865C156.11 202.734 157.19 203.586 157.321 204.785C157.463 205.987 156.613 207.066 155.411 207.198C155.323 207.21 155.237 207.221 155.161 207.221C154.057 207.221 153.119 206.401 152.987 205.287ZM2.05529 211.835C0.855286 211.761 -0.0620494 210.734 0.00328398 209.534C0.0686173 208.322 1.09529 207.405 2.29529 207.47C3.50729 207.537 4.42329 208.574 4.35929 209.774C4.29262 210.93 3.33262 211.835 2.17529 211.835H2.05529ZM153.49 213.954V213.867V213.79C153.479 212.59 154.462 211.607 155.662 211.607C156.874 211.607 157.845 212.579 157.855 213.79V213.867V213.954C157.855 215.154 156.874 216.137 155.673 216.137C154.462 216.137 153.49 215.154 153.49 213.954ZM0.00328398 218.538V218.549C-0.0620494 217.337 0.855285 216.311 2.06595 216.234C3.26729 216.169 4.29262 217.086 4.36862 218.297C4.43529 219.499 3.51795 220.523 2.31795 220.601H2.18595C1.04062 220.601 0.0806173 219.706 0.00328398 218.538ZM154.931 224.869C153.73 224.737 152.867 223.657 153.01 222.455C153.141 221.255 154.222 220.405 155.422 220.535C156.622 220.666 157.485 221.757 157.343 222.947C157.223 224.059 156.274 224.889 155.182 224.889C155.094 224.889 155.018 224.879 154.931 224.869ZM1.04062 227.499C0.833951 226.309 1.62995 225.185 2.81928 224.977C4.00862 224.77 5.13395 225.566 5.34062 226.755C5.54862 227.946 4.75129 229.07 3.56195 229.277C3.43129 229.299 3.30995 229.311 3.18995 229.311C2.14195 229.311 1.21528 228.557 1.04062 227.499ZM153.195 233.469C152.027 233.195 151.297 232.027 151.569 230.849C151.842 229.681 153.01 228.95 154.189 229.222C155.357 229.485 156.087 230.663 155.815 231.842C155.586 232.846 154.691 233.522 153.698 233.522C153.534 233.522 153.37 233.511 153.195 233.469ZM3.08195 236.283C2.74329 235.126 3.39795 233.917 4.55529 233.577C5.71129 233.229 6.92328 233.893 7.27262 235.051C7.61128 236.207 6.94462 237.419 5.78862 237.758C5.58062 237.823 5.37262 237.845 5.17662 237.845C4.22729 237.845 3.36462 237.234 3.08195 236.283ZM150.489 241.818C149.354 241.414 148.765 240.169 149.167 239.023C149.571 237.887 150.827 237.299 151.962 237.703C153.097 238.107 153.686 239.362 153.282 240.498C152.966 241.391 152.126 241.947 151.231 241.947C150.979 241.947 150.741 241.905 150.489 241.818ZM6.11528 244.777C5.64595 243.663 6.16995 242.386 7.27262 241.905C8.38595 241.446 9.66328 241.959 10.142 243.073C10.6126 244.174 10.0886 245.463 8.97528 245.933C8.70195 246.054 8.40728 246.107 8.12328 246.107C7.28328 246.107 6.47528 245.606 6.11528 244.777ZM146.843 249.795C145.763 249.261 145.315 247.962 145.85 246.871C146.385 245.79 147.695 245.354 148.775 245.878C149.857 246.413 150.303 247.721 149.769 248.802C149.386 249.578 148.611 250.025 147.803 250.025C147.487 250.025 147.161 249.947 146.843 249.795ZM10.11 252.851C9.50995 251.805 9.88062 250.473 10.9286 249.883C11.9766 249.283 13.3073 249.654 13.9086 250.702C14.498 251.75 14.126 253.081 13.09 253.67C12.7406 253.867 12.3686 253.966 12.0086 253.966C11.246 253.966 10.514 253.561 10.11 252.851ZM142.303 257.305C141.289 256.651 141.003 255.307 141.659 254.293C142.303 253.278 143.657 252.983 144.671 253.637C145.686 254.293 145.981 255.646 145.326 256.651C144.911 257.305 144.202 257.655 143.482 257.655C143.078 257.655 142.674 257.545 142.303 257.305ZM15.0006 260.427C14.29 259.454 14.498 258.09 15.4686 257.382C16.4513 256.671 17.8153 256.881 18.526 257.861C19.234 258.833 19.0153 260.198 18.0446 260.906C17.6513 261.191 17.2046 261.322 16.7566 261.322C16.0913 261.322 15.4246 261.015 15.0006 260.427ZM136.945 264.258C136.017 263.494 135.875 262.118 136.639 261.179C137.402 260.251 138.778 260.11 139.717 260.875C140.645 261.638 140.786 263.013 140.022 263.951C139.585 264.475 138.963 264.749 138.331 264.749C137.85 264.749 137.359 264.585 136.945 264.258ZM20.7073 267.401C19.89 266.517 19.9553 265.13 20.8393 264.311C21.7233 263.503 23.1086 263.558 23.9166 264.453C24.7353 265.338 24.6806 266.714 23.7966 267.531C23.3713 267.913 22.8473 268.11 22.3113 268.11C21.7233 268.11 21.1446 267.87 20.7073 267.401ZM130.833 270.545C129.991 269.681 130.014 268.295 130.875 267.454C131.749 266.614 133.125 266.637 133.965 267.499C134.806 268.361 134.783 269.747 133.921 270.587C133.495 271.002 132.949 271.21 132.403 271.21C131.835 271.21 131.269 270.981 130.833 270.545ZM27.1793 273.687C26.2633 272.89 26.166 271.515 26.962 270.598C27.7473 269.693 29.1233 269.594 30.0393 270.381C30.9446 271.166 31.0433 272.553 30.258 273.458C29.822 273.959 29.2206 274.211 28.61 274.211C28.0966 274.211 27.5953 274.037 27.1793 273.687ZM124.055 276.099C123.313 275.15 123.487 273.775 124.447 273.043C125.397 272.301 126.773 272.477 127.503 273.437C128.246 274.386 128.071 275.761 127.11 276.493C126.718 276.809 126.249 276.95 125.779 276.95C125.125 276.95 124.481 276.657 124.055 276.099ZM34.318 279.187C33.3246 278.51 33.074 277.147 33.75 276.154C34.4273 275.162 35.7913 274.909 36.7846 275.586C37.778 276.263 38.0286 277.627 37.3526 278.621C36.926 279.231 36.25 279.57 35.5513 279.57C35.126 279.57 34.6993 279.449 34.318 279.187ZM116.677 280.858C116.054 279.821 116.393 278.479 117.418 277.857C118.455 277.234 119.798 277.562 120.419 278.587C121.042 279.625 120.703 280.966 119.678 281.589C119.329 281.807 118.935 281.905 118.554 281.905C117.811 281.905 117.091 281.535 116.677 280.858ZM42.0446 283.849C40.9753 283.279 40.5713 281.959 41.1286 280.901C41.6953 279.833 43.0166 279.417 44.0753 279.985C45.1446 280.553 45.5486 281.873 44.9926 282.933C44.5993 283.673 43.8353 284.099 43.0606 284.099C42.7113 284.099 42.362 284.023 42.0446 283.849ZM108.818 284.731C108.317 283.63 108.797 282.342 109.898 281.841C110.99 281.338 112.289 281.818 112.791 282.91C113.293 284.011 112.802 285.301 111.71 285.813C111.417 285.943 111.111 286.009 110.805 286.009C109.975 286.009 109.19 285.53 108.818 284.731ZM50.242 287.593C49.1286 287.157 48.5713 285.889 48.998 284.766C49.446 283.641 50.6993 283.085 51.8353 283.521H51.8246C52.9486 283.957 53.5046 285.223 53.0686 286.347C52.742 287.21 51.9113 287.745 51.038 287.745C50.7766 287.745 50.5033 287.69 50.242 287.593ZM100.557 287.679C100.185 286.534 100.818 285.301 101.953 284.93H101.965C103.11 284.557 104.333 285.19 104.714 286.337C105.086 287.483 104.453 288.717 103.306 289.087C103.089 289.153 102.859 289.185 102.63 289.185C101.713 289.185 100.862 288.607 100.557 287.679ZM58.8313 290.375C57.6633 290.07 56.9646 288.879 57.2713 287.713C57.5766 286.545 58.766 285.846 59.934 286.151C61.1006 286.457 61.8006 287.646 61.4953 288.814C61.2326 289.797 60.3486 290.451 59.3886 290.451C59.202 290.451 59.0166 290.418 58.8313 290.375ZM92.01 289.666C91.7806 288.487 92.5446 287.33 93.7233 287.101C94.9033 286.861 96.0593 287.625 96.2993 288.803C96.5286 289.983 95.7646 291.139 94.586 291.379C94.4446 291.401 94.302 291.422 94.15 291.422C93.1353 291.422 92.2286 290.703 92.01 289.666ZM67.6713 292.154C66.4713 291.981 65.642 290.877 65.8166 289.687C65.9913 288.487 67.0926 287.658 68.282 287.833C69.4726 287.997 70.302 289.098 70.1393 290.299C69.986 291.39 69.0473 292.175 67.9766 292.175C67.8793 292.175 67.77 292.166 67.6713 292.154ZM83.3006 290.659C83.202 289.458 84.086 288.41 85.2873 288.302C86.4873 288.191 87.546 289.087 87.6553 290.287C87.754 291.489 86.8593 292.547 85.658 292.657V292.645C85.6033 292.657 85.538 292.657 85.4726 292.657C84.3486 292.657 83.3993 291.794 83.3006 290.659ZM76.654 292.907C75.4433 292.874 74.4926 291.87 74.5366 290.67C74.57 289.458 75.574 288.507 76.774 288.542C77.974 288.574 78.9246 289.578 78.8913 290.789C78.8593 291.969 77.8873 292.907 76.7086 292.907H76.654Z" fill="white"/>
</svg>
