<svg width="158" height="158" viewBox="0 0 158 158" fill="none" xmlns="http://www.w3.org/2000/svg">
<path d="M74.362 2.24886C74.33 1.03686 75.2793 0.03286 76.4793 0.000859959C77.6913 -0.0324734 78.6953 0.906191 78.7273 2.11686C78.7713 3.31952 77.822 4.32352 76.61 4.36619H76.5446C75.366 4.36619 74.406 3.42752 74.362 2.24886ZM85.134 4.59553C83.934 4.48619 83.0393 3.43819 83.1366 2.23819C83.2353 1.02619 84.294 0.142194 85.4953 0.24086C86.6953 0.338194 87.59 1.39686 87.4926 2.59819C87.394 3.73286 86.4326 4.59553 85.3086 4.59553H85.134ZM65.6526 3.25285C65.4886 2.05285 66.3073 0.950194 67.5073 0.776861C68.6966 0.600861 69.81 1.43019 69.974 2.63153C70.1486 3.82086 69.3193 4.92352 68.13 5.09819C68.022 5.10886 67.922 5.11819 67.8126 5.11819C66.7433 5.11819 65.8166 4.33285 65.6526 3.25285ZM93.5606 5.77552V5.78486C92.382 5.54619 91.6166 4.38752 91.846 3.20886C92.086 2.03019 93.2326 1.25552 94.422 1.49685C95.602 1.73552 96.3646 2.88219 96.1366 4.05953C95.9286 5.09819 95.0113 5.81819 93.9966 5.81819C93.8553 5.81819 93.714 5.80619 93.5606 5.77552ZM57.118 5.23952C56.8126 4.07152 57.5006 2.88219 58.6673 2.57553C59.8353 2.25953 61.0246 2.95819 61.342 4.12485C61.6473 5.29419 60.9486 6.48352 59.7806 6.78885C59.5953 6.84352 59.41 6.86619 59.2233 6.86619C58.2526 6.86619 57.3686 6.21152 57.118 5.23952ZM101.811 7.92486C100.666 7.55419 100.031 6.32086 100.403 5.17286C100.775 4.02752 102.007 3.39419 103.154 3.76619C104.299 4.13686 104.933 5.37019 104.562 6.51552C104.255 7.44352 103.405 8.03285 102.477 8.03285C102.258 8.03285 102.029 8.00086 101.811 7.92486ZM48.8553 8.19685C48.4193 7.07285 48.9753 5.80619 50.0993 5.37019C51.2126 4.93419 52.4793 5.47952 52.926 6.60485C53.3633 7.72752 52.806 8.99419 51.682 9.43019C51.4206 9.53953 51.158 9.58219 50.886 9.58219C50.0126 9.58219 49.194 9.05952 48.8553 8.19685ZM109.757 11.0022C108.655 10.4995 108.174 9.21285 108.677 8.11018C109.178 7.01818 110.466 6.52752 111.557 7.02885H111.569C112.661 7.53152 113.151 8.81952 112.649 9.92219C112.278 10.7289 111.481 11.1982 110.663 11.1982C110.358 11.1982 110.051 11.1329 109.757 11.0022ZM40.998 12.0822C40.43 11.0129 40.834 9.69286 41.9033 9.13552C42.962 8.56752 44.282 8.97152 44.85 10.0302C45.418 11.1009 45.014 12.4209 43.9446 12.9889C43.6166 13.1635 43.2673 13.2395 42.9286 13.2395C42.1433 13.2395 41.39 12.8262 40.998 12.0822ZM117.299 14.9755H117.287C116.262 14.3529 115.923 13.0102 116.546 11.9742C117.167 10.9462 118.51 10.6102 119.547 11.2315C120.573 11.8529 120.911 13.1955 120.289 14.2329C119.886 14.9102 119.154 15.2915 118.413 15.2915C118.03 15.2915 117.647 15.1822 117.299 14.9755ZM33.63 16.8409C32.9433 15.8475 33.194 14.4835 34.1873 13.8062C35.1793 13.1182 36.5446 13.3715 37.2326 14.3649C37.9086 15.3569 37.658 16.7209 36.6646 17.3969C36.282 17.6609 35.8566 17.7902 35.4313 17.7902C34.7326 17.7902 34.0566 17.4515 33.63 16.8409ZM124.327 19.7769C123.378 19.0462 123.193 17.6702 123.935 16.7209C124.666 15.7609 126.041 15.5862 126.99 16.3169C127.95 17.0502 128.126 18.4235 127.394 19.3742C126.958 19.9409 126.314 20.2235 125.659 20.2235C125.201 20.2235 124.731 20.0822 124.327 19.7769ZM26.8526 22.4062C26.0566 21.4902 26.154 20.1155 27.0593 19.3182V19.3302C27.9766 18.5329 29.3526 18.6302 30.138 19.5369C30.9353 20.4435 30.8353 21.8182 29.93 22.6142C29.5153 22.9755 29.002 23.1502 28.5006 23.1502C27.89 23.1502 27.278 22.8982 26.8526 22.4062ZM130.778 25.3435C129.915 24.5142 129.894 23.1275 130.734 22.2662C131.563 21.3915 132.949 21.3715 133.811 22.2115C134.685 23.0529 134.706 24.4382 133.866 25.2995C133.441 25.7369 132.862 25.9662 132.294 25.9662C131.749 25.9662 131.203 25.7582 130.778 25.3435ZM20.7406 28.6942C19.8566 27.8875 19.7913 26.4995 20.61 25.6155C21.418 24.7209 22.8033 24.6662 23.6873 25.4742C24.582 26.2929 24.638 27.6782 23.83 28.5622C23.3926 29.0329 22.8033 29.2729 22.214 29.2729C21.69 29.2729 21.1553 29.0862 20.7406 28.6942ZM136.551 31.6089C135.787 30.6795 135.918 29.3049 136.857 28.5409C137.785 27.7769 139.159 27.9075 139.923 28.8355C140.687 29.7742 140.557 31.1502 139.629 31.9129C139.215 32.2409 138.723 32.4049 138.243 32.4049C137.61 32.4049 136.989 32.1315 136.551 31.6089ZM15.3926 35.6475C14.41 34.9369 14.1926 33.5729 14.9006 32.6022C15.6113 31.6182 16.9753 31.4115 17.958 32.1102C18.9286 32.8195 19.1473 34.1835 18.438 35.1649C18.0113 35.7555 17.346 36.0609 16.6686 36.0609C16.2233 36.0609 15.7753 35.9302 15.3926 35.6475ZM141.571 38.4849C140.918 37.4809 141.211 36.1262 142.226 35.4715C143.242 34.8169 144.585 35.1115 145.239 36.1155C145.894 37.1302 145.61 38.4849 144.595 39.1382C144.223 39.3795 143.821 39.4889 143.417 39.4889C142.695 39.4889 141.998 39.1382 141.571 38.4849ZM10.8526 43.1662C9.80462 42.5662 9.43395 41.2342 10.034 40.1862C10.6233 39.1382 11.954 38.7675 13.002 39.3569C14.05 39.9462 14.4206 41.2769 13.8313 42.3262V42.3369C13.4286 43.0462 12.686 43.4395 11.922 43.4395C11.562 43.4395 11.1913 43.3515 10.8526 43.1662ZM145.785 45.8942C145.25 44.8142 145.686 43.5035 146.767 42.9702C147.847 42.4355 149.157 42.8715 149.693 43.9515V43.9622C150.226 45.0435 149.79 46.3422 148.71 46.8769C148.393 47.0302 148.066 47.1075 147.738 47.1075C146.942 47.1075 146.167 46.6595 145.785 45.8942ZM7.21795 51.1449C6.10462 50.6742 5.58062 49.3982 6.04995 48.2835C6.51928 47.1715 7.80728 46.6475 8.90995 47.1169C10.0233 47.5862 10.5473 48.8742 10.078 49.9769C9.72862 50.8169 8.92062 51.3195 8.06862 51.3195C7.78462 51.3195 7.49128 51.2649 7.21795 51.1449ZM149.113 53.7302C148.71 52.5955 149.299 51.3409 150.434 50.9382C151.569 50.5342 152.814 51.1222 153.229 52.2582C153.633 53.3929 153.043 54.6369 151.907 55.0409C151.667 55.1275 151.417 55.1715 151.166 55.1715C150.27 55.1715 149.441 54.6155 149.113 53.7302ZM4.51128 59.4942C3.35395 59.1555 2.69929 57.9435 3.02729 56.7862C3.37662 55.6302 4.58728 54.9635 5.73395 55.3035C6.90195 55.6409 7.55662 56.8529 7.22862 58.0089C6.94462 58.9582 6.07129 59.5809 5.12195 59.5809C4.92595 59.5809 4.71928 59.5489 4.51128 59.4942ZM151.526 61.8942C151.253 60.7262 151.983 59.5489 153.163 59.2755C154.33 59.0022 155.509 59.7329 155.782 60.9022C156.055 62.0809 155.323 63.2475 154.157 63.5209C153.981 63.5635 153.818 63.5875 153.654 63.5875C152.661 63.5875 151.766 62.8995 151.526 61.8942ZM2.79795 68.0942C1.60862 67.8875 0.811287 66.7635 1.00729 65.5729C1.21529 64.3835 2.33929 63.5875 3.52862 63.7822C4.71929 63.9915 5.51529 65.1142 5.30729 66.3049C5.13395 67.3742 4.20595 68.1275 3.15795 68.1275C3.03795 68.1275 2.91795 68.1155 2.79795 68.0942ZM152.987 70.2875C152.846 69.0875 153.709 68.0062 154.909 67.8649C156.11 67.7342 157.19 68.5862 157.321 69.7849C157.463 70.9875 156.613 72.0662 155.411 72.1982C155.323 72.2102 155.237 72.2209 155.161 72.2209C154.057 72.2209 153.119 71.4009 152.987 70.2875ZM2.05529 76.8355C0.855286 76.7609 -0.0620494 75.7342 0.00328398 74.5342C0.0686173 73.3222 1.09529 72.4049 2.29529 72.4702C3.50729 72.5369 4.42329 73.5742 4.35929 74.7742C4.29262 75.9302 3.33262 76.8355 2.17529 76.8355H2.05529ZM153.49 78.9542V78.8675V78.7902C153.479 77.5902 154.462 76.6075 155.662 76.6075C156.874 76.6075 157.845 77.5795 157.855 78.7902V78.8675V78.9542C157.855 80.1542 156.874 81.1369 155.673 81.1369C154.462 81.1369 153.49 80.1542 153.49 78.9542ZM0.00328398 83.5382V83.5489C-0.0620494 82.3369 0.855285 81.3115 2.06595 81.2342C3.26729 81.1689 4.29262 82.0862 4.36862 83.2969C4.43529 84.4995 3.51795 85.5235 2.31795 85.6009H2.18595C1.04062 85.6009 0.0806173 84.7062 0.00328398 83.5382ZM154.931 89.8689C153.73 89.7369 152.867 88.6569 153.01 87.4555C153.141 86.2555 154.222 85.4049 155.422 85.5355C156.622 85.6662 157.485 86.7569 157.343 87.9475C157.223 89.0595 156.274 89.8889 155.182 89.8889C155.094 89.8889 155.018 89.8795 154.931 89.8689ZM1.04062 92.4995C0.833951 91.3089 1.62995 90.1849 2.81928 89.9769C4.00862 89.7702 5.13395 90.5662 5.34062 91.7555C5.54862 92.9462 4.75129 94.0702 3.56195 94.2769C3.43129 94.2995 3.30995 94.3115 3.18995 94.3115C2.14195 94.3115 1.21528 93.5569 1.04062 92.4995ZM153.195 98.4689C152.027 98.1955 151.297 97.0275 151.569 95.8489C151.842 94.6809 153.01 93.9502 154.189 94.2222C155.357 94.4849 156.087 95.6635 155.815 96.8422C155.586 97.8462 154.691 98.5222 153.698 98.5222C153.534 98.5222 153.37 98.5115 153.195 98.4689ZM3.08195 101.284C2.74329 100.126 3.39795 98.9169 4.55529 98.5769C5.71129 98.2289 6.92328 98.8929 7.27262 100.052C7.61128 101.208 6.94462 102.42 5.78862 102.758C5.58062 102.824 5.37262 102.845 5.17662 102.845C4.22729 102.845 3.36462 102.234 3.08195 101.284ZM150.489 106.818C149.354 106.414 148.765 105.169 149.167 104.024C149.571 102.888 150.827 102.3 151.962 102.704C153.097 103.108 153.686 104.362 153.282 105.498C152.966 106.392 152.126 106.948 151.231 106.948C150.979 106.948 150.741 106.905 150.489 106.818ZM6.11528 109.777C5.64595 108.664 6.16995 107.386 7.27262 106.905C8.38595 106.446 9.66328 106.96 10.142 108.073C10.6126 109.174 10.0886 110.464 8.97528 110.933C8.70195 111.054 8.40728 111.108 8.12328 111.108C7.28328 111.108 6.47528 110.606 6.11528 109.777ZM146.843 114.796C145.763 114.261 145.315 112.962 145.85 111.872C146.385 110.79 147.695 110.354 148.775 110.878C149.857 111.413 150.303 112.721 149.769 113.802C149.386 114.578 148.611 115.025 147.803 115.025C147.487 115.025 147.161 114.948 146.843 114.796ZM10.11 117.852C9.50995 116.805 9.88062 115.473 10.9286 114.884C11.9766 114.284 13.3073 114.654 13.9086 115.702C14.498 116.75 14.126 118.081 13.09 118.67C12.7406 118.868 12.3686 118.966 12.0086 118.966C11.246 118.966 10.514 118.561 10.11 117.852ZM142.303 122.305C141.289 121.652 141.003 120.308 141.659 119.293C142.303 118.278 143.657 117.984 144.671 118.637C145.686 119.293 145.981 120.646 145.326 121.652C144.911 122.305 144.202 122.656 143.482 122.656C143.078 122.656 142.674 122.545 142.303 122.305ZM15.0006 125.428C14.29 124.454 14.498 123.09 15.4686 122.382C16.4513 121.672 17.8153 121.881 18.526 122.861C19.234 123.833 19.0153 125.198 18.0446 125.906C17.6513 126.192 17.2046 126.322 16.7566 126.322C16.0913 126.322 15.4246 126.016 15.0006 125.428ZM136.945 129.258C136.017 128.494 135.875 127.118 136.639 126.18C137.402 125.252 138.778 125.11 139.717 125.876C140.645 126.638 140.786 128.013 140.022 128.952C139.585 129.476 138.963 129.749 138.331 129.749C137.85 129.749 137.359 129.585 136.945 129.258ZM20.7073 132.401C19.89 131.517 19.9553 130.13 20.8393 129.312C21.7233 128.504 23.1086 128.558 23.9166 129.453C24.7353 130.338 24.6806 131.714 23.7966 132.532C23.3713 132.913 22.8473 133.11 22.3113 133.11C21.7233 133.11 21.1446 132.87 20.7073 132.401ZM130.833 135.545C129.991 134.681 130.014 133.296 130.875 132.454C131.749 131.614 133.125 131.637 133.965 132.5C134.806 133.361 134.783 134.748 133.921 135.588C133.495 136.002 132.949 136.21 132.403 136.21C131.835 136.21 131.269 135.981 130.833 135.545ZM27.1793 138.688C26.2633 137.89 26.166 136.516 26.962 135.598C27.7473 134.693 29.1233 134.594 30.0393 135.381C30.9446 136.166 31.0433 137.553 30.258 138.458C29.822 138.96 29.2206 139.212 28.61 139.212C28.0966 139.212 27.5953 139.037 27.1793 138.688ZM124.055 141.1C123.313 140.15 123.487 138.776 124.447 138.044C125.397 137.301 126.773 137.477 127.503 138.437C128.246 139.386 128.071 140.761 127.11 141.493C126.718 141.809 126.249 141.95 125.779 141.95C125.125 141.95 124.481 141.657 124.055 141.1ZM34.318 144.188C33.3246 143.51 33.074 142.148 33.75 141.154C34.4273 140.162 35.7913 139.909 36.7846 140.586C37.778 141.264 38.0286 142.628 37.3526 143.621C36.926 144.232 36.25 144.57 35.5513 144.57C35.126 144.57 34.6993 144.449 34.318 144.188ZM116.677 145.858C116.054 144.821 116.393 143.48 117.418 142.857C118.455 142.234 119.798 142.562 120.419 143.588C121.042 144.625 120.703 145.966 119.678 146.589C119.329 146.808 118.935 146.905 118.554 146.905C117.811 146.905 117.091 146.536 116.677 145.858ZM42.0446 148.849C40.9753 148.28 40.5713 146.96 41.1286 145.901C41.6953 144.833 43.0166 144.417 44.0753 144.985C45.1446 145.553 45.5486 146.873 44.9926 147.933C44.5993 148.673 43.8353 149.1 43.0606 149.1C42.7113 149.1 42.362 149.024 42.0446 148.849ZM108.818 149.732C108.317 148.63 108.797 147.342 109.898 146.841C110.99 146.338 112.289 146.818 112.791 147.91C113.293 149.012 112.802 150.301 111.71 150.813C111.417 150.944 111.111 151.009 110.805 151.009C109.975 151.009 109.19 150.53 108.818 149.732ZM50.242 152.593C49.1286 152.157 48.5713 150.889 48.998 149.766C49.446 148.641 50.6993 148.085 51.8353 148.521H51.8246C52.9486 148.957 53.5046 150.224 53.0686 151.348C52.742 152.21 51.9113 152.745 51.038 152.745C50.7766 152.745 50.5033 152.69 50.242 152.593ZM100.557 152.68C100.185 151.534 100.818 150.301 101.953 149.93H101.965C103.11 149.557 104.333 150.19 104.714 151.337C105.086 152.484 104.453 153.717 103.306 154.088C103.089 154.153 102.859 154.185 102.63 154.185C101.713 154.185 100.862 153.608 100.557 152.68ZM58.8313 155.376C57.6633 155.07 56.9646 153.88 57.2713 152.713C57.5766 151.545 58.766 150.846 59.934 151.152C61.1006 151.457 61.8006 152.646 61.4953 153.814C61.2326 154.797 60.3486 155.452 59.3886 155.452C59.202 155.452 59.0166 155.418 58.8313 155.376ZM92.01 154.666C91.7806 153.488 92.5446 152.33 93.7233 152.101C94.9033 151.861 96.0593 152.625 96.2993 153.804C96.5286 154.984 95.7646 156.14 94.586 156.38C94.4446 156.401 94.302 156.422 94.15 156.422C93.1353 156.422 92.2286 155.704 92.01 154.666ZM67.6713 157.154C66.4713 156.981 65.642 155.877 65.8166 154.688C65.9913 153.488 67.0926 152.658 68.282 152.833C69.4726 152.997 70.302 154.098 70.1393 155.3C69.986 156.39 69.0473 157.176 67.9766 157.176C67.8793 157.176 67.77 157.166 67.6713 157.154ZM83.3006 155.66C83.202 154.458 84.086 153.41 85.2873 153.302C86.4873 153.192 87.546 154.088 87.6553 155.288C87.754 156.489 86.8593 157.548 85.658 157.657V157.645C85.6033 157.657 85.538 157.657 85.4726 157.657C84.3486 157.657 83.3993 156.794 83.3006 155.66ZM76.654 157.908C75.4433 157.874 74.4926 156.87 74.5366 155.67C74.57 154.458 75.574 153.508 76.774 153.542C77.974 153.574 78.9246 154.578 78.8913 155.789C78.8593 156.969 77.8873 157.908 76.7086 157.908H76.654Z" fill="#929493"/>
</svg>
