<svg width="325" height="119" viewBox="0 0 325 119" fill="none" xmlns="http://www.w3.org/2000/svg">
<path d="M0 2.41468C0 3.74801 1.08133 4.82935 2.41333 4.82935C3.74667 4.82935 4.828 3.74801 4.828 2.41468C4.828 1.08135 3.74667 1.22538e-05 2.41333 1.22538e-05C1.08133 1.22538e-05 0 1.08135 0 2.41468Z" fill="#929493"/>
<path d="M26.6125 2.41468C26.6125 3.74801 27.6939 4.82935 29.0259 4.82935C30.3592 4.82935 31.4405 3.74801 31.4405 2.41468C31.4405 1.08135 30.3592 1.22538e-05 29.0259 1.22538e-05C27.6939 1.22538e-05 26.6125 1.08135 26.6125 2.41468Z" fill="#929493"/>
<path d="M53.2252 2.41468C53.2252 3.74801 54.3065 4.82935 55.6399 4.82935C56.9719 4.82935 58.0532 3.74801 58.0532 2.41468C58.0532 1.08135 56.9719 1.22538e-05 55.6399 1.22538e-05C54.3065 1.22538e-05 53.2252 1.08135 53.2252 2.41468Z" fill="#929493"/>
<path d="M79.8379 2.41468C79.8379 3.74801 80.9192 4.82935 82.2525 4.82935C83.5859 4.82935 84.6659 3.74801 84.6659 2.41468C84.6659 1.08135 83.5859 1.22538e-05 82.2525 1.22538e-05C80.9192 1.22538e-05 79.8379 1.08135 79.8379 2.41468Z" fill="#929493"/>
<path d="M106.451 2.41468C106.451 3.74801 107.532 4.82935 108.864 4.82935C110.198 4.82935 111.279 3.74801 111.279 2.41468C111.279 1.08135 110.198 1.22538e-05 108.864 1.22538e-05C107.532 1.22538e-05 106.451 1.08135 106.451 2.41468Z" fill="#929493"/>
<path d="M133.064 2.41468C133.064 3.74801 134.145 4.82935 135.477 4.82935C136.81 4.82935 137.892 3.74801 137.892 2.41468C137.892 1.08135 136.81 1.22538e-05 135.477 1.22538e-05C134.145 1.22538e-05 133.064 1.08135 133.064 2.41468Z" fill="#929493"/>
<path d="M159.676 2.41468C159.676 3.74801 160.758 4.82935 162.091 4.82935C163.423 4.82935 164.504 3.74801 164.504 2.41468C164.504 1.08135 163.423 1.22538e-05 162.091 1.22538e-05C160.758 1.22538e-05 159.676 1.08135 159.676 2.41468Z" fill="#929493"/>
<path d="M186.289 2.41468C186.289 3.74801 187.37 4.82935 188.704 4.82935C190.037 4.82935 191.117 3.74801 191.117 2.41468C191.117 1.08135 190.037 1.22538e-05 188.704 1.22538e-05C187.37 1.22538e-05 186.289 1.08135 186.289 2.41468Z" fill="#929493"/>
<path d="M212.902 2.41468C212.902 3.74801 213.982 4.82935 215.316 4.82935C216.649 4.82935 217.73 3.74801 217.73 2.41468C217.73 1.08135 216.649 1.22538e-05 215.316 1.22538e-05C213.982 1.22538e-05 212.902 1.08135 212.902 2.41468Z" fill="#929493"/>
<path d="M239.515 2.41468C239.515 3.74801 240.596 4.82935 241.928 4.82935C243.262 4.82935 244.343 3.74801 244.343 2.41468C244.343 1.08135 243.262 1.22538e-05 241.928 1.22538e-05C240.596 1.22538e-05 239.515 1.08135 239.515 2.41468Z" fill="#929493"/>
<path d="M266.128 2.41468C266.128 3.74801 267.209 4.82935 268.542 4.82935C269.874 4.82935 270.956 3.74801 270.956 2.41468C270.956 1.08135 269.874 1.22538e-05 268.542 1.22538e-05C267.209 1.22538e-05 266.128 1.08135 266.128 2.41468Z" fill="#929493"/>
<path d="M292.74 2.41468C292.74 3.74801 293.821 4.82935 295.155 4.82935C296.488 4.82935 297.568 3.74801 297.568 2.41468C297.568 1.08135 296.488 1.22538e-05 295.155 1.22538e-05C293.821 1.22538e-05 292.74 1.08135 292.74 2.41468Z" fill="#929493"/>
<path d="M319.353 2.41468C319.353 3.74801 320.433 4.82935 321.767 4.82935C323.1 4.82935 324.181 3.74801 324.181 2.41468C324.181 1.08135 323.1 1.22538e-05 321.767 1.22538e-05C320.433 1.22538e-05 319.353 1.08135 319.353 2.41468Z" fill="#929493"/>
<path d="M0 25.0891C0 26.4225 1.08133 27.5038 2.41333 27.5038C3.74667 27.5038 4.828 26.4225 4.828 25.0891C4.828 23.7571 3.74667 22.6758 2.41333 22.6758C1.08133 22.6758 0 23.7571 0 25.0891Z" fill="#929493"/>
<path d="M26.6125 25.0891C26.6125 26.4225 27.6939 27.5038 29.0259 27.5038C30.3592 27.5038 31.4405 26.4225 31.4405 25.0891C31.4405 23.7571 30.3592 22.6758 29.0259 22.6758C27.6939 22.6758 26.6125 23.7571 26.6125 25.0891Z" fill="#929493"/>
<path d="M53.2252 25.0891C53.2252 26.4225 54.3065 27.5038 55.6399 27.5038C56.9719 27.5038 58.0532 26.4225 58.0532 25.0891C58.0532 23.7571 56.9719 22.6758 55.6399 22.6758C54.3065 22.6758 53.2252 23.7571 53.2252 25.0891Z" fill="#929493"/>
<path d="M79.8379 25.0891C79.8379 26.4225 80.9192 27.5038 82.2525 27.5038C83.5859 27.5038 84.6659 26.4225 84.6659 25.0891C84.6659 23.7571 83.5859 22.6758 82.2525 22.6758C80.9192 22.6758 79.8379 23.7571 79.8379 25.0891Z" fill="#929493"/>
<path d="M106.451 25.0891C106.451 26.4225 107.532 27.5038 108.864 27.5038C110.198 27.5038 111.279 26.4225 111.279 25.0891C111.279 23.7571 110.198 22.6758 108.864 22.6758C107.532 22.6758 106.451 23.7571 106.451 25.0891Z" fill="#929493"/>
<path d="M133.064 25.0891C133.064 26.4225 134.145 27.5038 135.477 27.5038C136.81 27.5038 137.892 26.4225 137.892 25.0891C137.892 23.7571 136.81 22.6758 135.477 22.6758C134.145 22.6758 133.064 23.7571 133.064 25.0891Z" fill="#929493"/>
<path d="M159.676 25.0891C159.676 26.4225 160.758 27.5038 162.091 27.5038C163.423 27.5038 164.504 26.4225 164.504 25.0891C164.504 23.7571 163.423 22.6758 162.091 22.6758C160.758 22.6758 159.676 23.7571 159.676 25.0891Z" fill="#929493"/>
<path d="M186.289 25.0891C186.289 26.4225 187.37 27.5038 188.704 27.5038C190.037 27.5038 191.117 26.4225 191.117 25.0891C191.117 23.7571 190.037 22.6758 188.704 22.6758C187.37 22.6758 186.289 23.7571 186.289 25.0891Z" fill="#929493"/>
<path d="M212.902 25.0891C212.902 26.4225 213.982 27.5038 215.316 27.5038C216.649 27.5038 217.73 26.4225 217.73 25.0891C217.73 23.7571 216.649 22.6758 215.316 22.6758C213.982 22.6758 212.902 23.7571 212.902 25.0891Z" fill="#929493"/>
<path d="M239.515 25.0891C239.515 26.4225 240.596 27.5038 241.928 27.5038C243.262 27.5038 244.343 26.4225 244.343 25.0891C244.343 23.7571 243.262 22.6758 241.928 22.6758C240.596 22.6758 239.515 23.7571 239.515 25.0891Z" fill="#929493"/>
<path d="M266.128 25.0891C266.128 26.4225 267.209 27.5038 268.542 27.5038C269.874 27.5038 270.956 26.4225 270.956 25.0891C270.956 23.7571 269.874 22.6758 268.542 22.6758C267.209 22.6758 266.128 23.7571 266.128 25.0891Z" fill="#929493"/>
<path d="M292.74 25.0891C292.74 26.4225 293.821 27.5038 295.155 27.5038C296.488 27.5038 297.568 26.4225 297.568 25.0891C297.568 23.7571 296.488 22.6758 295.155 22.6758C293.821 22.6758 292.74 23.7571 292.74 25.0891Z" fill="#929493"/>
<path d="M319.353 25.0891C319.353 26.4225 320.433 27.5038 321.767 27.5038C323.1 27.5038 324.181 26.4225 324.181 25.0891C324.181 23.7571 323.1 22.6758 321.767 22.6758C320.433 22.6758 319.353 23.7571 319.353 25.0891Z" fill="#929493"/>
<path d="M0 47.7649C0 49.0982 1.08133 50.1796 2.41333 50.1796C3.74667 50.1796 4.828 49.0982 4.828 47.7649C4.828 46.4316 3.74667 45.3502 2.41333 45.3502C1.08133 45.3502 0 46.4316 0 47.7649Z" fill="#929493"/>
<path d="M26.6125 47.7649C26.6125 49.0982 27.6939 50.1796 29.0259 50.1796C30.3592 50.1796 31.4405 49.0982 31.4405 47.7649C31.4405 46.4316 30.3592 45.3502 29.0259 45.3502C27.6939 45.3502 26.6125 46.4316 26.6125 47.7649Z" fill="#929493"/>
<path d="M53.2252 47.7649C53.2252 49.0982 54.3065 50.1796 55.6399 50.1796C56.9719 50.1796 58.0532 49.0982 58.0532 47.7649C58.0532 46.4316 56.9719 45.3502 55.6399 45.3502C54.3065 45.3502 53.2252 46.4316 53.2252 47.7649Z" fill="#929493"/>
<path d="M79.8379 47.7649C79.8379 49.0982 80.9192 50.1796 82.2525 50.1796C83.5859 50.1796 84.6659 49.0982 84.6659 47.7649C84.6659 46.4316 83.5859 45.3502 82.2525 45.3502C80.9192 45.3502 79.8379 46.4316 79.8379 47.7649Z" fill="#929493"/>
<path d="M106.451 47.7649C106.451 49.0982 107.532 50.1796 108.864 50.1796C110.198 50.1796 111.279 49.0982 111.279 47.7649C111.279 46.4316 110.198 45.3502 108.864 45.3502C107.532 45.3502 106.451 46.4316 106.451 47.7649Z" fill="#929493"/>
<path d="M133.064 47.7649C133.064 49.0982 134.145 50.1796 135.477 50.1796C136.81 50.1796 137.892 49.0982 137.892 47.7649C137.892 46.4316 136.81 45.3502 135.477 45.3502C134.145 45.3502 133.064 46.4316 133.064 47.7649Z" fill="#929493"/>
<path d="M159.676 47.7649C159.676 49.0982 160.758 50.1796 162.091 50.1796C163.423 50.1796 164.504 49.0982 164.504 47.7649C164.504 46.4316 163.423 45.3502 162.091 45.3502C160.758 45.3502 159.676 46.4316 159.676 47.7649Z" fill="#929493"/>
<path d="M186.289 47.7649C186.289 49.0982 187.37 50.1796 188.704 50.1796C190.037 50.1796 191.117 49.0982 191.117 47.7649C191.117 46.4316 190.037 45.3502 188.704 45.3502C187.37 45.3502 186.289 46.4316 186.289 47.7649Z" fill="#929493"/>
<path d="M212.902 47.7649C212.902 49.0982 213.982 50.1796 215.316 50.1796C216.649 50.1796 217.73 49.0982 217.73 47.7649C217.73 46.4316 216.649 45.3502 215.316 45.3502C213.982 45.3502 212.902 46.4316 212.902 47.7649Z" fill="#929493"/>
<path d="M239.515 47.7649C239.515 49.0982 240.596 50.1796 241.928 50.1796C243.262 50.1796 244.343 49.0982 244.343 47.7649C244.343 46.4316 243.262 45.3502 241.928 45.3502C240.596 45.3502 239.515 46.4316 239.515 47.7649Z" fill="#929493"/>
<path d="M266.128 47.7649C266.128 49.0982 267.209 50.1796 268.542 50.1796C269.874 50.1796 270.956 49.0982 270.956 47.7649C270.956 46.4316 269.874 45.3502 268.542 45.3502C267.209 45.3502 266.128 46.4316 266.128 47.7649Z" fill="#929493"/>
<path d="M292.74 47.7649C292.74 49.0982 293.821 50.1796 295.155 50.1796C296.488 50.1796 297.568 49.0982 297.568 47.7649C297.568 46.4316 296.488 45.3502 295.155 45.3502C293.821 45.3502 292.74 46.4316 292.74 47.7649Z" fill="#929493"/>
<path d="M319.353 47.7649C319.353 49.0982 320.433 50.1796 321.767 50.1796C323.1 50.1796 324.181 49.0982 324.181 47.7649C324.181 46.4316 323.1 45.3502 321.767 45.3502C320.433 45.3502 319.353 46.4316 319.353 47.7649Z" fill="#929493"/>
<path d="M0 70.4407C0 71.7727 1.08133 72.854 2.41333 72.854C3.74667 72.854 4.828 71.7727 4.828 70.4407C4.828 69.1073 3.74667 68.026 2.41333 68.026C1.08133 68.026 0 69.1073 0 70.4407Z" fill="#929493"/>
<path d="M26.6125 70.4407C26.6125 71.7727 27.6939 72.854 29.0259 72.854C30.3592 72.854 31.4405 71.7727 31.4405 70.4407C31.4405 69.1073 30.3592 68.026 29.0259 68.026C27.6939 68.026 26.6125 69.1073 26.6125 70.4407Z" fill="#929493"/>
<path d="M53.2252 70.4407C53.2252 71.7727 54.3065 72.854 55.6399 72.854C56.9719 72.854 58.0532 71.7727 58.0532 70.4407C58.0532 69.1073 56.9719 68.026 55.6399 68.026C54.3065 68.026 53.2252 69.1073 53.2252 70.4407Z" fill="#929493"/>
<path d="M79.8379 70.4407C79.8379 71.7727 80.9192 72.854 82.2525 72.854C83.5859 72.854 84.6659 71.7727 84.6659 70.4407C84.6659 69.1073 83.5859 68.026 82.2525 68.026C80.9192 68.026 79.8379 69.1073 79.8379 70.4407Z" fill="#929493"/>
<path d="M106.451 70.4407C106.451 71.7727 107.532 72.854 108.864 72.854C110.198 72.854 111.279 71.7727 111.279 70.4407C111.279 69.1073 110.198 68.026 108.864 68.026C107.532 68.026 106.451 69.1073 106.451 70.4407Z" fill="#929493"/>
<path d="M133.064 70.4407C133.064 71.7727 134.145 72.854 135.477 72.854C136.81 72.854 137.892 71.7727 137.892 70.4407C137.892 69.1073 136.81 68.026 135.477 68.026C134.145 68.026 133.064 69.1073 133.064 70.4407Z" fill="#929493"/>
<path d="M159.676 70.4407C159.676 71.7727 160.758 72.854 162.091 72.854C163.423 72.854 164.504 71.7727 164.504 70.4407C164.504 69.1073 163.423 68.026 162.091 68.026C160.758 68.026 159.676 69.1073 159.676 70.4407Z" fill="#929493"/>
<path d="M186.289 70.4407C186.289 71.7727 187.37 72.854 188.704 72.854C190.037 72.854 191.117 71.7727 191.117 70.4407C191.117 69.1073 190.037 68.026 188.704 68.026C187.37 68.026 186.289 69.1073 186.289 70.4407Z" fill="#929493"/>
<path d="M212.902 70.4407C212.902 71.7727 213.982 72.854 215.316 72.854C216.649 72.854 217.73 71.7727 217.73 70.4407C217.73 69.1073 216.649 68.026 215.316 68.026C213.982 68.026 212.902 69.1073 212.902 70.4407Z" fill="#929493"/>
<path d="M239.515 70.4407C239.515 71.7727 240.596 72.854 241.928 72.854C243.262 72.854 244.343 71.7727 244.343 70.4407C244.343 69.1073 243.262 68.026 241.928 68.026C240.596 68.026 239.515 69.1073 239.515 70.4407Z" fill="#929493"/>
<path d="M266.128 70.4407C266.128 71.7727 267.209 72.854 268.542 72.854C269.874 72.854 270.956 71.7727 270.956 70.4407C270.956 69.1073 269.874 68.026 268.542 68.026C267.209 68.026 266.128 69.1073 266.128 70.4407Z" fill="#929493"/>
<path d="M292.74 70.4407C292.74 71.7727 293.821 72.854 295.155 72.854C296.488 72.854 297.568 71.7727 297.568 70.4407C297.568 69.1073 296.488 68.026 295.155 68.026C293.821 68.026 292.74 69.1073 292.74 70.4407Z" fill="#929493"/>
<path d="M319.353 70.4407C319.353 71.7727 320.433 72.854 321.767 72.854C323.1 72.854 324.181 71.7727 324.181 70.4407C324.181 69.1073 323.1 68.026 321.767 68.026C320.433 68.026 319.353 69.1073 319.353 70.4407Z" fill="#929493"/>
<path d="M0 93.1152C0 94.4486 1.08133 95.5299 2.41333 95.5299C3.74667 95.5299 4.828 94.4486 4.828 93.1152C4.828 91.7819 3.74667 90.7006 2.41333 90.7006C1.08133 90.7006 0 91.7819 0 93.1152Z" fill="#929493"/>
<path d="M26.6125 93.1152C26.6125 94.4486 27.6939 95.5299 29.0259 95.5299C30.3592 95.5299 31.4405 94.4486 31.4405 93.1152C31.4405 91.7819 30.3592 90.7006 29.0259 90.7006C27.6939 90.7006 26.6125 91.7819 26.6125 93.1152Z" fill="#929493"/>
<path d="M53.2252 93.1152C53.2252 94.4486 54.3065 95.5299 55.6399 95.5299C56.9719 95.5299 58.0532 94.4486 58.0532 93.1152C58.0532 91.7819 56.9719 90.7006 55.6399 90.7006C54.3065 90.7006 53.2252 91.7819 53.2252 93.1152Z" fill="#929493"/>
<path d="M79.8379 93.1152C79.8379 94.4486 80.9192 95.5299 82.2525 95.5299C83.5859 95.5299 84.6659 94.4486 84.6659 93.1152C84.6659 91.7819 83.5859 90.7006 82.2525 90.7006C80.9192 90.7006 79.8379 91.7819 79.8379 93.1152Z" fill="#929493"/>
<path d="M106.451 93.1152C106.451 94.4486 107.532 95.5299 108.864 95.5299C110.198 95.5299 111.279 94.4486 111.279 93.1152C111.279 91.7819 110.198 90.7006 108.864 90.7006C107.532 90.7006 106.451 91.7819 106.451 93.1152Z" fill="#929493"/>
<path d="M133.064 93.1152C133.064 94.4486 134.145 95.5299 135.477 95.5299C136.81 95.5299 137.892 94.4486 137.892 93.1152C137.892 91.7819 136.81 90.7006 135.477 90.7006C134.145 90.7006 133.064 91.7819 133.064 93.1152Z" fill="#929493"/>
<path d="M159.676 93.1152C159.676 94.4486 160.758 95.5299 162.091 95.5299C163.423 95.5299 164.504 94.4486 164.504 93.1152C164.504 91.7819 163.423 90.7006 162.091 90.7006C160.758 90.7006 159.676 91.7819 159.676 93.1152Z" fill="#929493"/>
<path d="M186.289 93.1152C186.289 94.4486 187.37 95.5299 188.704 95.5299C190.037 95.5299 191.117 94.4486 191.117 93.1152C191.117 91.7819 190.037 90.7006 188.704 90.7006C187.37 90.7006 186.289 91.7819 186.289 93.1152Z" fill="#929493"/>
<path d="M212.902 93.1152C212.902 94.4486 213.982 95.5299 215.316 95.5299C216.649 95.5299 217.73 94.4486 217.73 93.1152C217.73 91.7819 216.649 90.7006 215.316 90.7006C213.982 90.7006 212.902 91.7819 212.902 93.1152Z" fill="#929493"/>
<path d="M239.515 93.1152C239.515 94.4486 240.596 95.5299 241.928 95.5299C243.262 95.5299 244.343 94.4486 244.343 93.1152C244.343 91.7819 243.262 90.7006 241.928 90.7006C240.596 90.7006 239.515 91.7819 239.515 93.1152Z" fill="#929493"/>
<path d="M266.128 93.1152C266.128 94.4486 267.209 95.5299 268.542 95.5299C269.874 95.5299 270.956 94.4486 270.956 93.1152C270.956 91.7819 269.874 90.7006 268.542 90.7006C267.209 90.7006 266.128 91.7819 266.128 93.1152Z" fill="#929493"/>
<path d="M292.74 93.1152C292.74 94.4486 293.821 95.5299 295.155 95.5299C296.488 95.5299 297.568 94.4486 297.568 93.1152C297.568 91.7819 296.488 90.7006 295.155 90.7006C293.821 90.7006 292.74 91.7819 292.74 93.1152Z" fill="#929493"/>
<path d="M319.353 93.1152C319.353 94.4486 320.433 95.5299 321.767 95.5299C323.1 95.5299 324.181 94.4486 324.181 93.1152C324.181 91.7819 323.1 90.7006 321.767 90.7006C320.433 90.7006 319.353 91.7819 319.353 93.1152Z" fill="#929493"/>
<path d="M0 115.791C0 117.124 1.08133 118.206 2.41333 118.206C3.74667 118.206 4.828 117.124 4.828 115.791C4.828 114.458 3.74667 113.376 2.41333 113.376C1.08133 113.376 0 114.458 0 115.791Z" fill="#929493"/>
<path d="M26.6125 115.791C26.6125 117.124 27.6939 118.206 29.0259 118.206C30.3592 118.206 31.4405 117.124 31.4405 115.791C31.4405 114.458 30.3592 113.376 29.0259 113.376C27.6939 113.376 26.6125 114.458 26.6125 115.791Z" fill="#929493"/>
<path d="M53.2252 115.791C53.2252 117.124 54.3065 118.206 55.6399 118.206C56.9719 118.206 58.0532 117.124 58.0532 115.791C58.0532 114.458 56.9719 113.376 55.6399 113.376C54.3065 113.376 53.2252 114.458 53.2252 115.791Z" fill="#929493"/>
<path d="M79.8379 115.791C79.8379 117.124 80.9192 118.206 82.2525 118.206C83.5859 118.206 84.6659 117.124 84.6659 115.791C84.6659 114.458 83.5859 113.376 82.2525 113.376C80.9192 113.376 79.8379 114.458 79.8379 115.791Z" fill="#929493"/>
<path d="M106.451 115.791C106.451 117.124 107.532 118.206 108.864 118.206C110.198 118.206 111.279 117.124 111.279 115.791C111.279 114.458 110.198 113.376 108.864 113.376C107.532 113.376 106.451 114.458 106.451 115.791Z" fill="#929493"/>
<path d="M133.064 115.791C133.064 117.124 134.145 118.206 135.477 118.206C136.81 118.206 137.892 117.124 137.892 115.791C137.892 114.458 136.81 113.376 135.477 113.376C134.145 113.376 133.064 114.458 133.064 115.791Z" fill="#929493"/>
<path d="M159.676 115.791C159.676 117.124 160.758 118.206 162.091 118.206C163.423 118.206 164.504 117.124 164.504 115.791C164.504 114.458 163.423 113.376 162.091 113.376C160.758 113.376 159.676 114.458 159.676 115.791Z" fill="#929493"/>
<path d="M186.289 115.791C186.289 117.124 187.37 118.206 188.704 118.206C190.037 118.206 191.117 117.124 191.117 115.791C191.117 114.458 190.037 113.376 188.704 113.376C187.37 113.376 186.289 114.458 186.289 115.791Z" fill="#929493"/>
<path d="M212.902 115.791C212.902 117.124 213.982 118.206 215.316 118.206C216.649 118.206 217.73 117.124 217.73 115.791C217.73 114.458 216.649 113.376 215.316 113.376C213.982 113.376 212.902 114.458 212.902 115.791Z" fill="#929493"/>
<path d="M239.515 115.791C239.515 117.124 240.596 118.206 241.928 118.206C243.262 118.206 244.343 117.124 244.343 115.791C244.343 114.458 243.262 113.376 241.928 113.376C240.596 113.376 239.515 114.458 239.515 115.791Z" fill="#929493"/>
<path d="M266.128 115.791C266.128 117.124 267.209 118.206 268.542 118.206C269.874 118.206 270.956 117.124 270.956 115.791C270.956 114.458 269.874 113.376 268.542 113.376C267.209 113.376 266.128 114.458 266.128 115.791Z" fill="#929493"/>
<path d="M292.74 115.791C292.74 117.124 293.821 118.206 295.155 118.206C296.488 118.206 297.568 117.124 297.568 115.791C297.568 114.458 296.488 113.376 295.155 113.376C293.821 113.376 292.74 114.458 292.74 115.791Z" fill="#929493"/>
<path d="M319.353 115.791C319.353 117.124 320.433 118.206 321.767 118.206C323.1 118.206 324.181 117.124 324.181 115.791C324.181 114.458 323.1 113.376 321.767 113.376C320.433 113.376 319.353 114.458 319.353 115.791Z" fill="#929493"/>
</svg>
