<svg width="24" height="24" viewBox="0 0 24 24" fill="none" xmlns="http://www.w3.org/2000/svg">
<g clip-path="url(#clip0_504_6)">
<path d="M18.5 2.00044H16.475C15.783 1.2129 14.8942 0.623361 13.8995 0.292152C12.9048 -0.0390565 11.84 -0.100042 10.814 0.115436C9.56347 0.370482 8.43301 1.0335 7.6 2.00044H5C2.1 2.00044 0 4.31344 0 7.50044V18.5004C0.00185226 19.9586 0.58191 21.3564 1.61296 22.3875C2.64401 23.4185 4.04188 23.9986 5.5 24.0004H18.5C19.9581 23.9986 21.356 23.4185 22.387 22.3875C23.4181 21.3564 23.9981 19.9586 24 18.5004V7.50044C23.9981 6.04232 23.4181 4.64444 22.387 3.6134C21.356 2.58235 19.9581 2.00229 18.5 2.00044V2.00044ZM21 18.5004C21 19.1635 20.7366 19.7994 20.2678 20.2682C19.7989 20.737 19.163 21.0004 18.5 21.0004H5.5C4.83696 21.0004 4.20107 20.737 3.73223 20.2682C3.26339 19.7994 3 19.1635 3 18.5004V7.50044C3 7.08344 3.1 5.00044 5 5.00044H6.135C6.0563 5.40037 6.01545 5.80684 6.013 6.21444C6.01423 6.93744 6.29668 7.6316 6.80058 8.15006C7.30449 8.66853 7.99033 8.97062 8.713 8.99244L11.249 4.66944C11.4697 4.33792 11.813 4.10763 12.2034 4.02924C12.5939 3.95085 12.9995 4.03078 13.331 4.25144C13.6625 4.4721 13.8928 4.81542 13.9712 5.20587C14.0496 5.59632 13.9697 6.00192 13.749 6.33344L12.316 9.00044H15.228C15.6164 9.01511 16.0033 8.94577 16.3624 8.79715C16.7215 8.64854 17.0443 8.42415 17.3087 8.13933C17.5731 7.8545 17.7729 7.51595 17.8945 7.14681C18.016 6.77767 18.0565 6.38664 18.013 6.00044C18.013 6.01644 17.976 5.33744 17.921 5.00044H18.5C19.163 5.00044 19.7989 5.26383 20.2678 5.73267C20.7366 6.20151 21 6.8374 21 7.50044V18.5004Z" fill="#932387"/>
</g>
<defs>
<clipPath id="clip0_504_6">
<rect width="24" height="24" fill="white"/>
</clipPath>
</defs>
</svg>
