<svg width="17" height="17" viewBox="0 0 17 17" fill="none" xmlns="http://www.w3.org/2000/svg">
<g clip-path="url(#clip0_37_42)">
<path d="M8.79997 12.5C12.482 12.5 15.4666 8.5 15.4666 8.5C15.4666 8.5 12.482 4.5 8.79997 4.5C5.11797 4.5 2.1333 8.5 2.1333 8.5C2.1333 8.5 5.11797 12.5 8.79997 12.5Z" stroke="#932387" stroke-width="1.33333" stroke-linejoin="round"/>
<path d="M8.79997 10.1666C9.242 10.1666 9.66592 9.99105 9.97848 9.67849C10.291 9.36593 10.4666 8.94201 10.4666 8.49998C10.4666 8.05795 10.291 7.63403 9.97848 7.32147C9.66592 7.00891 9.242 6.83331 8.79997 6.83331C8.35794 6.83331 7.93402 7.00891 7.62146 7.32147C7.3089 7.63403 7.1333 8.05795 7.1333 8.49998C7.1333 8.94201 7.3089 9.36593 7.62146 9.67849C7.93402 9.99105 8.35794 10.1666 8.79997 10.1666Z" stroke="#932387" stroke-width="1.33333" stroke-linejoin="round"/>
</g>
<defs>
<clipPath id="clip0_37_42">
<rect width="16" height="16" fill="white" transform="translate(0.800049 0.5)"/>
</clipPath>
</defs>
</svg>
