<svg width="34" height="257" viewBox="0 0 34 257" fill="none" xmlns="http://www.w3.org/2000/svg">
<path d="M0 1.88535L33.0133 34.8987V33.0133L0 1.42187e-05V1.88535Z" fill="#929493"/>
<path d="M0 18.9701L33.0133 51.9834V50.0981L0 17.0847V18.9701Z" fill="#929493"/>
<path d="M0 36.0545L33.0133 69.0679V67.1825L0 34.1692V36.0545Z" fill="#929493"/>
<path d="M0 53.1379L33.0133 86.1512V84.2659L0 51.2526V53.1379Z" fill="#929493"/>
<path d="M0 70.2226L33.0133 103.236V101.351L0 68.3373V70.2226Z" fill="#929493"/>
<path d="M0 87.3059L33.0133 120.319V118.434L0 85.4205V87.3059Z" fill="#929493"/>
<path d="M0 104.391L33.0133 137.404V135.519L0 102.505V104.391Z" fill="#929493"/>
<path d="M0 121.474L33.0133 154.487V152.602L0 119.589V121.474Z" fill="#929493"/>
<path d="M0 138.559L33.0133 171.572V169.687L0 136.673V138.559Z" fill="#929493"/>
<path d="M0 155.642L33.0133 188.655V186.77L0 153.757V155.642Z" fill="#929493"/>
<path d="M0 172.726L33.0133 205.74V203.854L0 170.841V172.726Z" fill="#929493"/>
<path d="M0 189.81L33.0133 222.823V220.938L0 187.924V189.81Z" fill="#929493"/>
<path d="M0 206.894L33.0133 239.908V238.022L0 205.009V206.894Z" fill="#929493"/>
<path d="M0 223.978L33.0133 256.991V255.106L0 222.092V223.978Z" fill="#929493"/>
</svg>
