<svg width="81" height="81" viewBox="0 0 81 81" fill="none" xmlns="http://www.w3.org/2000/svg">
<path d="M79.6121 60.7093H60.708V79.612H79.6121V60.7093ZM80.6121 80.612H59.708V59.7093H80.6121V80.612Z" fill="#E7E7E7"/>
<path d="M59.708 40.8053H40.8053V59.7094H59.708V40.8053ZM60.708 60.7094H39.8053V39.8053H60.708V60.7094Z" fill="#E7E7E7"/>
<path d="M59.708 20.904H40.8053V39.8067H59.708V20.904ZM60.708 40.8053H39.8053V19.9027H60.708V40.8053Z" fill="#E7E7E7"/>
<path d="M39.8067 40.8053H20.9041V59.7094H39.8067V40.8053ZM40.8067 60.7094H19.9041V39.8053H40.8067V60.7094Z" fill="#E7E7E7"/>
<path d="M79.6121 40.8053H60.708V59.7094H79.6121V40.8053ZM80.6121 60.7094H59.708V39.8053H80.6121V60.7094Z" fill="#E7E7E7"/>
<path d="M79.6121 20.904H60.708V39.8067H79.6121V20.904ZM80.6121 40.8053H59.708V19.9027H80.6121V40.8053Z" fill="#E7E7E7"/>
<path d="M79.6121 0.999991H60.708V19.904H79.6121V0.999991ZM80.6121 20.904H59.708V-8.92655e-06H80.6121V20.904Z" fill="#E7E7E7"/>
<path d="M59.708 60.7093H40.8053V79.612H59.708V60.7093ZM60.708 80.612H39.8053V59.7093H60.708V80.612Z" fill="#E7E7E7"/>
<path d="M39.8067 60.7093H20.9041V79.612H39.8067V60.7093ZM40.8067 80.612H19.9041V59.7093H40.8067V80.612Z" fill="#E7E7E7"/>
<path d="M19.9041 60.7093H1V79.612H19.9041V60.7093ZM20.9041 80.612H0V59.7093H20.9041V80.612Z" fill="#E7E7E7"/>
</svg>
